<svg xmlns="http://www.w3.org/2000/svg">
<defs>
<font id="SterlingHeightsFont" horiz-adv-x="1024" >
  <font-face 
    font-family="Sterling Heights Font"
    font-weight="400"
    font-stretch="normal"
    units-per-em="2048"
    panose-1="2 0 5 0 0 0 0 0 0 0"
    ascent="1638"
    descent="-410"
    x-height="646"
    cap-height="2862"
    bbox="-2173 -3574 21131 4598"
    underline-thickness="150"
    underline-position="-292"
    unicode-range="U+001D-F002"
  />
<missing-glyph 
d="M348 248l8 32q2 8 2 15q0 63 -128 63q95 -97 118 -110zM756 1194q3 1 3 3q0 4 -6 12v3q-7 0 -8 -1v-1q0 -4 4.5 -10t6.5 -6zM511 600l3 7q4 12 4 19t-5 7q-10 0 -17 -14l-1 -6q0 -10 16 -13zM703 418q-6 9 -68 52q-19 11 -26 11q13 -6 31 -23q37 -35 63 -40zM472 389
q-29 17 -29 40q0 27 48 36q9 0 15.5 -3t8.5 -3q4 0 10 26q5 13 20 24q7 5 7 6v2q0 5 -27 45q-24 4 -49 24q-8 7 -8 17q0 14 14 30q19 21 43 21q17 0 17 -8q0 -4 -2 -10q-6 -18 -9 -36q1 -16 27 -16q30 0 39 23q2 5 2 11q0 8 -4 19q-20 62 -72 100q-28 20 -46 20
q-10 0 -13 -6q-70 -142 -82 -175q-9 -26 -9 -40v-2q-5 -53 -27 -53q-11 0 -11 14q0 11 7 31q26 70 58 128q48 94 48 104q0 13 -37 23t-37 20v2q6 10 21 10q10 0 33 -6q19 -6 27 -6q7 0 10 5q9 20 20 49q14 40 49 147q4 11 9 14q4 0 4 -9q0 -29 -44 -152q-9 -25 -19 -49
l-1 -4q0 -13 33 -29l16 -8q164 -36 234 -36q52 0 62 17q4 5 7 5q7 0 7 -6q0 -7 -6 -13q-25 -24 -76 -24q-44 0 -160 23q-26 5 -34 5q-5 0 -6 -1v-1q0 -6 12 -18q45 -53 45 -91q0 -7 -6 -29q-3 -8 -22.5 -22t-38.5 -14l7 -14q23 -30 45 -41q46 -15 97 -57q31 -25 31 -38
q0 -16 -23 -16q-5 0 -11 2q-44 18 -96 70q-27 27 -38 29q-18 0 -18 -20q0 -16 11 -44q5 -15 5 -20q-1 -2 -3 -5t-6 -3q-5 0 -13 8q-30 35 -56 35q-16 0 -16 -14q0 -9 11 -20q5 -6 5 -11q0 -9 -10 -12zM614 812q-16 0 -16 8q0 18 28 18q42 0 42 10q0 7 -15 28q-30 38 -30 51
q0 10 17 10q11 0 25 -4q57 -13 63 -13q5 0 5 2q0 3 -13 16q-42 42 -42 66v1l-46 5q-6 4 -6 9q0 14 22 14q14 0 53 -10l8 -1q0 6 -8 10q-33 27 -33 47q0 29 46 31q23 0 51 -12q6 0 6 6q0 13 -23 57q-1 5 -5 9q-24 9 -24 25q0 13 17 28q11 11 24 11q20 0 20 -29q0 -12 8 -12

<glyph glyph-name="er" unicode="er" horiz-adv-x="2145" 
d="M204 467q22 0 83 42l84 62q23 33 23 46q0 8 -10 8q-11 0 -37 -15q-64 -37 -128 -97q-25 -24 -29 -34q2 -12 14 -12zM1267 -152q-82 0 -132 61q-39 47 -39 132q0 26 3 54q16 128 90 250q431 674 456 743q3 10 3 18q0 27 -34 27q-18 0 -41 -12q-32 -17 -40 -63
q-7 -37 -21 -75q-41 -115 -168.5 -249.5t-333 -273.5t-412 -247.5t-356.5 -170.5q-127 -51 -207 -51q-42 0 -97.5 28t-55.5 137q0 84 36 183q12 34 52 120t140.5 197.5t213.5 148.5q35 12 69 12q76 0 146 -58q43 -43 43 -104q0 -36 -16 -80q-37 -101 -143 -172
q-87 -52 -204 -92q-60 -18 -96 -41q-30 -18 -43 -55q-6 -16 -6 -28q0 -33 44 -33q15 0 69.5 10t200 76t309.5 160q565 321 654 564q21 58 21 116q0 45 -13 91q-9 29 -9 50q0 14 4 24q9 24 54 41q107 39 239 42q203 0 203 -127q0 -23 -7 -50q-26 -71 -192 -322
q-85 -130 -172 -271q-138 -222 -186 -354q-28 -78 -28 -139q0 -63 86 -63q80 0 257 85q83 42 183 97q271 150 323 150q15 0 19 -9q-6 -32 -145 -130q-134 -95 -316 -196.5t-316 -139.5q-49 -11 -89 -11z" />
    <glyph glyph-name="ight" unicode="ight" horiz-adv-x="4284" 
d="M924 214q7 0 50 29q75 47 161 108q92 66 92 82q0 8 -20 8q-47 0 -147 -82q-51 -43 -90 -83q-48 -48 -48 -60q0 -2 2 -2zM398 -1272q9 0 37 27q99 103 219 258.5t219 317.5q94 154 137 284q-64 -27 -158 -137.5t-190.5 -255t-168.5 -272.5q-100 -177 -100 -215q0 -7 5 -7z
M512 1215q-39 0 -69 24q-53 49 -53 99q0 16 6 33q0 41 93 148q85 103 118 185q15 31 65.5 51.5t98.5 20.5q155 -10 155 -118q0 -36 -17 -82q-7 -20 -37 -78.5t-114.5 -142.5t-171.5 -122q-40 -18 -74 -18zM2684 -2295q-25 0 -51 48q-20 37 -20 131q0 25 4.5 108t81.5 299
q295 794 545 1351q113 255 113 291q0 14 -10 14q-5 0 -27 -10t-127 -92q-82 -65 -211 -157q-211 -149 -338 -149q-67 0 -114 46q-80 77 -94 326q-3 50 -22 50q-18 0 -56 -38l-61 -59q-79 -80 -161 -153q-144 -128 -224 -128q-28 0 -65 23.5t-52 153.5v9q0 82 63 256
q5 14 47 126t149 337q150 318 210 406q21 32 21 39q0 1 -1 1q-11 0 -99 -74q-340 -285 -519 -480t-266.5 -345.5t-151.5 -302.5q-68 -162 -191 -382t-388 -554q-164 -201 -289 -282q-101 -66 -164 -66q-15 0 -55 12q-33 9 -33 79q0 55 22 115q58 162 463 714
q195 266 441 508q193 188 237 411q-5 2 -12 2q-43 0 -181 -115q-75 -62 -155 -117q-100 -69 -176 -69q-56 0 -98 54q-10 11 -30 19q-10 4 -21 10l-93 -51q-470 -260 -521 -287q-95 -44 -159 -44q-19 0 -63 11t-73 72q-26 55 -26 124q0 73 23 139q15 41 240 416
q204 341 244 390q42 43 87 43q8 0 40 -5q23 -4 23 -59q0 -65 -22 -123q-52 -145 -215 -369q-256 -350 -256 -445q0 -40 48 -40q9 0 56.5 5.5t293.5 155.5q195 120 308 192.5t168.5 112.5t76.5 61t32 37t32 39t72.5 64.5t150.5 112.5q111 79 161 88q21 4 39 4q27 0 50 -9
q42 -13 82 -13q37 0 93 12q27 6 47 6q61 0 61 -64q0 -45 -27 -125q-14 -40 -14 -55q0 -9 5 -9q13 0 76 62q174 172 387 361q210 186 404.5 376t320.5 373q446 663 662 764q49 23 83 23q29 0 56 -27q23 -24 23 -74q0 -80 -38 -125q-300 -341 -558 -592
q-129 -123 -225.5 -239.5t-237.5 -353.5t-406 -723q-51 -96 -89 -199q-61 -165 -61 -250q0 -63 23 -63t68 44l96 103q356 393 457 454q44 22 71 22q23 0 38 -26q8 -13 8 -40q0 -72 -56 -258q-58 -193 -58 -275q0 -38 11 -64q13 -32 53 -32q22 0 80.5 18.5t237 154
t476.5 411.5q46 44 126 158t157 245q138 234 138 305q0 24 -17 28q-60 0 -235 14q-323 24 -417 96q-26 19 -26 44q0 8 3 18q26 71 118 71q70 0 225 -36q198 -46 306 -46q52 0 121.5 13t122.5 86l50 74q522 791 672 797q94 -5 94 -79q0 -46 -21 -103q-44 -121 -186 -319
q-84 -114 -129 -166q-165 -199 -165 -236q0 -17 22.5 -24t83.5 -7q94 3 164 3q206 6 496 34q329 30 438 30q71 0 92 -11q19 -16 19 -31q0 -61 -356 -109q-190 -26 -395 -42q-382 -31 -556 -31q-90 0 -155 -34t-118.5 -102.5t-111.5 -163.5q-119 -188 -239 -331
q-65 -81 -219 -402t-332 -745q-148 -351 -267 -679q-25 -69 -106 -298.5t-115 -450.5q-21 -148 -82 -148z" />
    <glyph glyph-name="St3" unicode="St&#x33;" horiz-adv-x="2837" 
d="M183 -971q46 66 198 215q373 368 373 459q0 17 -9 28l-28 -28q-373 -348 -495 -541q-43 -67 -43 -110q0 -13 4 -23zM2541 1538q52 0 199 26q54 8 84 58l93 158q162 268 162 315q0 13 -10 13q-15 0 -67.5 -36t-219.5 -197q-285 -273 -285 -318q0 -15 21 -18q9 -1 23 -1z
M182 -975l1 3h-14zM1015 -2308q-20 0 -47 34q-46 68 -46 160q0 103 59 265q11 31 47 118q69 161 680 1272q759 1383 967 1819q-181 0 -292.5 -26.5t-206 -95t-206.5 -189.5q-109 -114 -252 -258q-168 -167 -331.5 -338t-268.5 -309q-103 -132 -103 -197l1 -9l1 -20
q0 -172 -297 -528q-142 -170 -309 -333t-325.5 -288.5t-275.5 -183.5q-66 -32 -108 -32q-61 0 -61 57q0 21 10 49q26 82 167 254q149 182 477 523q158 164 273 291t138 183q-26 28 -151 66q-109 33 -238 88t-225 147t-108 234l-1 23q0 135 116 325q85 140 414 610
q443 633 813 1074q481 573 703 624q18 4 33 4q95 0 119 -146q2 -19 2 -44q0 -57 -12 -148q-48 -322 -176 -569q-49 -94 -123 -131q-84 11 -109 55q-8 15 -8 30q0 29 30 62q101 102 166 281q49 135 49 223q0 113 -64 113q-23 0 -81 -25t-217 -203q-281 -322 -693 -863.5
t-629 -891.5q-54 -92 -82 -169q-30 -81 -30 -173q0 -3 1 -52.5t78 -125.5t194 -120t234 -74q61 -16 113 -32l4 -1q66 0 341 278q209 211 532 566q168 185 263 285q15 17 15 28q0 39 -170 39q-75 0 -226 -7q-106 -7 -182 -7l-46 1q-30 3 -30 22q0 6 3 13q0 1 6.5 17.5t63 53
t148.5 51.5q252 33 395 47q163 17 244 34.5t139.5 65.5t155.5 154q108 122 351 362q48 46 144 144q119 122 264 267q347 345 414 345q43 -17 43 -68q0 -96 -147 -324q-93 -145 -203 -303q-249 -355 -292 -473q-13 -41 -13 -56q0 -45 54 -45q73 5 319 54q356 70 468 70
q79 0 79 -34q0 -80 -315 -138q-141 -27 -291 -51q-166 -25 -293.5 -51t-166.5 -59q-53 -60 -278 -463q-432 -775 -1047 -1954q-342 -654 -375 -745t-73 -270q-31 -134 -50 -185q-26 -73 -57 -73z" />
    <glyph glyph-name=".notdef" 
d="M348 248l8 32q2 8 2 15q0 63 -128 63q95 -97 118 -110zM756 1194q3 1 3 3q0 4 -6 12v3q-7 0 -8 -1v-1q0 -4 4.5 -10t6.5 -6zM511 600l3 7q4 12 4 19t-5 7q-10 0 -17 -14l-1 -6q0 -10 16 -13zM703 418q-6 9 -68 52q-19 11 -26 11q13 -6 31 -23q37 -35 63 -40zM472 389
q-29 17 -29 40q0 27 48 36q9 0 15.5 -3t8.5 -3q4 0 10 26q5 13 20 24q7 5 7 6v2q0 5 -27 45q-24 4 -49 24q-8 7 -8 17q0 14 14 30q19 21 43 21q17 0 17 -8q0 -4 -2 -10q-6 -18 -9 -36q1 -16 27 -16q30 0 39 23q2 5 2 11q0 8 -4 19q-20 62 -72 100q-28 20 -46 20
q-10 0 -13 -6q-70 -142 -82 -175q-9 -26 -9 -40v-2q-5 -53 -27 -53q-11 0 -11 14q0 11 7 31q26 70 58 128q48 94 48 104q0 13 -37 23t-37 20v2q6 10 21 10q10 0 33 -6q19 -6 27 -6q7 0 10 5q9 20 20 49q14 40 49 147q4 11 9 14q4 0 4 -9q0 -29 -44 -152q-9 -25 -19 -49
l-1 -4q0 -13 33 -29l16 -8q164 -36 234 -36q52 0 62 17q4 5 7 5q7 0 7 -6q0 -7 -6 -13q-25 -24 -76 -24q-44 0 -160 23q-26 5 -34 5q-5 0 -6 -1v-1q0 -6 12 -18q45 -53 45 -91q0 -7 -6 -29q-3 -8 -22.5 -22t-38.5 -14l7 -14q23 -30 45 -41q46 -15 97 -57q31 -25 31 -38
q0 -16 -23 -16q-5 0 -11 2q-44 18 -96 70q-27 27 -38 29q-18 0 -18 -20q0 -16 11 -44q5 -15 5 -20q-1 -2 -3 -5t-6 -3q-5 0 -13 8q-30 35 -56 35q-16 0 -16 -14q0 -9 11 -20q5 -6 5 -11q0 -9 -10 -12zM614 812q-16 0 -16 8q0 18 28 18q42 0 42 10q0 7 -15 28q-30 38 -30 51
q0 10 17 10q11 0 25 -4q57 -13 63 -13q5 0 5 2q0 3 -13 16q-42 42 -42 66v1l-46 5q-6 4 -6 9q0 14 22 14q14 0 53 -10l8 -1q0 6 -8 10q-33 27 -33 47q0 29 46 31q23 0 51 -12q6 0 6 6q0 13 -23 57q-1 5 -5 9q-24 9 -24 25q0 13 17 28q11 11 24 11q20 0 20 -29q0 -12 8 -12
q10 0 10 18q0 34 -19 69l-1 6q0 9 8 12q11 0 24 -44q8 -26 8 -42q0 -9 -2 -15q-11 -29 -50 -29q8 -12 18 -36q11 -28 11 -43q0 -23 -18 -23q-2 0 -4 2q-6 5 -20 10q-25 10 -47 10q-17 0 -17 -8q0 -14 32 -36q41 -31 120 -57q74 -25 115 -30q23 -3 23 -13q0 -14 -18 -14
q-8 0 -186 52l-71 18q41 -81 138 -104q47 -10 47 -23q0 -14 -29 -14q-32 8 -50.5 17.5t-39.5 14.5l-112 20q5 -14 13 -24q19 -24 19 -39q0 -18 -29 -28q-24 -8 -47 -8zM336 44q-6 0 -6 8q0 6 3 16q9 31 10 79q2 41 7 59v1q0 29 -163 166q-1 0 -1.5 1t-2.5 1t-2.5 2t-7.5 7
q-20 9 -20 18q0 8 12 8q13 0 36.5 -9.5t56.5 -20t65 -17t44 -6.5q7 0 12 15q22 53 33 53q5 0 5 -4l-9 -18q-17 -30 -17 -43q0 -9 7 -10q136 -32 228 -32q44 0 49 13q3 14 5 14q8 0 10 -9q0 -5 -1 -9q-12 -33 -77 -33q-39 0 -129 18q-57 11 -90 15q-21 0 -23 -89
q1 -17 54 -62q65 -56 65 -80q0 -7 -5.5 -12t-8.5 -5q-4 0 -9 11q-5 23 -28 47q-60 64 -69 64q-7 0 -7 -26v-37q0 -94 -26 -94zM613 -280l673 1852h-776l-673 -1852h776zM627 -305h-824l692 1902h824z" />
    <glyph glyph-name=".null" horiz-adv-x="0" 
 />
    <glyph glyph-name=".null" horiz-adv-x="0" 
 />
    <glyph glyph-name="nonmarkingreturn" horiz-adv-x="508" 
 />
    <glyph glyph-name="space" unicode=" " horiz-adv-x="999" 
 />
    <glyph glyph-name="space" unicode="&#xa0;" horiz-adv-x="999" 
 />
    <glyph glyph-name="exclam" unicode="!" horiz-adv-x="1612" 
d="M588 -163q-31 0 -77 21.5t-78 86.5q-17 35 -17 83q0 41 12 91q49 348 666 1415q272 471 570 949q536 858 968 1496q66 89 137 89q63 0 83 -59q4 -12 4 -26q0 -59 -65 -149q-464 -607 -808 -1142q-378 -589 -792 -1287q-373 -603 -498 -944q-46 -127 -77 -280
q-12 -58 -12 -114q0 -92 33 -178q4 -10 4 -19q0 -33 -53 -33zM126 -973q-27 0 -50 14q-125 82 -125 132q0 36 79 111l23 24q50 52 99.5 88.5t100.5 42.5q50 12 84 12q48 0 75 -33q13 -16 13 -42q0 -29 -16 -72q-26 -71 -84.5 -144t-127.5 -112q-37 -21 -71 -21z" />
    <glyph glyph-name="quotedbl" unicode="&#x22;" horiz-adv-x="741" 
d="M1011 2306q-24 0 -24 22q0 10 11 35q15 55 93 158q70 91 108 131q108 114 108 199q0 30 -9 64l-1 9q0 29 47.5 54.5t101.5 25.5q4 0 35.5 -0.5t45.5 -51.5q2 -8 2 -17q0 -54 -89 -187q-64 -95 -381 -420q-23 -22 -48 -22zM797 2414q-23 0 -23 23q0 10 10 34
q17 78 114 181q108 114 108 199q0 30 -9 64l-1 9q0 29 47.5 54.5t101.5 25.5q4 0 35.5 -0.5t45.5 -51.5q2 -8 2 -17q0 -54 -89 -187q-64 -95 -294 -312q-23 -22 -48 -22z" />
    <glyph glyph-name="numbersign" unicode="#" horiz-adv-x="2305" 
d="M750 253q76 0 356 202q262 186 262 281q0 9 -3 17q-54 195 -103 392q-7 34 -30 34q-16 0 -39 -18q-162 -127 -271 -205q-159 -111 -223 -183q-53 -61 -53 -154q0 -22 5.5 -77.5t72.5 -272.5q5 -16 26 -16zM875 -1215q-15 0 -25 6q-16 7 -16 25q0 21 21 52q32 49 51 99
q21 58 21 138q0 83 -148 463q-130 332 -235 332q-16 0 -82 -34.5t-326 -197.5q-207 -130 -551 -336q-50 -37 -88 -37q-32 0 -54 26q-12 13 -12 28q0 50 136 123q672 399 955 595q25 19 36 50q9 25 9 73v35q0 31 -26.5 118t-56.5 153t-43 80q-236 -214 -681 -558
q-143 -120 -218 -120q-26 0 -43.5 14t-17.5 33q0 55 159 157q358 286 722 563q22 18 37 58q27 74 27 276q0 241 -39 590q-5 36 -5 63q0 88 55 88q45 0 72 -38q15 -23 20 -137q7 -166 72 -705q115 78 307 223q146 110 223 198q69 78 69 119l-1 9q-50 222 -93 447
q20 102 60 102q20 0 45 -24q43 -42 94 -246q45 -182 104 -182q20 0 42 19q353 312 570 561q56 63 84 63q29 0 29 -57q0 -61 -52 -110q-285 -296 -505 -495q-183 -164 -183 -205l1 -6q49 -202 131 -443q3 -8 13 -8q53 0 262 175q338 282 466 402q180 168 256 168q33 0 33 -37
q0 -38 -53 -122q-35 -56 -136 -139q-548 -435 -701 -553q-43 -34 -56 -71q-4 -10 -4 -19q0 -10 4 -19q71 -166 148 -277q17 3 31 3q77 0 77 -87q0 -15 -2 -32q-20 -150 -105 -150q-75 0 -155 128q-53 84 -129 270q-13 38 -51 38q-30 0 -77 -25q-171 -125 -379 -270
q-118 -78 -136 -128q-6 -17 -6 -45q0 -114 154 -563q114 -211 114 -359q0 -88 -23 -151q-41 -112 -128 -157q-40 -20 -68 -20z" />
    <glyph glyph-name="dollar" unicode="$" horiz-adv-x="2858" 
d="M1660 1388q60 0 189 215q111 184 291 545q75 146 132 254q112 211 233 451q127 251 264 508q5 13 5 23q0 32 -50 32q-61 0 -174.5 -44.5t-258.5 -129t-296.5 -202t-285.5 -261.5t-227 -308q-43 -76 -71 -155q-34 -91 -55 -227q-5 -35 -5 -72q0 -318 284 -619
q11 -10 25 -10zM2484 2465q44 0 155 51t275.5 155t326.5 231t277 253q99 108 132 199q6 15 21 74q2 7 2 13q0 51 -96 100q-81 41 -262 41q-61 0 -132 -5q-98 -6 -168.5 -68.5t-135.5 -181.5t-146 -296q-128 -273 -179 -356q-54 -88 -72 -137q-12 -35 -16 -70q7 -3 18 -3z
M670 -779q50 0 213.5 90.5t387.5 257t424.5 369.5t300.5 408l14 78q24 103 25 198q0 95 -67 194.5t-243 215.5l-5 1q-57 0 -319 -440q-235 -398 -494 -885q-226 -426 -245 -480l-2 -6zM-320 -2882q-13 0 -33 11q-57 36 -57 135q0 131 90 376q15 42 69 176q103 255 362 756
q65 128 99 197q-362 -167 -551 -216q-120 -31 -189 -31q-108 0 -108 70q0 22 10 50q22 60 76 123t102 88q16 8 26 8q17 0 17 -25l-1 -11q-13 -64 -13 -100q0 -20 4 -32q6 -18 30 -18q20 0 69.5 18t208.5 98q150 75 406 193q66 38 225 290q241 384 719 1257q192 350 287 511
q39 63 39 103q0 14 -7 35.5t-64 65.5q-154 120 -279 379q-73 166 -73 334q0 96 24 193q61 259 272 538q161 213 403.5 413t481 332.5t413.5 176.5q189 49 339 335q64 123 120 251q107 247 183 336q54 64 118 64q63 0 63 -52q0 -29 -17 -79q-40 -108 -209 -365
q-136 -210 -159 -273l-10 -29l-2 -9q0 -16 26 -18q658 -18 658 -327q0 -53 -22 -114q-39 -107 -165 -248q-213 -237 -1031 -664q-155 -81 -231 -133.5t-130 -136.5t-141.5 -258.5t-266.5 -499.5q-23 -49 -23 -88q0 -96 146 -269q88 -101 158 -228q62 -113 62 -256
q0 -98 -34 -189q-40 -110 -159 -285.5t-476 -469.5q-242 -195 -415.5 -305t-299.5 -178q-133 -71 -236 -144t-200.5 -198t-213.5 -351.5t-275 -604.5q-27 -68 -50 -129q-85 -236 -113 -449q-9 -69 -21 -102q-10 -28 -31 -28z" />
    <glyph glyph-name="percent" unicode="%" horiz-adv-x="1794" 
d="M880 1963q37 0 106 48.5t150 138.5q100 113 128 189q6 18 6 30q0 25 -24 32q-57 10 -93 21t-63 11q-11 0 -32 -5t-67 -68t-138 -213q-20 -76 -20 -121q0 -63 47 -63zM-721 -1312q-52 0 -110 41q-38 27 -38 109q0 41 9 95q35 173 211 436q191 274 476 608
q440 517 1284 1409q390 413 714.5 768.5t510.5 601.5q7 13 8 20q0 14 -27 14q-65 0 -282 -79q-542 -197 -582 -260q-23 -35 -36 -89q-11 -47 -53 -134q-26 -55 -110 -146t-248 -207q-109 -74 -194 -74q-18 0 -74 10.5t-75 121.5q-3 17 -3 37q0 62 30 145q20 55 87 182
t326 381q86 81 140 90q14 3 27 3q63 0 117 -85q25 -42 48 -47q41 1 136 36t221 86q498 204 650 204q105 0 105 -70q0 -25 -13 -61q-49 -135 -422 -547q-327 -362 -777 -839q-310 -328 -626 -670q-737 -796 -1090 -1254q-340 -442 -340 -601q0 -52 34 -77q11 -7 27 -7
q32 0 95 35q108 59 420 326q388 320 642.5 538t494.5 449q65 62 125 88q37 17 61 17q35 0 35 -27q0 -23 -35 -85q-25 -43 -155 -165q-321 -306 -400 -650q-5 -23 -5 -42q0 -45 30 -65q8 -6 20 -6q45 0 135 87q199 202 265 315q56 97 56 157q0 13 -4.5 41t-33.5 56
q-22 25 -22 45q0 56 52 78q26 11 52 11q31 0 77 -20.5t60 -107.5q3 -15 3 -31q0 -48 -24 -113q-17 -47 -72.5 -154t-286.5 -350q-166 -169 -309 -169q-127 0 -163 125q-9 29 -9 63q0 55 24 122q15 41 33 83q17 38 28 66t11 40q0 10 -11 10q-14 0 -63 -41l-469 -399
q-457 -384 -590 -447q-72 -31 -128 -31z" />
    <glyph glyph-name="ampersand" unicode="&#x26;" horiz-adv-x="5473" 
d="M344 -1523q-171 0 -319.5 63.5t-177.5 234.5q-5 27 -5 56q0 77 32.5 166t140 260t473 461t974.5 607q101 50 130.5 70.5t59.5 60.5l-123 5q-464 10 -767 84q-440 103 -507 398q-10 42 -10 89q0 108 50 244q124 340 531 719q352 329 828.5 634t995.5 542.5t999 365.5
q402 107 717 107q59 0 116 -4q235 -21 358 -160q108 -124 108 -311q0 -123 -46 -247q-50 -138 -195.5 -349t-524.5 -489.5t-983 -532.5q-79 -31 -113 -31q-29 0 -29 18q0 7 7 23q7 12 295 168q242 130 451 257.5t404 297t401 427.5q95 119 134 228q27 75 27 185
q0 11 -1.5 79t-177.5 163q-142 76 -392 76q-63 0 -271.5 -14.5t-728 -197.5t-1212.5 -566q-459 -258 -825.5 -556t-563.5 -583q-81 -118 -120 -225q-32 -88 -32 -184q0 -70 29 -196t405 -230q233 -65 620 -65q239 0 535 24q213 22 446 109q126 48 186 48q62 0 72 -86v-10
q0 -22 -7 -41q-16 -44 -88.5 -78.5t-249.5 -77.5q-185 -45 -460 -138.5t-631 -283.5t-786 -524q-195 -154 -324 -322q-100 -128 -142 -243q-13 -36 -32 -124q-3 -14 -3 -28q0 -74 85 -143.5t285 -69.5q40 0 84 3q334 24 790.5 137t915 300t801.5 437q289 216 335 565
q2 18 2 36q0 86 -59.5 182t-226.5 129q-32 6 -57 39q-17 24 -17 49q0 129 374 176q187 20 367 20q195 0 467 -35t544 -133t409 -218q100 -90 100 -173q0 -24 -8 -47q-2 -5 -27.5 -61.5t-313.5 -122.5q-472 -100 -702 -100q-161 0 -161 45q0 29 74 68q64 33 210 48
q503 44 643 126q40 22 40 48q0 20 -25.5 54.5t-211.5 100.5l-149 53q-460 183 -760 183q-170 0 -347 -43q-59 -16 -59 -46q0 -21 16 -59q29 -63 44 -204l1 -47q0 -146 -48 -277q-34 -95 -141.5 -252.5t-380.5 -338.5t-606 -318q-595 -244 -1300 -387q-480 -97 -665 -97z" />
    <glyph glyph-name="quotesingle" unicode="'" horiz-adv-x="543" 
d="M777 2358q-24 0 -24 22q0 10 11 35q17 79 114 181q107 113 107 199q0 30 -9 64l-1 7q0 31 48 56.5t102 25.5q4 0 35 -0.5t46 -51.5q2 -8 2 -17q0 -54 -89 -187q-64 -95 -294 -312q-23 -22 -48 -22z" />
    <glyph glyph-name="parenleft" unicode="(" horiz-adv-x="1158" 
d="M225 -939q-6 0 -53.5 2t-146 66t-170.5 196q-81 146 -81 368q0 199 88 471q221 577 831 1441q133 189 148 228q28 71 225 284t442 437t418 327q98 52 168 52q17 0 64.5 -9t86 -64t38.5 -109q0 -83 -79 -83q-31 0 -56 33q-28 36 -65 36q-22 0 -65 -14.5t-143 -82.5
q-278 -193 -595 -551t-607.5 -785t-487.5 -827q-236 -483 -236 -771q0 -121 43 -221q67 -158 263 -274q91 -55 91 -85q0 -11 -8 -21q-35 -44 -113 -44z" />
    <glyph glyph-name="parenright" unicode=")" horiz-adv-x="1102" 
d="M-769 -1090q-8 0 -20 4q-8 3 -8 20l1 14q0 95 346 545q278 363 778 941q234 269 427.5 525t349 532.5t275.5 605.5q71 226 71 415q0 21 -5.5 133.5t-57.5 270t-104 266.5q-63 134 -63 179q0 13 3.5 23.5t18.5 28t97 17.5q57 -2 122.5 -101t111 -276t45.5 -411
q0 -5 -0.5 -128t-76.5 -409q-24 -89 -57 -180q-168 -465 -656 -1088q-265 -339 -569 -700q-231 -274 -470 -569t-474 -620q-2 -3 -20 -14q-41 -24 -65 -24z" />
    <glyph glyph-name="asterisk" unicode="*" horiz-adv-x="1343" 
d="M1151 2322q-8 0 -17 2q-32 13 -32 41q0 11 5 24q1 1 10 25t48 82q66 101 66 144q0 9 -2 17l3 9l-5 -4l-1 1v-2q-36 -32 -68 -62q-136 -131 -188 -131q-18 0 -32 10q-7 7 -7 17q0 22 48 75q62 67 278 232q49 37 74 58q30 25 30 42q0 33 -117 61q-50 12 -96 30
q-86 31 -86 88q0 61 63 74q31 6 64 6q44 0 144 -17q5 72 16 102q19 51 53 51q48 0 98 -73q19 -33 33 -33q8 0 22 14q18 19 60 119q28 68 60.5 118.5t81.5 50.5q66 -6 66 -56q0 -31 -40 -112q-23 -44 -23 -54q0 -9 9 -9q27 0 95 75q85 95 132 95q19 0 37 -12q16 -14 16 -36
q0 -82 -269 -299l-44 -39q29 -11 67 -11q47 0 122 13q58 10 98 10q12 0 41 -2q20 -2 20 -26q0 -12 -5 -29q-36 -99 -153 -99l-59 3q-64 0 -173 -19l-72 -11q-41 -8 -56 -50q-17 -47 -23 -126q-8 -90 -23 -132q-8 -22 -24 -46q-20 -31 -71 -34q-28 0 -28 37q0 13 3.5 31
t3.5 31q0 30 -22 30q-24 0 -47.5 -38t-47.5 -89q-22 -45 -45 -86q-47 -81 -91 -81z" />
    <glyph glyph-name="plus" unicode="+" horiz-adv-x="1459" 
d="M265 -203q-35 0 -35 45q0 105 187 445q110 189 110 264q0 46 -45.5 72.5t-155.5 40.5q-256 30 -256 107q0 45 71 84q20 11 26 11q229 -10 340 -33q65 -13 112 -13q25 0 62 7t92 86t156 264q114 305 290 385q36 16 56 16q24 0 24 -24q0 -55 -117 -226q-198 -291 -234 -390
q-10 -39 -10 -55q0 -50 54 -50q209 -15 315 -15q53 0 81 4q21 3 38 3q48 0 61 -22q7 -16 7 -30q0 -67 -189 -112q-72 -17 -165 -17q-39 0 -82 3q-31 2 -59 2q-103 0 -173.5 -30t-99.5 -79l-289 -531q-114 -212 -172 -212z" />
    <glyph glyph-name="comma" unicode="," horiz-adv-x="828" 
d="M-66 -442q-32 0 -32 25q0 10 5.5 25t244.5 241q62 52 103 119q16 39 16 51q0 23 -33.5 26.5t-64.5 7.5q-26 3 -45 15.5t-19 77.5v12q0 18 6.5 36.5t33.5 47.5q30 34 136 34q11 0 18 -1q192 -34 192 -147q0 -109 -165 -271q-169 -163 -366 -290q-13 -9 -30 -9z" />
    <glyph glyph-name="hyphen" unicode="-" horiz-adv-x="1864" 
d="M314 433q-17 0 -84 0.5t-87 18.5q-20 25 -20 53q0 27 18 56q32 54 363 54h65q127 -3 213 -3q133 0 195 8.5t224 17.5t163 10q185 -6 212 -106q2 -7 2 -14q0 -84 -304 -84l-461 3q-93 0 -245 -9q-147 -5 -254 -5z" />
    <glyph glyph-name="hyphen" unicode="&#xad;" horiz-adv-x="1864" 
d="M314 433q-17 0 -84 0.5t-87 18.5q-20 25 -20 53q0 27 18 56q32 54 363 54h65q127 -3 213 -3q133 0 195 8.5t224 17.5t163 10q185 -6 212 -106q2 -7 2 -14q0 -84 -304 -84l-461 3q-93 0 -245 -9q-147 -5 -254 -5z" />
    <glyph glyph-name="period" unicode="." horiz-adv-x="892" 
d="M146 15q-36 0 -52 36q-9 23 -9 48q0 31 13 66q7 19 36.5 74t113.5 100q34 16 66 16q9 0 16 -1q108 -22 140 -121q3 -11 3 -25l1 -15q-37 -42 -47 -50q-96 -76 -254 -124q-15 -4 -27 -4z" />
    <glyph glyph-name="slash" unicode="/" horiz-adv-x="1099" 
d="M-811 -1469q-140 0 -153 160l-1 18q0 73 43 189q12 33 58.5 142t247.5 394q227 318 551.5 710.5t675.5 805.5q307 359 586.5 695.5t487.5 614t299 459.5q34 63 82 87q23 11 42 11q20 0 44 -19q14 -11 14 -44q0 -24 -8 -60q-26 -174 -614 -873q-267 -317 -582 -682
q-723 -836 -1094 -1305q-513 -650 -626 -960q-6 -15 -35 -107q-7 -21 -7 -40q0 -64 76 -106q28 -17 28 -34l-1 -8q-14 -43 -114 -48z" />
    <glyph glyph-name="zero" unicode="0" horiz-adv-x="1815" 
d="M124 -421q18 0 89.5 12t237 126.5t343 281t338.5 342t277 318t158 209.5q207 338 290 568l43 119q37 107 37 231q0 12 -2 86.5t-52.5 133t-108.5 58.5q-2 0 -33 -1t-59 -48q-24 -43 -68 -116t-90 -142t-79 -101q-14 -15 -22 -15q-11 0 -11 30q0 31 46 169h4q1 5 5 16
q35 95 35 148q0 66 -54 66q-43 0 -143 -65q-123 -84 -309 -299t-385.5 -501.5t-363.5 -584.5q-131 -241 -208 -451q-18 -50 -65 -199q-21 -68 -21 -136q0 -80 30 -158q45 -97 141 -97zM58 -582q-81 0 -144 37q-94 62 -124 140q-22 58 -22 123q0 23 3 46q17 175 78 341
q174 476 551 1033q193 285 392 528q42 54 42 101q0 20 -6 42q-5 17 -5 32q0 16 5 31q11 31 77 69q205 118 361 247q73 63 130 90q43 21 107 21q21 0 79 -5q459 -44 519 -321q13 -59 13 -125q0 -158 -73 -357q-103 -282 -305.5 -594.5t-458.5 -603.5t-518 -510t-486 -314
q-120 -51 -215 -51z" />
    <glyph glyph-name="one" unicode="1" horiz-adv-x="1227" 
d="M-187 -1315q-43 0 -79 39q-39 53 -39 133q0 65 26 148l21 58q58 161 179 371t268 437q229 361 306 519q84 166 359 615q618 1011 705 1250q19 51 19 78q0 13 -5 21q-119 -84 -330.5 -256.5t-417 -349.5t-305.5 -275q-86 -81 -180 -81q-68 0 -68 39q0 49 112 119
q109 67 479 384q169 144 344 288q494 405 613 405q43 0 43 -48q0 -87 -155 -361q-323 -590 -622 -1114t-680 -1127q-79 -122 -253 -438q-177 -321 -241 -497q-35 -98 -35 -140t32 -42q10 0 22 4q28 8 45 8q28 0 28 -23q0 -35 -54 -94q-40 -43 -103 -64q-18 -6 -34 -6z" />
    <glyph glyph-name="two" unicode="2" horiz-adv-x="2387" 
d="M-825 -703q-27 0 -50 4q-67 18 -67 57q0 9 3.5 18t23 45t141.5 120.5t288.5 165.5t337.5 134q558 181 567 187q124 98 255 184q208 138 321 241.5t226 179.5q84 56 224.5 174t420.5 402q369 382 523 648q69 120 105.5 219t36.5 202q0 21 -5 93.5t-129 138.5
q-97 50 -231 50q-39 0 -153.5 -12t-314.5 -106q-93 -46 -207.5 -138.5t-204.5 -201t-110.5 -199t-71.5 -90.5q-29 0 -57 34q-20 25 -20 71q0 15 2 33q7 71 86 162q258 283 512 425q304 170 570 170q156 0 291.5 -65t189.5 -213q23 -63 23 -135q0 -98 -42 -214
q-235 -592 -1132 -1342q-227 -189 -414 -336q-156 -124 -257 -210t-123 -127q142 43 357 43q136 0 292.5 -18t298 -55.5t209.5 -85.5q41 -29 41 -59q0 -9 -3 -18q-14 -39 -70 -39q-55 0 -201 35q-323 84 -627 85q-441 0 -873 -226q-53 -28 -124 -68q-141 -80 -316 -170
q-372 -193 -542 -193z" />
    <glyph glyph-name="three" unicode="3" horiz-adv-x="2053" 
d="M-675 -1140q-24 0 -70 14q-51 16 -51 44q0 6 3 13q0 1 5 12.5t54.5 43t154.5 73.5q195 79 508 235.5t654.5 355.5t622 404t410.5 381q33 47 45 80q7 19 7 47q0 47 -124 84q-118 20 -241 20q-219 0 -584 -71q-259 -52 -401 -52q-140 0 -189 83q-8 16 -8 33q0 14 5 29
q12 31 65 83.5t203.5 143t357.5 204.5q287 156 635.5 367.5t704.5 489.5q164 131 192 207q4 12 8 56v3q0 42 -116 59q-49 7 -108 7q-237 0 -619 -96q-215 -54 -394 -120.5t-268 -129.5q-59 -43 -72.5 -75.5t-13.5 -50.5v-9q0 -18 -9 -37q-5 -9 -36 -24q-12 -5 -25 -5
q-24 0 -58.5 22t-47.5 78q-2 10 -2 20q0 23 9 48q11 29 49 82.5t193 136t448 162.5t761 146q85 12 161 12q84 0 189 -22t138 -116q6 -18 6 -38q0 -31 -13 -67q-25 -69 -129.5 -199t-473.5 -388q-570 -390 -1152 -709q-301 -165 -301 -193q0 -14 43 -14q15 0 84.5 6t407.5 64
q231 38 410 38q88 0 239.5 -18t227.5 -125q30 -43 30 -97q0 -41 -17 -87.5t-90 -162.5t-411 -361q-245 -176 -622 -412t-756 -436.5t-629 -271.5z" />
    <glyph glyph-name="four" unicode="4" horiz-adv-x="2053" 
d="M752 -1205q-41 0 -87.5 50.5t-46.5 179.5q0 132 105 369q205 425 416.5 755.5t360.5 536.5q142 198 164 258q-50 0 -175 -59.5t-302 -153.5q-204 -107 -431 -217t-431 -177q-159 -53 -275 -53q-32 0 -62 4q-150 29 -150 130q0 33 19 86q72 201 502 621q214 210 445 424
q475 439 650 645q-58 24 -58 71q0 16 6 34q9 23 58 93t240 229t428 339q187 144 365 286q95 73 146 73q7 0 14 -2q30 -8 30 -40q0 -18 -9 -43q-2 -6 -21 -50.5t-169 -167.5q-117 -97 -711 -670q-663 -640 -1158 -1155q-575 -599 -575 -695v-5q23 -52 102 -52q15 0 78 7
t224.5 71t351.5 156.5t383 190.5q230 118 422 209q257 121 348 121q51 0 51 -40q0 -77 -203 -321q-128 -152 -308.5 -412t-352 -560t-270.5 -571q-71 -196 -71 -338q0 -51 9 -95l1 -14q0 -48 -53 -48z" />
    <glyph glyph-name="five" unicode="5" horiz-adv-x="1871" 
d="M-472 -999q-76 3 -111 40t-35 73q0 42 36 58q10 4 20 4q31 0 78 -30q19 -12 53 -12q62 0 197.5 49.5t355 171t438.5 273.5t383 303q181 167 226 289q10 29 10 54q0 65 -72 103q-100 46 -217 91q-137 52 -270.5 114.5t-233 148.5t-136.5 208q-15 49 -15 107q0 85 33 189
q70 193 258 431.5t416 452.5t415 332q-39 4 -91 4q-176 0 -184 29q-4 19 -4 35q0 77 107 78q150 1 287.5 28t271.5 93q93 47 137 47q39 0 71 -15q56 -25 120 -25q53 0 108 9q408 71 677 71q30 0 108.5 -3t131.5 -40q21 -15 21 -38q0 -65 -145 -172q-101 -75 -137 -75
q-14 0 -14 11q0 26 69 111q18 23 18 40q0 47 -141 47q-107 0 -258 -21q-210 -30 -322 -57q-77 -18 -103 -53q-23 -28 -36 -66q-65 -35 -102 -35q-12 0 -22 4q-45 18 -45 58q0 11 4 24q-143 0 -311 -90q-315 -170 -662 -549q-152 -166 -261.5 -316t-154.5 -249
q-66 -145 -66 -260q0 -52 26 -132t154 -152t290 -129q146 -51 281 -119q166 -94 166 -229q0 -53 -23 -116q-41 -112 -174 -260.5t-366.5 -318.5t-484 -309.5t-458 -223.5t-312.5 -86z" />
    <glyph glyph-name="six" unicode="6" horiz-adv-x="1745" 
d="M18 -885q-112 0 -203 62t-135 172q-29 72 -29 146q0 38 8 77q51 232 131 451q36 100 125.5 304.5t279 515.5t424.5 650q93 137 207 318q105 168 207 321.5t183 244.5q70 82 178 236q101 144 152 206q175 233 293 369.5t336 342.5q34 31 84 45q24 7 45 7q25 0 52 -11.5
t27 -58.5v-14q-3 -59 -78 -174q-228 -360 -366 -556q-190 -271 -239 -271q-9 0 -14 7q-10 21 -10 46q0 26 11 57q28 78 154 240q66 87 132 186t115 209q-135 -116 -368.5 -403t-512 -678t-547.5 -820t-473 -828q-148 -289 -235 -528q-34 -92 -90 -286q-22 -78 -22 -147
q0 -103 50 -188q72 -104 195 -104q17 0 100.5 9.5t266.5 120.5t368 276t338 344q305 358 305 526q0 43 -19 77q-45 83 -228 83q-92 0 -211 -25t-208 -66q-114 -48 -245 -113q-258 -128 -300 -244q-22 -61 -69 -61q-42 0 -64 38q-9 14 -9 33q0 18 7.5 38.5t35.5 68.5t184 148
q359 218 653 297q171 46 302 46q92 0 211.5 -39t119.5 -214q0 -189 -239 -508q-260 -336 -593 -610q-394 -322 -726 -369q-24 -2 -47 -2z" />
    <glyph glyph-name="seven" unicode="7" horiz-adv-x="1894" 
d="M-157 -1325q-41 0 -87.5 23t-56.5 112q-1 10 -1 21q0 63 35 160q15 39 63 147.5t252 390.5q283 381 1271 1559q929 1107 1038 1279l-134 -38q-974 -292 -1356 -292q-45 0 -129 8t-115 77q-8 24 -8 42q0 78 130 78q32 0 62 -7q97 -19 209 -19q106 0 288 26q308 43 910 235
q382 121 469 121q48 0 48 -26q0 -37 -135 -190q-192 -213 -706.5 -827t-1028 -1241.5t-702.5 -880.5q-37 -51 -95 -148q-148 -249 -172 -413l-1 -19q0 -55 46 -77q36 -17 36 -35q0 -42 -93 -62q-19 -4 -37 -4z" />
    <glyph glyph-name="eight" unicode="8" horiz-adv-x="2012" 
d="M1274 738q81 83 309 388t453 636q255 376 304 510q26 70 26 123q0 158 -230 158q-49 0 -175.5 -17.5t-367.5 -111.5t-470 -228t-387 -283q-130 -122 -172 -237q-17 -47 -17 -91q0 -112 109 -136q55 -13 116 -16q67 -4 113.5 -18.5t47.5 -64.5v-4q0 -59 29.5 -103.5
t75.5 -89.5q54 -51 109.5 -128.5t92.5 -208.5q7 -21 34 -78zM289 -363q92 0 237 94q193 131 325.5 285.5t195.5 312.5q45 136 45 274q0 6 -0.5 80.5t-44 188.5t-119.5 168q-46 32 -100 32q-36 0 -106 -25t-187 -182q-219 -306 -324 -596q-83 -228 -83 -403q0 -163 96 -214
q29 -15 65 -15zM240 -488q-47 0 -131.5 20.5t-138.5 133.5q-29 60 -29 140q0 70 22 155l62 226q102 253 197 425q142 256 307 453q91 107 91 148q0 19 -12 43t-80 73q-155 121 -155 255q1 257 444 560q341 234 768 413q169 70 250 93q179 49 337 49q299 0 356 -184
q10 -31 10 -69q0 -71 -35 -167q-94 -239 -312 -547q-188 -266 -387 -520q-151 -194 -273 -361q-222 -306 -222 -428q0 -29 10 -50q14 -25 14 -41q0 -24 -54 -33q-95 -12 -140 -84q-164 -276 -344 -439q-293 -264 -555 -264z" />
    <glyph glyph-name="nine" unicode="9" horiz-adv-x="2297" 
d="M423 -1789q-18 0 -49 14t-55 82q-12 34 -12 84q0 51 12 117q21 130 124 344q188 386 470 865q528 900 1127 1782q37 51 37 67q0 6 -6 6q-31 0 -329 -235q-454 -356 -775 -562q-435 -279 -663 -279q-23 0 -45 3q-186 33 -186 179q0 60 31 145q46 126 187 327t407 471
t566.5 516t575.5 418q368 230 579 230q148 0 148 -125q0 -56 -29 -136q-27 -76 -85 -168t-123 -152q-43 -40 -67 -40t-24 41q0 47 75 171q76 116 76 168q0 61 -80 61q-73 0 -238 -78t-436.5 -271t-547 -434t-487.5 -479q-237 -267 -308 -462q-31 -86 -31 -141
q0 -103 106 -103q12 0 65 6t178 62t250 130q253 151 762 542q753 581 1099 940q69 68 133 68q37 0 52 -23q7 -10 7 -22q0 -25 -28 -59q-496 -568 -842.5 -1041.5t-646 -973t-656.5 -1145.5q-151 -264 -226 -468q-67 -189 -67 -268q0 -57 20 -111q5 -12 5 -23q0 -19 -19 -31
q-14 -9 -31 -9z" />
    <glyph glyph-name="colon" unicode=":" horiz-adv-x="945" 
d="M117 -276q-36 0 -52 36q-9 23 -9 48q0 31 13 66q7 19 36.5 74t113.5 100q34 16 66 16q9 0 16 -1q108 -22 140 -121q3 -11 3 -25l1 -15q-37 -42 -47 -50q-96 -76 -254 -124q-15 -4 -27 -4zM393 954q-36 0 -52 36q-9 23 -9 48q0 31 13 66q7 19 36.5 74t113.5 100
q34 16 66 16q9 0 16 -1q108 -22 140 -121q3 -11 3 -25l1 -15q-37 -42 -47 -50q-96 -76 -254 -124q-15 -4 -27 -4z" />
    <glyph glyph-name="semicolon" unicode=";" horiz-adv-x="1003" 
d="M-66 -638q-32 0 -32 25q0 10 5.5 25t244.5 241q62 52 103 119q16 39 16 51q0 23 -33.5 26.5t-64.5 7.5q-26 3 -45 15.5t-19 77.5v12q0 18 6.5 36.5t33.5 47.5q30 34 136 34q11 0 18 -1q192 -34 192 -147q0 -109 -165 -271q-169 -163 -366 -290q-13 -9 -30 -9zM546 1056
q-36 0 -52 36q-9 23 -9 48q0 31 13 66q7 19 36.5 74t113.5 100q34 16 66 16q9 0 16 -1q108 -22 140 -121q3 -11 3 -25l1 -15q-37 -42 -47 -50q-96 -76 -254 -124q-15 -4 -27 -4z" />
    <glyph glyph-name="semicolon" unicode="&#x37e;" horiz-adv-x="1003" 
d="M-66 -638q-32 0 -32 25q0 10 5.5 25t244.5 241q62 52 103 119q16 39 16 51q0 23 -33.5 26.5t-64.5 7.5q-26 3 -45 15.5t-19 77.5v12q0 18 6.5 36.5t33.5 47.5q30 34 136 34q11 0 18 -1q192 -34 192 -147q0 -109 -165 -271q-169 -163 -366 -290q-13 -9 -30 -9zM546 1056
q-36 0 -52 36q-9 23 -9 48q0 31 13 66q7 19 36.5 74t113.5 100q34 16 66 16q9 0 16 -1q108 -22 140 -121q3 -11 3 -25l1 -15q-37 -42 -47 -50q-96 -76 -254 -124q-15 -4 -27 -4z" />
    <glyph glyph-name="less" unicode="&#x3c;" horiz-adv-x="1420" 
d="M657 44q-35 0 -66 22q-67 51 -148 106q-120 81 -226.5 170t-145.5 186q-12 31 -12 62q0 67 56 140q85 134 471 289q264 106 680 237q129 41 215 70q31 10 55 10q28 0 55 -19q19 -14 19 -44q0 -16 -6 -38q-16 -44 -85 -96t-218 -91q-468 -116 -704 -198t-298 -145
q-33 -33 -33 -64t37.5 -73t144.5 -110q77 -50 156 -112.5t138 -142.5q24 -38 24 -69q0 -13 -4 -24q-2 -5 -15 -28t-63 -35q-14 -3 -27 -3z" />
    <glyph glyph-name="equal" unicode="=" horiz-adv-x="1587" 
d="M321 742q-18 0 -85 0.5t-86 18.5q-20 26 -20 54q0 23 17 55q33 54 364 54h65q127 -3 212 -3q134 0 195.5 8.5t224 17.5t162.5 10q186 -6 212 -106q3 -7 3 -14q0 -84 -304 -84l-461 3q-93 0 -245 -9q-147 -5 -254 -5zM155 184q-186 6 -212 107q-2 8 -2 15q0 83 309 83
l185 -1q189 -2 289 -2q89 0 226 8q147 5 254 5q18 0 85 -0.5t86 -18.5q20 -25 20 -53q0 -27 -18 -56q-32 -54 -363 -54h-65q-134 3 -222 3q-126 0 -186.5 -8.5t-223 -17.5t-162.5 -10z" />
    <glyph glyph-name="greater" unicode="&#x3e;" horiz-adv-x="1249" 
d="M-133 -159q-35 0 -35 47q0 184 797 634q82 47 268 149l-66 41q-228 135 -363 244q-183 146 -183 250q0 18 5 35q39 99 89 99q58 0 149 -135q111 -158 441 -340q108 -58 163 -105q38 -31 38 -66q0 -12 -4 -24q-2 -5 -17.5 -34.5t-157.5 -107.5q-178 -99 -273 -150
q-102 -55 -160 -89q-84 -48 -342 -228q-139 -96 -168 -117q-138 -103 -181 -103z" />
    <glyph glyph-name="question" unicode="?" horiz-adv-x="2702" 
d="M934 91q-111 0 -152 165q-9 37 -9 78q0 240 258 506q241 235 565 459t651 429q242 152 445 290q420 282 477 439q4 12 16 64l1 10q0 48 -115 110t-413 95q-285 46 -513 46q-77 0 -252 -13t-363 -81t-293 -153q-120 -96 -149 -177q-8 -22 -8 -37q0 -23 18 -32
q160 -87 160 -129q0 -30 -100 -30q-117 0 -188 58q-57 46 -57 126q0 48 16 92q89 243 541 438q203 80 480 94q94 4 188 4q181 0 404 -20.5t399 -54.5q126 -22 233.5 -74t157.5 -137q26 -44 26 -96q0 -46 -20 -99q-1 -5 -25.5 -66.5t-204.5 -216.5q-182 -153 -412 -310
t-476 -316q-270 -173 -519 -344.5t-435 -336.5q-316 -279 -316 -492q0 -65 28 -127q8 -17 21 -34q25 -34 25 -58q0 -22 -27 -46q-31 -23 -63 -23zM635 -677h-12q-53 0 -78 31q-13 15 -13 38q0 30 21 71q50 86 132 120q49 21 91 21q29 0 73 -17q37 -14 37 -80l-1 -25
q-46 -75 -116.5 -115.5t-133.5 -43.5z" />
    <glyph glyph-name="at" unicode="@" horiz-adv-x="2635" 
d="M1026 454q43 0 156 70q68 42 126 84q142 101 142 120q0 3 -4 3q-2 0 -16.5 -1.5t-102 -47.5t-182 -106.5t-143.5 -106.5q5 -15 24 -15zM359 -998q-24 0 -148 5.5t-269 143.5q-200 198 -200 484q0 120 35 255q57 218 173 450q172 303 415.5 614.5t537.5 591.5t614.5 487.5
t646.5 301.5q95 25 179 25q201 0 311 -124q65 -72 65 -160l-1 -18q-33 -342 -146 -652q-15 -42 -93 -236t-270 -472t-388.5 -459.5t-345.5 -237.5q-56 -21 -98 -21q-72 0 -116 79q-15 26 -15 75q0 97 60 282q4 11 4 19q0 14 -14 14q-31 0 -157 -77q-79 -47 -163 -89
q-102 -51 -167 -51q-56 0 -80 53q-6 20 -6 40q0 138 282 336q134 94 260.5 162t185.5 86.5t106 18.5q45 0 94.5 -24t69.5 -90q10 -31 10 -62q0 -35 -13 -70q-22 -59 -78 -85q-65 -29 -122 -112q-64 -93 -108 -222q-9 -25 -9 -52q0 -77 47 -77q24 0 84 26.5t234 200.5
q209 212 340 410.5t218.5 406t168.5 447.5q72 197 72 328q0 69 -20 119q-46 111 -244 111q-206 0 -473.5 -121.5t-571 -365t-573.5 -549.5t-465 -627q-144 -236 -223 -454q-28 -77 -77 -257q-17 -64 -17 -132q0 -122 56 -253q84 -176 257 -235q121 -41 263 -41
q63 0 205.5 17.5t361 100t392.5 190.5q34 20 83 40q138 54 270 150q71 53 144 105q269 189 414 323q35 30 52 30q16 0 16 -16q0 -86 -237 -287q-145 -124 -411 -285q-505 -306 -972 -445q-233 -69 -436 -69z" />
    <glyph glyph-name="Sterling_Heights" unicode="&#xe002;" horiz-adv-x="21130" 
d="M15756 -1262q24 0 154 157q361 440 457 729q-74 -36 -176.5 -160.5t-203 -279.5t-168.5 -282t-68 -157q0 -7 5 -7zM19457 -370q7 0 34 7q31 8 93 64.5t115 140.5q9 49 9 81q0 56 -32 56q-23 0 -65.5 -35.5t-94.5 -112.5q-30 -45 -54.5 -97t-24.5 -81q0 -23 20 -23z
M179 -966l1 3h-14zM180 -962q46 66 198 215q372 368 372 459q0 17 -9 28l-28 -28q-537 -503 -537 -651q0 -13 4 -23zM2535 1545q52 0 199 26q54 8 84 58q152 257 203.5 349t51.5 123q0 13 -10 13q-45 0 -287 -233q-285 -272 -285 -317q0 -19 34 -19h10zM3035 475q22 0 83 42
l84 62q23 33 23 46q0 8 -10 8q-19 0 -69.5 -35t-95.5 -77q-25 -24 -29 -34q2 -12 14 -12zM7703 154q41 12 136.5 75t201.5 144q230 174 230 204q0 7 -7 7q-37 0 -112 -37q-449 -222 -449 -393zM6789 -1664q128 48 482 460q272 315 439 541q-105 -42 -397 -326t-446 -502
q-79 -111 -79 -164zM10772 -1187q52 0 163 79.5t330 284.5q308 288 636 619t589 611t322 366q-205 -18 -643 -98q-176 -33 -330 -58q-158 -22 -245 -166q-867 -1315 -867 -1581q0 -57 45 -57zM13214 973q54 0 159 17q42 14 83 14q42 0 66 -3q17 -2 30 -2q33 0 62 22
q36 27 88 101q88 111 262 380q92 142 200 296q116 165 227 334q233 365 250 365q1 0 1 2l-3 1q-25 0 -211.5 -172.5t-436 -419.5t-480.5 -489q-351 -370 -351 -419q0 -27 54 -27zM14375 503q65 6 210 90q135 76 135 120q0 14 -21 14q-46 0 -213 -126q-75 -59 -111 -98z
M16281 222q7 0 50 29q75 47 161 108q92 66 92 82q0 8 -20 8q-28 0 -75 -30.5t-95 -71.5t-81.5 -77t-33.5 -46q0 -2 2 -2zM18039 -2284q-25 0 -51 48q-20 37 -20 131l5 107q4 83 81 299q295 793 545 1350q113 254 113 290q0 14 -10 14q-21 0 -132 -86q-88 -68 -233 -172
q-211 -149 -338 -149q-59 0 -102.5 36.5t-70.5 118.5t-34 216q-3 50 -22 50q-18 0 -56 -38q-156 -151 -210 -200q-152 -139 -236 -139q-28 0 -65 23.5t-52 153.5q0 90 64 267q44 139 195 460q150 317 210 405q21 32 21 39l-1 1q-11 0 -99 -74q-332 -278 -510 -473
t-270.5 -352t-165.5 -323q-241 -536 -614 -967q-132 -153 -243 -228q-101 -66 -164 -66q-15 0 -55 12q-33 9 -33 79q0 55 22 115q58 162 463 713q194 266 440 507q193 188 237 411q-5 2 -12 2q-43 0 -181.5 -115t-228.5 -159q-54 -27 -102 -27q-56 0 -97 54q-11 11 -31 19
l-20 10l-614 -337q-95 -44 -159 -44q-19 0 -63 12t-71 68t-27 126q0 73 23 139q12 33 161 284q-118 -72 -290 -165q-96 -39 -224 -106q-119 -61 -253.5 -121.5t-271.5 -97.5q-67 -17 -125 -17q-173 0 -209 107q-5 15 -5 37q0 55 35 152q11 29 56 137t394 443q69 66 130 116
t118.5 78t115.5 28q54 0 119 -28t91 -84q7 -15 7 -33q0 -17 -8 -38t-38 -64.5t-132.5 -106.5t-231.5 -133q-122 -67 -228 -131q-215 -134 -215 -247q0 -31 17 -49.5t63 -18.5q105 0 348 100q237 99 479.5 227t381.5 223q163 270 198 313q42 43 87 43q8 0 40 -5q23 -4 23 -59
q0 -65 -22 -122q-52 -145 -215 -369q-256 -350 -256 -445q0 -40 48 -40l57 6q47 5 293 155q183 113 291.5 183t164 110.5t81 64t41.5 42.5t41 44t76 66.5t144 108.5q82 58 125.5 74.5t74.5 16.5q27 0 50 -8q42 -13 82 -13q37 0 93 12q27 6 47 6q60 0 60 -64q0 -45 -26 -125
q-14 -40 -14 -55q0 -9 5 -9q12 0 75 62q188 182 389 360q209 186 398 371.5t324 376.5q446 663 661 764q49 23 83 23q27 0 53 -23.5t26 -77.5q0 -139 -595 -716q-127 -118 -229 -245t-245.5 -368.5t-393.5 -701.5q-69 -131 -109.5 -256.5t-40.5 -192.5q0 -62 23 -62t68 43
l96 103q355 393 456 454q44 22 71 22q46 0 46 -66q0 -72 -56 -258q-58 -193 -58 -274q0 -96 64 -96q22 0 81 17.5t238 155t474 410.5q50 48 127.5 159.5t155.5 243.5q138 233 138 304q0 24 -17 28q-60 0 -235 14q-322 24 -416 96q-26 19 -26 44q0 33 32.5 61t88.5 28
q70 0 224 -36q198 -46 306 -46q52 0 121.5 13t122.5 86l50 74q521 790 671 796q94 -5 94 -79q0 -133 -207 -422q-84 -113 -129 -165q-165 -199 -165 -236q0 -31 85 -31l185 3q206 6 496 34q328 30 437 30q71 0 92 -11q19 -16 19 -31q0 -33 -103 -61.5t-272.5 -51
t-374.5 -38.5q-382 -31 -556 -31q-86 0 -152 -33t-120 -102.5t-112 -164.5q-119 -187 -239 -330q-111 -152 -360 -706.5t-457 -1117.5l-106 -298q-81 -230 -115 -450q-21 -148 -82 -148zM19378 -537q-37 0 -99 24q-52 20 -52 110q0 17 2 37q11 121 171 310q111 120 155 159
t50 58q4 12 4 32q0 23 -3 58q-3 45 -6 134q0 82 63.5 193.5t176.5 232.5q106 115 220 192t205 77q84 0 120 -97q5 -18 5 -34q0 -37 -30.5 -77t-110.5 -108q-29 -25 -42 -25q-18 0 -18 47q0 57 -27 57q-12 0 -32 -10q-119 -71 -191.5 -164.5t-117.5 -194.5q-10 -52 -10 -82
q0 -48 30 -48q32 0 170 89q128 90 338.5 196.5t519.5 171.5q74 13 126 13q136 0 136 -86q0 -39 -34 -89q-12 -17 -31 -31t-37 -14q-22 0 -31 30q-13 49 -64 49q-19 0 -44 -6q-537 -119 -956 -461q-52 -44 -66 -82q-6 -16 -6 -45q0 -22 13 -52q22 -63 22 -116q0 -49 -36 -109
q-73 -119 -208 -223q-149 -116 -275 -116zM1011 -2297q-30 0 -61.5 59.5t-31.5 134.5q0 102 59 264q11 31 47 118q69 161 679 1271q758 1381 966 1817q-184 0 -296.5 -28t-201.5 -94q-120 -92 -297 -282q-73 -76 -161 -165q-168 -166 -330 -337q-372 -389 -372 -506l2 -29
q0 -92 -86.5 -237t-225 -309t-300.5 -321.5t-318 -280.5t-276 -183q-66 -32 -108 -32q-61 0 -61 57q0 77 147.5 265t506.5 560q156 161 269.5 287t140.5 186q-26 28 -151 66q-108 33 -237 88t-225 147q-102 98 -109 257q0 135 116 324q85 140 413 610q443 632 813 1073
q526 627 735 627q95 0 119 -146l2 -44q0 -57 -12 -148q-48 -321 -176 -568q-49 -94 -123 -131q-59 8 -88 31.5t-29 53.5q0 29 30 62q93 99 154 249t61 254q0 113 -64 113q-23 0 -81 -25q-165 -85 -909 -1065q-412 -541 -628 -891q-57 -96 -84.5 -176t-27.5 -165l1 -53
q3 -52 76 -124t196 -121q127 -46 241 -76q55 -15 105 -30l4 -1q60 0 284 221t588 622q168 185 263 285q15 17 15 28q0 39 -170 39q-75 0 -226 -7q-106 -7 -181 -7l-46 1q-30 3 -30 22q0 5 9 30q7 19 61.5 53t149.5 52q204 26 336 40q191 19 286 40.5t166 79.5t190 188
q107 116 306 314q63 61 184 185q100 102 224 226q346 344 413 344q43 -17 43 -68q0 -55 -46.5 -148.5t-125.5 -215t-178 -262.5q-304 -435 -304 -529q0 -44 54 -44q73 5 318 53q356 70 468 70q79 0 79 -34q0 -79 -315 -137q-152 -29 -304 -53q-159 -26 -280 -49
q-127 -26 -166 -59q-94 -121 -478.5 -826.5t-845.5 -1588.5q-341 -653 -374 -744q-29 -79 -71 -261q-32 -132 -52 -193q-26 -73 -57 -73zM4114 -1554q-38 0 -65.5 36.5t-27.5 110.5q0 145 133 443t440 825q95 163 176 310q-135 -92 -293.5 -178t-291.5 -126q-48 -11 -88 -11
q-74 0 -122.5 49.5t-48.5 143.5q0 151 93 304q248 388 353 558t105 202q0 27 -34 27q-22 0 -47 -17t-34 -58q-48 -277 -522 -597q-395 -266 -767 -418q-127 -51 -207 -51q-153 0 -153 165q0 84 36 183q12 34 52 120t140 197q62 69 137.5 114.5t145.5 45.5q42 0 85.5 -18.5
t73 -54.5t29.5 -88q0 -60 -39 -128.5t-120 -123.5q-86 -52 -203 -92q-53 -15 -89 -36t-50 -60q-6 -16 -6 -28q0 -33 44 -33q15 0 70.5 10.5t194 73.5t313.5 162q242 137 391 254.5t216 221.5t67 203q0 45 -13 91q-9 29 -9 50q0 48 58 65q107 39 239 42q203 0 203 -127
q0 -23 -7 -50q-26 -71 -192 -322q-110 -166 -196.5 -309t-137.5 -257.5t-51 -196.5q0 -63 85 -63q80 0 257 85q85 44 182 96q138 76 230 120l374 650q378 656 625 1010q451 708 567 752q17 5 31 5q58 0 58 -54q-1 -69 -66 -176t-221 -291q-557 -665 -1346 -2115
q-534 -978 -613 -1196q-50 -135 -50 -190q0 -37 23 -37q37 0 108 92q67 87 97 87q24 0 24 -25q0 -31 -48 -119q-34 -64 -110.5 -143.5t-158.5 -109.5q-15 -5 -29 -5zM6003 1089q-63 0 -95 45q-11 16 -11 42q0 32 17 80q76 213 207 213q28 0 57 -9q103 -30 103 -103
q0 -80 -113 -193q-83 -75 -165 -75zM6586 -1978q-40 0 -61 30t-21 75q0 183 356 579q256 282 539 544.5t479 420.5q172 144 265 291q98 160 171 318q43 90 96 191q-10 7 -25 7q-63 0 -285 -199q-93 -82 -190 -159q-187 -149 -299 -149q-26 0 -73 15q-41 12 -76 101
q-192 -145 -326 -145q-218 0 -220 231.5t-43 231.5q-38 0 -88 -31q-77 -48 -228 -184q-248 -231 -343 -231q-34 0 -62.5 30t-28.5 91q0 71 42 174q-179 -179 -339 -326.5t-269 -210.5q-94 -47 -150 -47q-18 0 -53.5 12.5t-70.5 91.5q-17 38 -17 81q0 47 19 101
q35 103 103.5 270t121.5 275q44 90 153 200q44 39 80 39q58 0 58 -53q0 -61 -49 -129q-83 -108 -156 -239t-108 -225q-20 -56 -20 -113q0 -123 61 -123q25 0 91 35q103 56 714 668q118 167 210 205q31 6 52 6q56 0 56 -41q0 -46 -123 -227q-68 -101 -121 -194t-53 -113
q0 -5 3 -5q13 0 85 76q104 108 221.5 202.5t226 155t180.5 60.5q89 0 89 -108q0 -23 -4 -51q-17 -105 -17 -181q0 -189 106 -189q75 0 207 95q35 132 255 270q134 84 291.5 153.5t293.5 123.5q217 86 249 115q44 40 81 40q93 0 93 -150q0 -29 -4 -65q-13 -139 -148 -350
q-158 -240 -158 -278q0 -11 9 -11q28 0 243 160q419 314 821 545q264 152 487.5 251t328.5 99q53 0 53 -29q0 -31 -57 -92q-203 -179 -346 -193q-107 -10 -191 -35.5t-180 -77.5q-209 -108 -500.5 -296.5t-575 -419.5t-467.5 -468q-26 -36 -133 -176q-367 -481 -691.5 -839
t-525.5 -476q-55 -31 -94 -31zM12015 -2789q-28 0 -75 52q-57 62 -57 208q0 247 130 607q162 436 612 1232q312 552 573 992q286 486 307 543q-49 10 -159 10q-112 0 -243 -20.5t-197 -72.5q-206 -205 -539 -565q-279 -302 -582.5 -618t-569.5 -558.5t-434 -322.5
q-65 -26 -113 -26q-70 0 -102 45.5t-32 116.5q0 94 52 200q139 270 343.5 592t397.5 611q93 141 169 258q-11 14 -49 14q-62 0 -176 -26.5t-250 -62.5q-166 -43 -328 -79.5t-269 -36.5q-116 0 -116 61q0 50 85.5 91.5t214.5 68.5q113 25 209 25q63 0 111 -13
q21 0 121.5 13.5t240.5 46.5q323 77 412 205q1173 1846 1360 1938q45 22 87 22q41 0 68 -24.5t27 -73.5q0 -65 -52 -173q-172 -347 -331.5 -589t-276.5 -360q-65 -66 -83 -66q-6 0 -6 7q0 6 4 16l24 37q523 783 523 947q0 33 -15 33q-50 0 -352.5 -432.5t-768.5 -1166.5
q-6 -7 -9.5 -13.5t-5.5 -8.5q-3 -7 -5 -7q-4 -9 -8 -13.5t-6 -10.5q-1 -1 -1.5 -2t-2 -2.5t-3 -4.5t-3.5 -5q-5 -5 -9 -16q-1 -3 -4 -5.5t-22 -35.5q-4 0 -4 -9q0 -24 60 -24q97 0 254 28t322 62q182 36 305 56q129 18 259 97q150 123 1115 1110q951 972 1067 1108
q106 131 198 195t135 64q29 0 29 -23q0 -67 -179 -246q-242 -255 -605.5 -744t-655 -927.5t-317.5 -541.5q93 -37 132 -57q78 -41 78 -102q0 -87 -167 -226q-59 -48 -78 -48q-12 0 -12 15q0 8 4.5 22.5t20 48t47.5 95.5q7 18 7 34q0 22 -18.5 46t-60.5 24q-70 0 -125 -86
q-402 -632 -748 -1240q-832 -1466 -832 -2087q0 -37 3 -69q2 -26 2 -47q0 -54 -14.5 -81.5t-37.5 -28.5zM15870 1222q-39 0 -69 24q-53 49 -53 99q0 16 6 33q0 41 93 148q85 102 118 184q18 33 67 52.5t96 19.5q155 -10 155 -118q0 -35 -17 -81q-35 -101 -124 -195
q-62 -65 -136.5 -115.5t-135.5 -50.5z" />
    <glyph glyph-name="A" unicode="A" horiz-adv-x="3025" 
d="M1747 1020q150 26 277 44q211 27 350 67t197 140q34 61 116 199q238 402 357.5 622.5t119.5 268.5q-125 -107 -443 -397.5t-615.5 -574t-358.5 -369.5zM1438 -1628q-62 0 -103 48q-46 56 -46 159q0 225 226 692q143 295 420 797q291 524 429 817q6 20 6 26q0 44 -102 44
q-162 0 -524 -100q-125 -35 -160 -47q-105 -39 -310.5 -222t-454.5 -425q-389 -376 -600 -555q-307 -261 -429 -261q-34 0 -54.5 22.5t-20.5 41.5q0 28 47 61q35 24 97 59q88 50 225 141q234 156 922 790q219 203 219 247q0 17 -26 17q-38 0 -117 -23.5t-194 -60.5
q-442 -146 -833 -230q-55 -11 -98 -11q-83 0 -118 33q-26 23 -26 50q0 48 76 86q58 29 163 31q136 4 332.5 50.5t407.5 105.5q377 103 541 129q160 36 933 756q561 524 1173 1134q3 1 5.5 4.5t8.5 8.5t8 7.5t3 3.5q5 4 14 14q0 1 13 13q0 1 2 2.5t3.5 3t5 4.5t6 6.5t5.5 5.5
t4 4.5t10.5 10.5t21.5 22q4 4 6 4q1 2 10 11q1 0 7.5 6.5t17.5 18.5q2 1 3 3q11 12 15.5 15t39.5 40q1 0 1 1q53 73 114 122.5t95 49.5q24 0 24 -27q0 -90 -207 -377q-173 -241 -375 -558t-364 -599q-213 -369 -213 -434v-4q18 -7 115 -11q173 -8 284 -28q134 -25 134 -78
q0 -24 -25 -52q-12 -11 -43 -11q-50 0 -138 17q-152 27 -243 27q-177 0 -236 -99q-178 -310 -443 -816q-422 -801 -576 -1226q-77 -211 -77 -306q0 -78 52 -78q18 0 43 10q33 13 50 13q21 0 21 -14q0 -23 -40 -60q-77 -72 -163 -72z" />
    <glyph glyph-name="B" unicode="B" horiz-adv-x="2561" 
d="M706 1351q83 0 254.5 126.5t381 326.5t416.5 434q471 531 612 863q19 51 19 93q0 19 -7.5 55.5t-43.5 74.5t-85 57.5t-98 19.5t-89 -20.5t-55 -60.5q-40 -110 -185 -333q-220 -340 -709 -1020q-171 -238 -290 -408t-132 -207zM-88 593q544 647 1025.5 1326.5
t882.5 1417.5q-332 -132 -745 -703q-289 -400 -639 -1000l-155 -259q-379 -602 -379 -749q0 -22 10 -33zM-285 -974q-226 0 -319 158q-21 37 -21 84t21 105q34 93 106.5 190t154.5 179.5t150.5 134t94.5 51.5q12 0 12 -12q0 -23 -49 -87q-266 -351 -266 -513
q0 -124 164 -124q31 0 69 5q269 38 580.5 201.5t627 398t593.5 483t478 457.5q88 92 181 224t142 264q32 89 32 167q0 18 -5.5 73t-89 111.5t-265.5 56.5q-44 0 -93 -4q-499 -41 -869 -237q-156 -82 -274 -159q-89 -57 -167 -99t-152 -56q-129 -27 -386 -354
q-112 -144 -226 -297q-152 -209 -279 -361q-139 -166 -212 -166q-48 0 -48 43q0 20 11 50q39 107 168 268l8 13q207 446 975 1762q287 494 417 708q186 298 398.5 485t422 273t379.5 86q209 0 320 -116q73 -77 73 -192q0 -75 -35 -174q-114 -313 -507 -758
q-267 -302 -682 -693q332 69 489 96q196 34 371 34q441 0 441 -288q0 -93 -45 -218q-82 -226 -305 -504q-188 -236 -444.5 -481t-546.5 -471t-582 -405.5t-554.5 -285.5t-456.5 -106z" />
    <glyph glyph-name="C" unicode="C" horiz-adv-x="1912" 
d="M177 -486q-5 0 -117 1.5t-199 168.5q-44 83 -44 203q0 123 46 286q80 308 399 793q484 722 861.5 1163t645.5 643q273 206 428 206q144 0 178 -147q10 -44 10 -96q0 -147 -79 -366q-88 -242 -286 -555t-534 -670q-513 -542 -631 -542q-31 0 -31 37q0 32 31 112
q271 179 516 437.5t439 538.5q267 387 376 686q56 153 56 244q0 131 -117 131q-141 -12 -347.5 -169.5t-442 -415t-467.5 -569.5t-425 -632q-246 -408 -363 -730q-74 -203 -84 -357v-16q0 -183 130 -217q44 -12 97 -12q110 0 294.5 63t437.5 199q431 232 856 531
q148 104 162 117q7 7 30 7q41 0 41 -26q0 -18 -25 -55q-46 -64 -239 -194q-256 -173 -1087 -636q-299 -162 -516 -162z" />
    <glyph glyph-name="D" unicode="D" horiz-adv-x="2800" 
d="M-122 -1129q-93 0 -142 40q-60 47 -60 136q0 139 140 298q84 95 209 163q12 6 19 6q9 0 9 -9q0 -27 -65 -132q-76 -139 -98 -200q-18 -48 -18 -79q0 -60 64 -60q36 0 97 21q153 53 378 186q471 278 1060 772q628 527 1108 1088q541 632 725 1137q82 224 82 374
q0 148 -85.5 270t-276 191.5t-435.5 69.5q-390 0 -807 -159q-445 -169 -787 -482q-380 -347 -550 -813q-29 -80 -51 -164q-56 -199 -126 -428q-76 -241 -141.5 -480.5t-94.5 -439.5q42 36 177.5 227t303.5 449.5t309 497.5t185 358q-22 -35 -67.5 -87.5t-93 -95.5t-66.5 -43
q-6 0 -6 9q0 27 51 119l76 138q254 467 406 685q160 233 239 233q40 0 60 -68q2 -10 2 -21q0 -53 -35 -147q-71 -195 -259 -522q-282 -491 -900 -1444q-495 -761 -604 -973q-23 -43 -57 -65t-63 -22q-32 0 -48 26q-7 11 -7 29q0 45 47 121q156 254 259 680q47 198 93 412
q51 239 111 486q182 748 520 1184q255 321 586.5 538.5t686.5 328.5t671 111q198 0 368 -44q354 -94 491 -361q70 -138 70 -324q0 -183 -83 -410q-237 -652 -1115 -1532q-1135 -1132 -1851 -1550q-390 -229 -611 -229z" />
    <glyph glyph-name="E" unicode="E" horiz-adv-x="2802" 
d="M-27 -859q-52 0 -96 7q-104 19 -139 94q-18 38 -18 81q0 42 17 89q33 92 126 175q159 136 374 279q322 214 861 521q364 208 404 248q-7 9 -28 9q-43 0 -224 -51q-92 -27 -205 -55q-277 -70 -481 -70q-341 0 -437 183q-36 65 -36 143q0 178 170 384q186 227 1016 748
q963 605 1643 724q44 7 81 7q131 0 186 -74q30 -41 30 -97q0 -45 -20 -99q-56 -155 -260 -330q-106 -92 -340 -241q-995 -654 -1105 -654q-12 0 -12 9q0 13 29 46q80 86 575 401q163 104 496 311q64 56 134 115q74 61 143 122q191 170 191 248q0 49 -70 69q-30 9 -72 9
q-225 0 -715 -209q-477 -204 -953 -498q-505 -313 -770 -592q-201 -213 -201 -372v-13q17 -197 312 -197q118 0 262.5 26t296.5 64.5t297 79.5q168 47 305 80.5t216 33.5q68 0 83 -33q2 -4 2 -9q0 -46 -128 -133q-168 -115 -649 -376q-274 -148 -550 -307
q-641 -368 -793 -599q-31 -48 -31 -81q0 -64 120 -64q109 0 292 47q497 128 1431 514q46 19 93 40q384 187 479 187q24 0 24 -16q0 -35 -150 -164q-66 -54 -140.5 -84.5t-154.5 -53.5q-70 -20 -140 -47q-128 -51 -291 -118q-463 -194 -774 -301q-454 -156 -706 -156z" />
    <glyph glyph-name="F" unicode="F" horiz-adv-x="2342" 
d="M-634 -1090q-33 0 -41 54l-1 19q0 135 172 434q150 260 451 701q133 196 234 353q139 217 139 278v5q-44 0 -135 -31t-204 -74q-91 -34 -181.5 -66t-169 -53t-130.5 -21q-40 0 -60 15q-35 30 -35 55q0 33 61 60q73 33 289 85q141 33 292 78q352 105 460 278
q373 631 520 905q110 205 163 350q-9 2 -21 2q-48 0 -136 -25q-127 -37 -382 -132q-125 -47 -186 -66q-135 -41 -160 -109q-8 -24 -8 -45v-5q0 -19 -5 -33q-10 -27 -60 -27q-23 0 -57 5q-20 3 -44 3q-76 0 -175.5 -15.5t-171.5 -15.5q-94 0 -94 44q0 12 10 32
q52 79 1025 380q319 99 431 132q154 50 235 178q33 54 58 106q20 40 40 72q41 70 105 70l21 -2q37 -7 38 -35v-8q0 -26 -11 -58q-10 -26 -21 -51q-30 -70 -30 -98q0 -2 1 -14t32 -12q12 0 29 4q859 188 1276 188q381 0 381 -154q0 -24 -9 -50q-28 -76 -116.5 -163.5
t-208.5 -172.5t-246.5 -155t-234.5 -112.5t-170 -42.5q-36 2 -36 13q1 17 69 56q61 35 151.5 82.5t191.5 103.5q406 227 453 390q-102 69 -276 69q-52 0 -105 -5q-485 -35 -770.5 -82t-443.5 -134.5t-264 -244.5t-235 -414q-169 -330 -238 -438q-142 -221 -142 -284
q0 -32 32 -32q14 0 34 6q106 32 841 195q711 157 854 176q42 5 70 5q69 0 69 -25q0 -23 -50 -58q-41 -29 -86 -50.5t-71 -27.5q-5 1 -14 1q-82 0 -447.5 -73.5t-742.5 -162t-541 -145.5q-65 -28 -176 -185t-235 -369.5t-226.5 -407.5t-150.5 -300q-144 -322 -277 -510.5
t-197 -188.5z" />
    <glyph glyph-name="G" unicode="G" horiz-adv-x="3548" 
d="M1955 -1233q-114 0 -154 114q-16 44 -16 102q0 118 64 293q158 433 690 1139q26 34 54 68q101 118 148 223q-130 -75 -300 -178q-201 -121 -439.5 -260.5t-492.5 -275.5t-504.5 -248.5t-476 -181t-402.5 -68.5q-297 0 -390 217q-44 107 -44 233q0 152 65 332
q91 249 289 524q379 528 1053 1099q627 533 1287.5 930t1051.5 476q135 27 239 27q175 0 262 -69q95 -77 95 -227q0 -112 -52 -255q-114 -312 -441 -723q-129 -163 -199 -262q-54 -78 -87 -117t-58 -39q-21 0 -44 30q-12 18 -12 43q0 79 119 239q81 108 183 234
q218 271 310 415q124 195 124 324q0 7 -1 43t-43.5 86t-133.5 80q-63 20 -143 20q-193 0 -465 -104q-543 -209 -1234 -705.5t-1229 -1054.5q-579 -603 -737 -1035q-52 -144 -52 -259q0 -94 34 -169q78 -172 325 -172q412 0 1302 472q368 196 906 515q155 92 278 163
q287 166 287 226q0 34 -88 34q-97 0 -250 -32.5t-274.5 -68t-138.5 -49.5q-37 -42 -124 -42q-51 0 -100 15t-77 41q-21 18 -21 39q0 74 213 134q221 63 662 99q194 19 411.5 55.5t357 57.5t292.5 21q152 0 152 -43q0 -51 -215 -97q-82 -18 -279 -65t-347 -209
q-362 -405 -607 -728q-568 -745 -568 -1153q0 -29 3 -55q9 -65 88 -65q31 0 57.5 4.5t42.5 4.5q24 0 24 -14q0 -10 -18 -35q-39 -52 -96.5 -82.5t-115.5 -30.5z" />
    <glyph glyph-name="H" unicode="H" horiz-adv-x="3237" 
d="M2277 966q54 0 160 17q42 14 83 14q38 0 62 -3q19 -2 34 -2q33 0 60 20t76 84.5t141 194.5q45 65 135 204.5t208 306.5t219.5 324.5t171.5 261t79 103.5q1 0 1 1.5t-3 1.5q-25 0 -216.5 -177t-442 -425t-470.5 -480q-352 -370 -352 -419q0 -27 54 -27zM-167 -1197
q31 0 85 28q119 67 408.5 336.5t627 610.5t599 621t322.5 367q-205 -18 -644 -99q-176 -33 -330 -58q-158 -22 -245 -166q-693 -1051 -835 -1442q-33 -91 -33 -141q0 -57 45 -57zM1077 -2800q-28 0 -75 52q-57 62 -57 208q0 247 130 608q162 436 613 1233q312 553 573 993
q287 487 308 544q-49 10 -159 10q-82 0 -160.5 -8.5t-159 -28.5t-121.5 -56q-187 -183 -542 -568q-280 -301 -586.5 -621t-573.5 -563.5t-425 -314.5q-65 -26 -113 -26q-68 0 -101.5 44.5t-33.5 117.5q0 95 53 201q127 252 355 609.5t436 670.5q66 99 120 182q-11 14 -50 14
q-62 0 -177.5 -26.5t-254.5 -62.5q-166 -44 -327.5 -80t-264.5 -36q-116 0 -116 61q0 53 103 99q85 37 198 61.5t209 24.5q63 0 111 -13q22 0 125.5 14t236.5 46q324 77 413 206l60 94q1120 1758 1301 1846q45 22 87 22q36 0 63 -20q32 -25 32 -78q0 -65 -52 -174
q-121 -247 -236 -436q-214 -352 -372 -514q-65 -66 -83 -66q-6 0 -6 7q0 6 4 16q0 2 24 37q523 784 523 948q0 33 -15 33q-71 0 -644 -863q-221 -332 -478 -737q-3 -3 -5 -7q-6 -12 -10 -15q-3 -7 -5 -7l-2 -5q-10 -11 -12 -19q-1 -2 -3 -3v-2q-2 -1 -3 -4h-1
q-1 -4 -1.5 -4.5l-2.5 -2.5t-4.5 -6.5t-3.5 -7.5t-4.5 -6t-4.5 -6t-17 -29q-1 0 -2.5 -2.5t-1.5 -6.5q0 -24 60 -24q94 0 252.5 28t324.5 62q182 36 305 56q62 9 132 34t127 63q64 49 390 375q658 658 1450 1481q310 322 345 364q99 126 193.5 193t139.5 67q29 0 29 -24
q0 -67 -179 -246q-210 -214 -560.5 -682.5t-658.5 -926.5q-350 -519 -361 -606q93 -37 132 -57q78 -41 78 -102q0 -87 -167 -227q-59 -48 -78 -48q-12 0 -12 15q0 13 10.5 40.5t61.5 126.5q7 18 7 34q0 22 -19 46t-60 24q-70 0 -125 -86q-403 -633 -749 -1242
q-833 -1467 -833 -2089q0 -40 3 -76q2 -22 2 -40q0 -43 -10 -70q-14 -39 -42 -40z" />
    <glyph glyph-name="I" unicode="I" horiz-adv-x="1466" 
d="M-1202 -1203q-71 0 -71 49q0 46 90 99q152 89 361 143q93 24 147 24q75 0 207 38t263 81q85 28 155 48t101 41.5t42 52t15 74.5q14 115 50 214q30 81 88 190q104 187 446 758q940 1568 1199 1927q20 28 20 45q0 26 -47 26q-204 0 -1018 -339q-403 -169 -496 -219
q-327 -183 -435 -373q-14 -21 -23 -32t-19 -11t-26 12q-90 70 -90 109q0 56 141 144q405 257 901.5 463t995.5 337t913 164q244 -15 276 -108q7 -20 7 -41t-8 -43q-13 -38 -41.5 -71.5t-57.5 -54t-45 -20.5q-11 0 -11 12q0 19 29 62q36 54 36 90q0 70 -153 70
q-95 0 -261 -24q-83 -11 -156 -18q-108 -13 -164.5 -70t-91.5 -120l-25 -39q-87 -129 -355 -551q-697 -1101 -898 -1435q-301 -503 -419 -827q-58 -158 -58 -217q0 -45 63 -45q58 0 273 49q276 60 306 63q30 0 30 -25t-47 -49q-21 -9 -302 -104q-302 -102 -313 -104
q-217 -25 -470 -106t-490 -170q-189 -71 -337 -120t-227 -49z" />
    <glyph glyph-name="J" unicode="J" horiz-adv-x="2760" 
d="M-1613 -2960q136 0 495.5 252.5t847 696t1025 1028.5t1045.5 1262q26 28 26 51q0 14 -9 30q-997 -631 -1881 -1355q-1102 -905 -1526 -1651q-92 -168 -92 -246q0 -68 69 -68zM-1659 -3120q-76 0 -128.5 40t-65.5 120q-3 19 -3 41q0 153 157 394q335 498 775 939
q761 763 1806 1473q427 290 739 488q206 132 333.5 218.5t154.5 124.5q201 305 334 556q309 583 309 937q0 174 -76 290q-145 221 -527 221q-208 0 -449 -61.5t-479 -164.5t-444.5 -232t-350 -266.5t-190.5 -265.5q-19 -53 -19 -100q0 -63 34 -116q21 -35 21 -59
q0 -9 -3 -17q-15 -40 -79 -40q-36 0 -75 17t-68 53q-40 47 -40 116q0 209 368 528q250 213 565.5 385.5t645.5 276.5t610 104q436 0 606 -270q89 -143 89 -359q0 -242 -112 -577q-52 -144 -141.5 -315t-169.5 -314q-120 -212 -120 -237q0 -15 24 -15q39 0 146.5 38.5
t144.5 38.5q27 0 27 -19q0 -36 -56 -65q-43 -23 -103 -47q-70 -28 -152 -69q-200 -98 -321 -263q-332 -462 -959 -1187q-737 -851 -1400 -1461q-790 -727 -1264 -865q-49 -14 -94 -14z" />
    <glyph glyph-name="K" unicode="K" horiz-adv-x="2316" 
d="M-44 -37q46 0 88 40t92 120t116 197q29 51 213 367q61 95 61 127q0 16 -17 16q-69 0 -488 -294q-329 -228 -329 -368q0 -120 224 -198q21 -7 40 -7zM-542 -1430q-82 0 -82 122q0 86 47.5 216.5t125.5 263t156 249.5q56 86 100 158q73 120 73 173q0 34 -29 46
q-359 145 -359 335q0 121 140 262q164 165 512 377q158 96 443 264q109 65 168.5 141t122.5 193q40 71 99 167q68 114 185 336q216 400 327 583q182 300 249 300q58 -3 58 -62q0 -81 -107 -269q-81 -142 -287 -457q-109 -164 -198 -307q-134 -217 -134 -291q0 -14 5 -24
q517 296 970.5 586t906.5 591q362 241 760 499q207 133 339 133q73 0 101 -39q16 -23 16 -50q0 -61 -67 -125q-45 -43 -119 -75q-14 -6 -22 -6q-13 0 -13 13q0 12 4 30t4 35q0 3 -0.5 14t-28.5 11q-88 0 -503 -272q-819 -540 -1267 -826q-511 -328 -1214 -749
q-69 -45 -185 -210q-201 -288 -454 -735q-92 -161 -109 -198q-6 -16 -6 -28q0 -13 8 -21q20 -20 108 -35q61 -9 374 -73q264 -55 510 -94.5t579 -56.5q16 -1 30 -17q8 -10 8 -21q0 -27 -37 -49q-66 -39 -253 -39q-113 0 -285 17q-224 28 -491 88q-164 36 -313.5 63
t-255.5 27q-129 0 -161 -51q-39 -65 -93 -150q-65 -102 -135 -216q-249 -404 -249 -540q0 -73 69 -73h17q24 0 24 -13q0 -21 -39 -56q-74 -65 -143 -65z" />
    <glyph glyph-name="L" unicode="L" horiz-adv-x="2508" 
d="M-2086 -1555q-87 0 -87 47q0 16 14 44q26 40 143 96.5t250.5 102t190.5 45.5l23 -1q142 0 745 242q250 100 473 192q219 91 348 141q167 59 241 213q151 286 584 1049.5t886 1535t665 1079.5q45 64 97 64q34 0 49 -38q5 -13 5 -32q0 -83 -98 -235t-186 -310
q-85 -152 -163 -270t-154 -163q-22 -24 -235 -377q-538 -893 -1012 -1751q-298 -538 -298 -607l1 -5q37 9 224 71q479 157 782 245q512 148 710 148q116 0 116 -53q0 -76 -234 -257q-95 -74 -141 -74q-21 0 -21 19q0 38 76 127q18 19 18 33q0 21 -45 21q-173 0 -849 -222
q-438 -145 -684 -237q-77 -32 -131 -113.5t-97 -171.5q-65 -134 -110 -179q-29 -29 -72 -29q-21 3 -21 24q0 37 58 129q69 114 69 157q0 40 -49 40q-53 0 -185 -52q-581 -262 -1109 -463q-591 -225 -787 -225z" />
    <glyph glyph-name="M" unicode="M" horiz-adv-x="4374" 
d="M106 -516q-20 0 -34 13q-5 5 -5 16q0 75 212 416q161 259 384 601q441 681 692 1101q569 952 569 1271q0 69 -31.5 119t-124.5 50q-76 0 -194 -42q-222 -83 -476 -254t-487 -371.5t-393 -372.5q-192 -205 -192 -267v-3q57 -41 94 -70q83 -69 83 -100q0 -21 -47 -22
q-131 9 -240.5 53t-109.5 111q0 55 81 128q76 67 206 193q417 407 765 678q510 396 905 465q41 6 75 6q212 0 212 -232q0 -36 -12 -129.5t-81 -282.5q-100 -274 -277 -607t-379 -663.5t-386.5 -608t-307 -449.5t-139.5 -186q7 -5 17 -5q45 0 125.5 69t192.5 187.5t248 269.5
q187 209 409 442.5t465.5 449t495.5 370.5q125 74 182 74q54 0 54 -64q0 -115 -165 -420q-145 -266 -438 -738q-138 -224 -246 -405q-150 -253 -150 -317q0 -12 5 -18q13 0 384 404q564 607 805 859q1188 1240 1432 1240q64 0 64 -84q0 -53 -29 -133q-41 -113 -136.5 -307.5
t-214.5 -429.5q-152 -298 -299.5 -601.5t-229.5 -528.5q-68 -187 -68 -274q0 -22 7.5 -53t52.5 -31q17 0 40 7q9 7 22 11q71 20 314 230q55 45 77 45q17 0 17 -21q0 -59 -97 -188q-67 -89 -170 -169.5t-236 -122.5q-44 -13 -79 -13q-127 0 -127 169q0 159 113 469
q87 239 212 504q208 443 455 883l74 132l25 60q50 98 50 170v10q-162 -13 -778 -646q-416 -426 -1101 -1189q-419 -468 -558 -601q-31 -28 -74 -47.5t-83 -19.5q-37 0 -63 24t-26 80q0 138 195 468q83 136 221 348q308 479 431 694q142 251 142 327q0 31 -25 31
q-69 0 -328 -233q-299 -272 -583.5 -570t-534.5 -572q-204 -223 -373 -400.5t-291.5 -282t-185.5 -104.5z" />
    <glyph glyph-name="N" unicode="N" horiz-adv-x="3092" 
d="M1908 -514q-134 0 -187 153q-22 68 -22 157q0 475 610 1542q219 386 557 923l108 174q99 158 123 261q-4 1 -9 1q-37 0 -138 -73q-189 -136 -495 -412q-235 -212 -366 -336q-214 -204 -511 -524.5t-611 -667.5q-360 -398 -651 -707.5t-413 -398.5q-122 -82 -208 -82
q-57 0 -89 33q-42 42 -42 114q0 39 14 84l15 43q150 412 1092 1874q28 45 152 255q415 708 415 770v3q-16 -6 -89.5 -63.5t-176.5 -147.5q-245 -214 -397 -399q-121 -146 -121 -229v-8q0 -28 -30 -41q-21 -10 -46 -10q-31 0 -59.5 15.5t-41.5 48.5q-4 12 -4 27
q0 110 185 282q920 845 945 871q12 13 35.5 23.5t47.5 10.5q22 0 40 -15t18 -51q0 -80 -100 -256q-178 -311 -506 -853q-242 -401 -491 -821q-718 -1209 -718 -1367q0 -29 21 -29q74 0 392 326q161 167 466 505q66 74 84 93q309 317 597 632q281 306 570.5 604t615 584
t715.5 555q68 46 115 46q40 0 55 -37q5 -12 5 -29q0 -34 -19 -87q-33 -89 -324 -570q-362 -599 -582 -997q-581 -1052 -581 -1438q0 -177 107 -177q103 0 313 162q137 106 396 340q108 99 206 183q217 187 287 187q25 0 36 -23l1 -8q0 -31 -55 -87q-64 -66 -211 -187
q-102 -85 -219 -195q-238 -226 -410 -357q-261 -199 -416 -199z" />
    <glyph glyph-name="O" unicode="O" horiz-adv-x="2181" 
d="M75 -794q-243 0 -319 235q-32 100 -32 219q0 129 38 281q24 98 92 284q108 298 245 584q166 345 328 557q189 249 343 249q153 -13 153 -167q0 -85 -47 -214q-43 -118 -107.5 -231t-124 -187t-86.5 -74q-5 0 -10 4t-10 10.5t-5 10.5l1 4q29 45 69 134q84 186 128 351
q22 81 22 130q0 46 -28 46q-48 0 -178 -155q-148 -180 -272 -408q-250 -458 -338 -916q-35 -180 -35 -331q0 -32 2 -63q7 -101 64.5 -148.5t148.5 -47.5q139 0 330 97t383 270q264 239 536 540q586 650 977 1325q399 689 457 1239l1 27q0 104 -74 161.5t-219 57.5
q-214 0 -535.5 -129t-680 -379t-697.5 -617q-231 -257 -231 -367l1 -20q3 -29 37 -61q23 -23 23 -34q0 -12 -13 -28q-36 -37 -78 -37q-40 0 -74 31t-45 90q-3 15 -3 32q0 48 23 111q51 139 215 304q228 230 469 442q511 448 1059 674q321 132 568 132q108 0 206 -28
q196 -62 196 -326q0 -52 -15.5 -167.5t-93.5 -329.5q-118 -326 -341 -716.5t-505.5 -782t-587.5 -733t-595 -579.5q-434 -356 -735 -356z" />
    <glyph glyph-name="P" unicode="P" horiz-adv-x="2615" 
d="M695 -42q272 93 994 692q619 512 1183 1051q710 678 871 1123q44 121 44 216q0 135 -89 220q-138 131 -457 131q-210 0 -465 -55.5t-514 -152.5q35 -49 35 -111q0 -48 -20 -103q-33 -93 -562 -1075q-406 -751 -663 -1263q-11 -23 -129 -244q-217 -399 -228 -429z
M-224 -1580q-20 0 -39 24q-16 20 -16 54q0 41 25 109q45 124 136.5 296.5t205.5 349.5q97 152 176 282t108 210q12 34 36 57v5q0 24 9 48t28 51t47 63q91 148 262 447q437 745 501.5 896t97.5 240q68 188 175 400q102 204 384 732q216 406 244 429q-12 9 -35 9
q-60 0 -187 -53.5t-296 -149t-359 -223.5t-380 -278.5t-358.5 -314.5t-294 -331t-183.5 -326q-41 -112 -41 -213q0 -81 27 -155q38 -102 38 -166q0 -29 -8 -50q-13 -37 -45 -37q-36 0 -78 42.5t-69.5 123t-27.5 171.5q0 130 56 283q76 209 260 436q315 378 720.5 680.5
t842.5 516.5t847.5 328.5t725.5 114.5q375 0 536 -160q101 -101 101 -258q0 -111 -51 -250q-212 -583 -1284 -1543q-447 -403 -957 -816q-674 -546 -1020 -700q-183 -88 -636 -977q-34 -63 -68 -148q-22 -58 -47 -114q-61 -135 -109 -135z" />
    <glyph glyph-name="Q" unicode="Q" horiz-adv-x="2197" 
d="M10 -807q138 0 327 126q43 29 61 143l18 116q11 83 30 191q47 264 141 523q186 494 367 882q150 322 345 633.5t516 761.5q83 121 83 189q0 15 -8 36t-50 21q-57 0 -168 -70q-253 -159 -622 -637q-434 -564 -918 -1492q-191 -366 -319 -690q-19 -36 -34 -77
q-46 -127 -46 -263q0 -87 23.5 -176t86 -153t167.5 -64zM622 -466q69 0 265 187t559 599q121 138 320 391q456 580 889 1221q513 759 646 1123q43 120 43 210t-43.5 143.5t-137.5 53.5q-121 0 -291.5 -82.5t-348 -220t-327.5 -306t-236 -343.5q-2 -1 -71.5 -82t-186.5 -240
q-292 -395 -558 -932q-153 -306 -306 -727q-129 -387 -185 -571q-78 -252 -78 -351q0 -73 47 -73zM928 -1565q-175 0 -312 141q-173 177 -237 588q-286 -109 -476 -109q-131 0 -208 49q-142 90 -142 320q0 213 122 546q130 357 352 745q114 204 274 467q246 408 501 773
q730 1045 1091 1045q73 0 131 -47q36 -30 66 -30t61 29t77 83q65 77 188 195t339 264q200 125 403 125q201 0 284 -129q45 -70 45 -173q0 -117 -58 -276q-109 -300 -599 -1051q-302 -461 -668.5 -953.5t-745 -923t-716.5 -707.5q-73 -62 -107 -155q-24 -67 -24 -142
q0 -58 23.5 -162.5t153 -231t371.5 -197.5q12 -4 12 -12q0 -19 -64 -46q-56 -25 -137 -25z" />
    <glyph glyph-name="R" unicode="R" horiz-adv-x="3464" 
d="M-95 -1584q-65 0 -65 79q0 62 40 173q75 207 229 492q52 96 61 108q30 38 30 91l-1 26q27 48 37 74q7 19 23 38q199 254 405 563t346 602q-2 1 -5 1t-3 9q0 27 31 128q58 160 590 876q168 282 316 545q233 410 331 559q151 229 221 229q41 -7 41 -49q0 -69 -94 -207
q-253 -380 -1091 -1793q-437 -737 -746 -1241q401 183 1368 849q757 521 1364 1017q233 189 426 349q391 326 660 603q467 481 467 762q0 153 -173.5 267.5t-731.5 114.5q-319 0 -775 -70t-929 -213t-910 -363t-782 -520.5t-539 -684.5q-27 -61 -27 -142l2 -56
q5 -106 52 -302q32 -148 32 -180q0 -38 -19 -38q-13 0 -38 20q-161 132 -195 307q-11 56 -11 114q0 124 49 258q104 287 398 590.5t710.5 560.5t902.5 417q501 164 1053 291q723 166 1235 166q709 0 874 -341q29 -61 29 -135q0 -595 -1774 -1959q-972 -748 -2271 -1580
q-311 -199 -337 -212t-50.5 -31.5t-40.5 -62.5q56 -14 116 -14q77 0 253 31q115 21 271 40.5t371 19.5q602 0 1449 -208q31 -7 91 -15q222 -25 222 -61q0 -31 -186 -75q-35 -8 -82 -8q-83 0 -196 21t-252.5 51.5t-302 62t-344 53t-377.5 21.5q-186 0 -383 -26
q-315 -43 -599 -57q-160 -7 -237.5 -26.5t-125.5 -91t-153 -303.5q-44 -95 -53 -119q-24 -66 -40 -182q-11 -80 -22 -110q-26 -71 -108 -98q-15 -5 -27 -5z" />
    <glyph glyph-name="S" unicode="S" horiz-adv-x="1595" 
d="M-644 -1107q203 0 454 83q201 66 393.5 173.5t339.5 242.5q162 148 219 305q25 67 25 134q0 71 -28 141q-31 84 -77 84q-2 0 -28 -2t-131 -67q-65 -38 -163 -88q-148 -75 -382 -228t-440.5 -318t-271.5 -275q-42 -83 -42 -123q0 -29 27.5 -45.5t104.5 -16.5zM-643 -1266
q-279 0 -334 159q-8 25 -8 52q0 82 83 174q382 403 882 702q206 123 361 206q184 97 255 153q0 27 -25 66t-65 91q-66 85 -137.5 205.5t-106.5 281.5q-17 75 -17 160q0 96 22 205q44 206 203 455q266 405 538.5 679.5t516 415.5t417.5 141q169 0 235 -139q30 -65 30 -161
q0 -112 -41 -267q-62 -213 -134 -295q-44 -49 -79 -49q-8 0 -15.5 4.5t-7.5 12.5l1 7q56 155 99 304q39 137 39 231q0 132 -77 179q-32 20 -83 20q-70 0 -179 -38q-172 -66 -346 -206q-325 -262 -625 -682q-223 -311 -290 -494q-49 -135 -49 -272q0 -243 155 -490
q62 -101 171 -248q17 -21 60 -21q13 0 53 5q69 7 304 91q203 72 251 72q32 0 32 -21q-10 -27 -82 -59t-172.5 -70t-188 -76.5t-123.5 -74.5v-3q0 -34 24 -92q27 -66 44 -160q4 -26 4 -54q0 -80 -34 -173q-102 -280 -621 -600q-550 -327 -940 -327z" />
    <glyph glyph-name="T" unicode="T" horiz-adv-x="2276" 
d="M1074 -989q-69 0 -125.5 55t-87.5 153q-27 84 -27 192l4 92q4 85 77 275q46 114 354 721q324 639 403 765q277 422 460 688q135 198 216 322q112 173 112 227q0 33 -37 33q-53 0 -152.5 -33.5t-255.5 -92.5q-161 -60 -824 -297q-679 -244 -797 -305q-34 -20 -34 -48
q0 -26 22 -66q17 -33 17 -50q0 -32 -72 -32q-96 5 -118 5q-131 0 -263 -22.5t-250 -47.5q-89 -19 -163.5 -32.5t-129.5 -13.5q-117 0 -117 80q0 44 56 70q61 27 207 48l74 12q159 34 535.5 167.5t843.5 307.5q454 169 875.5 319.5t689.5 226.5q29 9 69.5 45.5t86.5 82.5
q54 54 102.5 97t79.5 43q36 0 36 -72l-1 -29q1 -26 52 -26q56 0 159 23t234.5 55.5t274 64.5t282 54t258.5 22q273 0 273 -117q0 -177 -606 -596q-221 -152 -443 -285q-1 -1 -5 -2.5t-5 -3t-2 -2t-3 -2.5t-4 -2.5t-2.5 -1t-1.5 -0.5v-1l-4 -1q-6 -3 -7 -4t-2 -1.5t-2 -1.5
q-29 -18 -35 -21q-31 -15 -56 -15q-27 0 -42 15q-9 9 -9 21q0 35 64 84q190 135 357 250q377 260 490 357q95 81 95 121q0 43 -112 44q-82 0 -290 -32q-382 -51 -657 -124q-386 -102 -513 -272q-101 -141 -259 -374q-390 -574 -718 -1130q-690 -1166 -690 -1612q0 -34 4 -63
q21 -106 85 -132q60 -24 116 -24q30 -1 46 -4q11 -3 11 -11q0 -16 -40 -57q-76 -79 -159 -79z" />
    <glyph glyph-name="U" unicode="U" horiz-adv-x="2420" 
d="M-344 -952q-141 0 -189 180q-4 17 -4 39q0 85 58 245q149 409 630 1239q334 576 623 1030l-1 11l-4 -15q-21 -5 -84 -58.5t-79 -53.5q-7 0 -7 11q0 79 220 388q175 248 341 428q196 213 284 213q42 0 42 -39q0 -56 -76 -179q-66 -106 -199 -289q-145 -193 -404 -609
q-205 -326 -422 -703q-507 -878 -673 -1334q-66 -179 -66 -268q0 -85 62 -85q151 0 673 524q403 404 1239 1368q446 517 917 1033q17 18 54.5 39t69.5 21q42 0 42 -46q0 -78 -121 -288l-106 -174q-320 -519 -566 -948q-385 -668 -510 -1013q-54 -149 -54 -227q0 -86 65 -86
q32 0 83 22q85 36 120 36q29 0 29 -18q0 -34 -65 -93q-50 -46 -118 -81t-133 -35q-120 0 -161 141q-6 24 -6 56q0 314 616 1373q115 198 405 683q-66 -18 -251.5 -224t-446.5 -517l-320 -374q-614 -717 -997 -1042q-332 -281 -510 -281z" />
    <glyph glyph-name="V" unicode="V" horiz-adv-x="2472" 
d="M299 -878q-101 0 -156 72.5t-55 202.5v71q2 147 274 737q127 276 276 590q172 363 333 715q349 763 349 976q0 94 -68 94q-100 0 -328 -192q-181 -153 -394 -377q-176 -185 -228 -256q-31 -50 -68 -138q-21 -50 -42 -95q-50 -105 -86 -105q-17 0 -33 25q-17 31 -17 73
q0 47 22 109q43 119 156 268t262 298.5t309 274.5t304 202.5t239 77.5q128 0 128 -155q0 -44 -10 -101q-20 -91 -59 -216q-26 -89 -53 -162q-104 -286 -443 -1008q-154 -331 -301 -657.5t-242 -588.5q-114 -314 -114 -454q0 -25 7.5 -71.5t73.5 -46.5q54 0 149 54
q154 96 481.5 436.5t729.5 803t780.5 924.5t639.5 804.5t291 423.5q21 65 61 112q37 43 77 69t69 26q36 0 36 -39q0 -150 -409 -648q-117 -143 -316 -390q-690 -862 -1212 -1475q-754 -885 -1092 -1133q-185 -131 -321 -131z" />
    <glyph glyph-name="W" unicode="W" horiz-adv-x="2879" 
d="M-502 -785q-22 0 -40 7q-87 39 -87 161q0 173 171 503q107 208 305 532q55 90 96 161q205 352 544 869q571 873 724 873q20 0 37 -9q21 -13 21 -45q0 -51 -63 -154q-216 -346 -581 -872q-152 -222 -234 -301q-53 -51 -92 -59q-10 -2 -20 -7q-33 -18 -325 -522
q-418 -713 -421 -932q2 -40 31 -40q96 0 472 398q472 501 1299 1516l103 125q27 20 54 20q32 0 51 -28q9 -13 9 -33q0 -57 -63 -147q-260 -366 -408 -773q-116 -324 -116 -537q0 -13 2 -74t42 -123.5t120 -62.5q144 0 395 213q295 256 592 607.5t529 702.5t317 583
q39 108 39 174q0 102 -94 102q-42 0 -93 -59q-49 -55 -96 -119q-35 -48 -64 -82.5t-45 -34.5q-18 0 -18 58q0 96 28 172q29 80 80.5 135.5t114 84t122.5 28.5q61 0 112 -30q105 -62 105 -228q0 -11 -1.5 -65t-50 -187t-151.5 -306q-99 -163 -298 -441q-240 -335 -497 -638
q-306 -360 -568 -575q-305 -249 -509 -249q-145 0 -232 128q-66 100 -66 246q0 179 120 511q69 181 104 307q3 12 3 19t-4 7q-11 0 -69 -79q-164 -222 -411 -515q-313 -371 -570 -617q-313 -299 -455 -299z" />
    <glyph glyph-name="X" unicode="X" horiz-adv-x="3208" 
d="M-581 -1886q-65 0 -129.5 24.5t-108.5 79.5q-55 66 -55 170q0 82 41 195q83 227 335 538q196 239 568 625q129 134 239 252q291 315 291 413l-1 14q-47 255 -60.5 528.5t-16.5 562.5q-2 267 -13.5 544t-50.5 562q-2 18 -2 34q0 34 9 59q19 53 69 55q47 0 103.5 -65
t96.5 -211q88 -331 88 -436q0 -59 -36 -59q-16 0 -34 6q-22 7 -43 7l-14 -1q-14 -248 -14 -623q0 -302 23 -517q31 -315 115 -315q24 0 52 27q549 539 684 670q586 570 1105 1025q1492 1307 2122 1307q47 0 92 -8q192 -37 192 -212q0 -78 -39 -185q-33 -92 -85 -186
q-365 -692 -817 -1363q-57 -63 -70 -63q-5 0 -5 6q0 49 216 412q127 217 186 309q319 535 437 860q40 111 40 163q0 40 -26.5 71t-123.5 31q-81 0 -216 -29q-864 -204 -2994 -2284q-711 -694 -724 -730t-13 -87q0 -29 7.5 -93t48.5 -177.5t109.5 -227t161.5 -208.5
t209.5 -153.5t254.5 -58.5q187 0 386 122q140 87 251 178.5t204 177.5q214 197 253 197q11 0 11 -12q0 -33 -72 -131q-55 -74 -141 -165q-199 -211 -436 -355q-289 -176 -544 -176q-471 0 -747 614q-25 59 -37 120q-13 56 -30 95.5t-56 39.5q-84 0 -405 -311
q-185 -179 -376.5 -396t-341.5 -424.5t-201 -347.5q-26 -73 -26 -150q0 -147 111 -184q58 -19 111 -24q40 -4 62 -11q16 -6 16 -19q0 -6 -3 -13q-14 -39 -73 -61q-54 -22 -120 -22z" />
    <glyph glyph-name="Y" unicode="Y" horiz-adv-x="2213" 
d="M-3 -2534q-40 0 -67 32q-24 28 -24 91l1 49q1 50 67 221q74 148 119 256q13 34 41 97q36 26 57.5 60t39.5 74q125 249 533 928.5t865 1428.5q548 900 808 1343l58 95q58 89 58 107q0 5 -5 6q-23 0 -215 -175q-170 -159 -309 -305q-65 -67 -96 -97q-406 -384 -826 -793
q-584 -573 -1150 -1097q-64 -57 -157 -102t-167 -45q-44 0 -72 21q-33 24 -33 81q0 139 231 484q106 152 252 354q377 520 579 831q324 496 437 808q61 168 61 294v19q-10 125 -99 125q-62 0 -149 -52q-158 -95 -364 -297q-163 -160 -236 -252q-13 -18 -41 -71
q-104 -213 -162 -213q-19 0 -35 26q-17 32 -17 72q0 41 18 90q37 101 131.5 217.5t212 227t229.5 198t187 133.5q144 84 261 84q100 0 166 -62q75 -71 75 -217q0 -151 -100 -386q-140 -311 -405 -718.5t-529 -788.5q-185 -267 -318 -468q-172 -260 -172 -319q0 -17 15 -18
q76 0 588 479q454 427 1505 1439q1196 1152 1326 1310q26 33 60.5 50t64.5 17q31 0 48 -20q9 -11 9 -27q0 -51 -76 -141q-279 -330 -676 -941q-609 -939 -1548 -2545l-444 -751q-322 -552 -332 -673q33 9 77.5 58t94 112t93.5 112t73 49q25 0 25 -28q0 -72 -142 -292
q-162 -251 -343 -495q-30 -41 -73.5 -65.5t-83.5 -24.5z" />
    <glyph glyph-name="Z" unicode="Z" horiz-adv-x="3289" 
d="M-1597 -1188q75 0 261 77q315 131 786 377q223 116 261 137q618 319 626 422q-61 -36 -514 -220q-574 -230 -1101 -515q-331 -180 -355 -246q-2 -6 -2 -11q3 -21 38 -21zM-1853 -1396q-56 0 -103 13q-80 25 -80 77q0 54 81 128q98 90 238 174q877 518 1716 831
q346 129 593 209q299 97 434 164q143 80 427.5 296t563 442.5t402.5 337.5q688 619 850 1064q48 132 48 240q0 166 -113 277q-180 175 -585 175q-236 0 -527 -64t-618 -194q-129 -50 -252 -118t-235 -170q-125 -117 -125 -199q0 -28 23 -66q16 -34 16 -47q0 -26 -35 -57
q-26 -22 -54 -22q-40 0 -72 42t-42 110q-2 16 -2 33q0 52 21 110q35 98 128 174q126 105 258.5 192t285.5 142q266 94 470 159q197 62 390 102.5t379 40.5q343 0 610 -164q235 -149 235 -426q0 -135 -58 -296q-113 -311 -406 -634q-356 -389 -719.5 -688t-766.5 -596
l-117 -88l9 -27l103 24q1291 314 1725 314q188 0 188 -62q0 -43 -65 -80q-49 -29 -94 -29q-15 0 -28 4q-41 12 -112 12q-279 0 -970 -150q-502 -109 -877 -209q-209 -58 -451 -191t-521 -306q-246 -152 -523 -311t-588 -301q-94 -43 -201 -94q-147 -71 -300 -139
q-358 -159 -554 -159z" />
    <glyph glyph-name="bracketleft" unicode="[" horiz-adv-x="994" 
d="M-395 -1279q-109 0 -217 22.5t-147 124.5q-13 34 -13 80q0 82 43 201q4 10 43.5 115.5t251.5 431.5q503 774 826 1341q362 636 816 1490q73 134 189 293.5t251.5 303.5t267.5 232q119 79 214 79q11 0 68 -5t110 -152q19 -63 19 -113q0 -38 -11 -68q-1 -2 -15 -38.5
t-59 -56.5q-14 -7 -25 -7q-23 0 -33 27q-5 18 -9 40q-8 46 -24.5 88.5t-53.5 56.5q-11 4 -23 4q-34 0 -85 -28q-201 -120 -399 -382t-394.5 -606.5t-389.5 -711.5q-151 -287 -300 -555.5t-296 -489.5q-83 -125 -237 -369q-438 -692 -514 -900q-27 -74 -27 -130
q0 -127 141 -156q65 -14 146 -14q111 0 329 31q163 25 271 25q106 0 108 -62l-2 -5q-19 -53 -268 -88q-186 -27 -373 -40q-11 0 -19 -1q-87 -8 -160 -8z" />
    <glyph glyph-name="backslash" unicode="\" horiz-adv-x="569" 
d="M-810 -1469q-141 0 -154 160l-1 18q0 73 41 185q13 36 60 145.5t248 394.5q227 318 551.5 710.5t676.5 805.5q306 359 585.5 695.5t487.5 614t300 459.5q33 63 81 87q23 11 42 11q21 0 44 -19q14 -11 14 -44q0 -24 -8 -60q-26 -174 -614 -873q-267 -317 -582 -682
q-723 -836 -1094 -1305q-512 -648 -624 -956q-43 -122 -43 -151q0 -65 75 -106q28 -17 28 -34q0 -4 -1.5 -9t-17.5 -22t-76 -24q-9 -1 -19 -1z" />
    <glyph glyph-name="bracketright" unicode="]" horiz-adv-x="1810" 
d="M-855 -1096q-79 0 -120.5 21.5t-41.5 49.5q0 10 12 37q9 20 97 33q404 52 655 71q204 14 298.5 34.5t137 82t94.5 205.5q55 152 173.5 407t368.5 669q368 603 634 1092t528 996q150 290 322 617q48 90 48 141q0 13 -7 37q-7 29 -114 29q-59 0 -140 -8q-119 -12 -276 -12
q-148 0 -310 41q-51 15 -80 51q-19 25 -19 49q0 10 11 42q8 19 88 31q20 3 45 3q77 0 205 -26q103 -21 248 -21q63 0 125 3q53 3 101 3q90 0 182 -13t118 -99q5 -17 5 -39q0 -91 -81 -251q-411 -812 -728.5 -1381t-732.5 -1279q-53 -90 -107 -185q-302 -524 -455 -944
q-52 -139 -95 -217.5t-114.5 -118t-210 -60.5t-379.5 -44q-172 -17 -410 -43q-41 -4 -75 -4z" />
    <glyph glyph-name="asciicircum" unicode="^" horiz-adv-x="1296" 
d="M1512 1539h-5q-116 0 -116 222q12 85 12 179q0 90 -17 239q-22 195 -103 195q-44 0 -112.5 -64.5t-177.5 -201.5q-80 -98 -173.5 -203t-201.5 -198q-75 -60 -116 -60q-7 0 -25.5 2.5t-18.5 43.5q0 46 49 105q78 89 164 193q128 155 260.5 299.5t253.5 224.5q81 55 153 55
q32 0 61 -13q126 -27 187 -345q41 -219 51 -326q7 -112 15 -185v-10q0 -24 -8 -47q-32 -89 -132 -105z" />
    <glyph glyph-name="underscore" unicode="_" horiz-adv-x="1317" 
d="M-104 -247q-131 0 -131 73q0 13 5.5 28.5t24.5 36.5t50 25q40 2 125 9q595 45 823 45q145 0 181 -19q31 -24 31 -63l-1 -16q-5 -50 -62 -83q-29 -17 -72 -17q-40 0 -94 15q-204 -1 -499 -19q-283 -15 -381 -15z" />
    <glyph glyph-name="grave" unicode="`" horiz-adv-x="429" 
d="M697 1624q-14 0 -39 9q-20 28 -55.5 162.5t-38.5 182.5q8 22 33 46q32 29 70 29q57 -6 90.5 -141t46.5 -172q4 -12 4 -23q0 -46 -73 -83q-19 -10 -38 -10z" />
    <glyph glyph-name="a" unicode="a" horiz-adv-x="1209" 
d="M-118 141q7 0 58 48q17 16 39 35q86 77 170 156q19 17 40 34q92 69 92 124q0 12 -10 12q-38 0 -171 -132q-96 -91 -169 -191q-50 -77 -50 -84q0 -2 1 -2zM-346 -164q-52 0 -93 42q-27 27 -27 63q0 46 43 102q252 328 554 622q97 92 185 92q54 0 100 -43q35 -34 56 -34
q15 0 37 15t140 113q88 70 138 70q44 0 44 -44q0 -39 -35 -111q-94 -178 -149 -330l-23 -61q-19 -54 -19 -120q0 -58 67 -58q5 0 45 2t214.5 146t243.5 205q115 101 149 101q21 0 32 -26q2 -5 2 -11q0 -47 -154 -184l-189 -169q-70 -64 -153 -127.5t-169 -96.5
q-50 -20 -100 -20q-35 0 -69 10q-81 29 -100 94q-11 37 -11 80q0 76 46 231q11 35 20 67l-10 1q-52 0 -137.5 -74.5t-195.5 -188.5q-107 -110 -215 -208t-202 -136q-35 -14 -65 -14z" />
    <glyph glyph-name="b" unicode="b" horiz-adv-x="1355" 
d="M916 2087q14 0 306 386q324 431 324 516v3q-72 -26 -131.5 -95t-118.5 -157q-37 -53 -187 -302q-194 -323 -194 -349q0 -2 1 -2zM82 -296q-44 0 -89 40.5t-65 151.5q-15 80 -15 170q0 34 5.5 116.5t39.5 193.5q188 627 643 1474q120 227 285 505q390 660 627 885
q62 52 127 52q10 0 52 -5t74 -72q9 -21 9 -48q0 -56 -42 -134q-149 -249 -332.5 -496t-368.5 -482q-213 -269 -384.5 -507t-252.5 -429q-150 -354 -205 -505q-68 -188 -101 -367q-13 -71 -13 -132q0 -94 31 -165q29 -57 69 -57q12 0 47.5 15t97 90t138.5 187q68 91 82 130
q6 15 6 35q0 7 -2 25t-46 64q-47 49 -103 165q-5 15 -5 29t5 27q22 62 114 76q13 2 26 2q45 0 85 -25q241 -163 489 -170l65 -1q61 0 109 4q41 4 69 4q93 -4 93 -49q0 -61 -135 -103q-79 -20 -144 -20q-80 0 -170 20q-57 15 -107 15q-26 0 -73 -7t-118 -107l-50 -76
q-101 -157 -214 -290t-273 -210q-44 -19 -80 -19z" />
    <glyph glyph-name="c" unicode="c" horiz-adv-x="1110" 
d="M65 -52q-116 0 -174 72q-37 45 -37 122q0 81 35 175q107 294 446 578q102 80 199 80q71 0 116 -45q32 -32 32 -86q0 -21 -5 -46q-21 -90 -133 -202q-25 -22 -49 -22q-17 0 -28 9t-11 23q0 9 20 62q25 70 25 101q0 25 -16 25q-11 0 -30 -10q-93 -53 -184 -160
q-126 -147 -178 -290q-28 -79 -28 -152t79 -94q16 -5 38 -5q82 0 235 70q458 234 606 337q39 27 115 68q49 18 74 18q28 0 28 -21q0 -7 -4 -18q-48 -59 -226 -171t-261 -160q-131 -76 -288.5 -150.5t-323.5 -102.5q-38 -5 -72 -5z" />
    <glyph glyph-name="c.ss01" unicode="&#xe227;" horiz-adv-x="1164" 
d="M131 -50q-26 0 -91 8t-123 96q-24 36 -24 100q0 95 51 252q84 231 421 495q187 137 360 137q119 0 144 -63q3 -8 3 -17q0 -11 -5 -23q-27 -71 -168 -142q-66 -34 -138 -65q-84 -35 -221 -126.5t-200 -239.5q-49 -114 -49 -180q0 -17 8 -49.5t95 -34.5q83 7 287.5 96.5
t407.5 193.5t281 154q40 26 80 26q25 0 25 -20q0 -7 -4 -18q-15 -41 -227 -169.5t-427 -235t-324 -145.5q-83 -30 -162 -30z" />
    <glyph glyph-name="d" unicode="d" horiz-adv-x="1527" 
d="M-257 -40q141 60 309.5 213.5t302.5 315.5q161 193 161 240q0 10 -10 11q-75 0 -607 -532q-39 -39 -82 -99q-54 -75 -74 -149zM653 -236q-73 0 -112 62q-28 52 -28 126q0 192 182 534q78 147 153 279q83 143 134 246q-14 -20 -76.5 -95.5t-160.5 -187.5t-219.5 -240.5
t-251 -254t-255 -229.5t-233.5 -167t-183 -63q-55 0 -87 42q-13 21 -13 49q0 30 14 69q65 181 369 494q284 294 563 481q88 60 135.5 87t84.5 27q46 0 112 -55q100 70 261 291t336.5 505t319.5 542t210 401q33 69 68.5 102.5t65.5 33.5q27 0 43 -26.5t16 -74.5q0 -3 -1 -31
t-29 -105q-49 -134 -166 -294q-35 -49 -181.5 -287t-339.5 -571q-481 -828 -629 -1235q-53 -146 -53 -219q0 -71 51 -71q37 0 104 40q119 73 262 197t274 245q246 231 285 231q30 0 30 -41q0 -20 -10 -47q-19 -53 -72 -104q-714 -686 -973 -686z" />
    <glyph glyph-name="e" unicode="e" horiz-adv-x="1053" 
d="M43 316q16 0 119 72q184 127 271 235q39 47 39 81q0 31 -23 31q-19 0 -46 -16q-219 -126 -358 -331q-17 -29 -17 -53q0 -19 15 -19zM60 -101q-61 0 -135.5 31t-74.5 209v19q5 194 164 404q166 182 296 277q108 79 198 79q37 0 71 -13q73 -30 73 -98q0 -83 -99 -205
q-103 -130 -223 -241t-270 -189q-34 -19 -43 -44l-4 -15v-3q0 -13 19 -29q49 -35 113 -35q55 0 122 27q413 153 792 468q62 48 102 48t40 -34q0 -95 -435 -364q-472 -292 -706 -292z" />
    <glyph glyph-name="f" unicode="f" horiz-adv-x="949" 
d="M-896 -1666q44 59 148 222q452 705 581 1060q46 128 46 166q0 47 -43 61q-107 -203 -217 -405q-147 -272 -288 -545t-262 -548zM-1085 -2047q-88 4 -88 104q0 81 55 231q21 60 82 198q107 246 454 858q340 603 340 653q0 14 -5 39q-2 7 -2 17q0 47 37 147q34 92 62 108
t57.5 61.5t141 228t388.5 548.5q152 173 205 219q53 40 80 40q33 0 33 -42q0 -66 -54 -144q-279 -395 -346 -494q-126 -184 -238 -374q-29 -58 -29 -88q0 -70 115 -70q113 0 241 58q202 96 556 328q22 11 59 11q12 0 31.5 -3t19.5 -24q0 -16 -31 -53q-59 -71 -335 -240
q-351 -209 -555 -256q-65 -15 -90.5 -40t-39.5 -106q-78 -334 -388 -903q-143 -262 -292.5 -492t-273 -373.5t-190.5 -146.5z" />
    <glyph glyph-name="g" unicode="g" horiz-adv-x="1360" 
d="M135 233q51 0 148 63t203 158t192.5 197t121.5 186q-30 -10 -68 -21q-213 -61 -350 -131q-287 -147 -287 -398v-12q2 -42 40 -42zM-959 -2107q81 0 332 351q217 306 452 707q301 516 301 602q0 6 -2 9q-40 -19 -140.5 -103.5t-234.5 -216.5t-272.5 -294t-254.5 -336
t-176 -339q-49 -135 -49 -244q0 -136 44 -136zM-997 -2297q-45 0 -79 37q-102 117 -102 282q0 120 53 264q57 158 166.5 327.5t250.5 337.5t296.5 323.5t309 287.5t287.5 230q80 62 147 163.5t95 178.5q16 43 16 65q0 24 -18 24q-10 0 -28 -10q-233 -139 -362 -139
q-134 0 -134 149q0 86 34 178q44 123 136 242q171 221 422 335q211 95 389 95q87 0 134 -25q34 -19 34 -47q0 -44 -77 -102q-47 -34 -47 -68q0 -13 4 -31q6 -22 6 -46q0 -113 -151 -294q-32 -40 -89 -134.5t-78 -152.5q-7 -18 -7 -29q0 -8 10 -8q29 0 121.5 58.5
t211.5 139.5q210 137 340.5 186t173.5 49q33 0 33 -35v-6q-81 -141 -279 -213q-146 -53 -318.5 -158.5t-321.5 -230t-211 -244.5q-55 -113 -176 -342q-477 -902 -822 -1338q-236 -299 -370 -299z" />
    <glyph glyph-name="g.ss01" unicode="&#xe235;" horiz-adv-x="2181" 
d="M-975 -1674q129 48 483 460q272 316 439 542q-63 -24 -213.5 -156.5t-319.5 -307.5t-283 -326q-107 -139 -107 -203zM-60 146q36 9 133.5 73t205.5 146q230 174 230 204q0 7 -7 7q-39 0 -121 -42q-161 -82 -304 -186q-56 -41 -95 -90q-42 -48 -42 -112zM-1178 -1988
q-45 0 -69 41q-13 29 -13 64q0 183 356 579q184 205 392 404q372 356 628 562q172 145 265 292t165 304q46 99 102 205q-10 7 -25 7q-63 0 -285 -199q-93 -82 -190 -159q-188 -149 -300 -149q-26 0 -73 14.5t-86 130.5q-10 35 -10 69q0 41 13.5 77.5t62 103.5t186 153.5
t295.5 156.5t294 124q217 86 249 115q44 40 81 40q93 0 93 -150q0 -29 -4 -65q-13 -140 -148 -351q-158 -240 -158 -278q0 -11 9 -11q28 0 243 160q129 96 316 226q451 315 930 541q275 129 393 129q53 0 53 -29q0 -31 -57 -92q-203 -179 -346 -193.5t-242 -52.5
q-56 -21 -130 -60q-210 -110 -508 -304t-582.5 -426t-453.5 -456q-26 -36 -133 -176q-300 -392 -597 -732q-404 -463 -622 -584q-55 -31 -94 -31z" />
    <glyph glyph-name="h" unicode="h" horiz-adv-x="1824" 
d="M-54 -212q-59 0 -99 40.5t-40 137.5q0 217 292 745q288 511 485 892q203 391 431 798q128 203 232 402q124 232 197 334q99 139 184 139q71 -4 71 -55q0 -52 -78 -169q-51 -78 -123 -182q-286 -405 -493 -804q-21 -40 -108 -195q-119 -207 -291 -520
q-615 -1117 -615 -1326q0 -43 29 -43q64 0 285 228q712 729 931 729q76 -2 90 -64q5 -23 5 -50q0 -97 -81 -325l-84 -224q-59 -162 -59 -223q0 -8 2.5 -30t37.5 -22q96 0 463 325q74 66 123 114q54 52 100 90q61 45 99 45q34 0 34 -30q0 -40 -64 -119q-168 -194 -541 -475
q-60 -45 -139 -77.5t-152 -32.5q-70 0 -118 42q-52 45 -52 152q0 118 88 334q120 285 120 339q0 20 -12 20q-29 0 -115 -78t-239 -226q-574 -560 -678 -608q-62 -28 -118 -28z" />
    <glyph glyph-name="i" unicode="i" horiz-adv-x="779" 
d="M468 1082q-64 0 -96 45q-11 16 -11 42q0 32 17 80q76 213 208 213q28 0 57 -9q103 -30 103 -103q0 -23 -10 -49q-29 -70 -103 -144q-83 -75 -165 -75zM-129 -339q-18 0 -53.5 12.5t-70.5 91.5q-17 38 -17 82q0 47 19 101q36 108 117 302q63 153 107.5 243t153.5 200
q44 40 80 40q58 0 58 -54q0 -61 -49 -129q-74 -95 -150 -229q-81 -145 -114 -235q-20 -56 -20 -113q0 -123 61 -123q25 0 91 35q105 56 733 687q36 24 58 24q27 0 34 -38q-8 -32 -175 -208q-193 -194 -395 -386t-318 -256q-94 -47 -150 -47z" />
    <glyph glyph-name="i.salt" unicode="&#xe238;" horiz-adv-x="972" 
d="M-55 0q-112 0 -112 105q0 152 228 514q39 64 148 232q37 39 71.5 62t74.5 23q35 0 58 -19q12 -13 12 -34q0 -55 -87 -175q-60 -82 -130 -171q-18 -30 -75 -110q-86 -121 -86 -174q0 -42 56 -42q70 0 265 65q68 27 324 137.5t292 130.5q50 28 74 28q19 0 19 -15l-2 -10
q-9 -24 -56 -66t-141.5 -97.5t-336 -172t-454.5 -184.5q-87 -27 -142 -27zM597 1232q-38 0 -66 18q-41 26 -41 80q0 28 13 64q35 95 91 121q41 19 87 19q43 0 81 -17t56 -49q10 -17 10 -38q0 -38 -30 -81q-40 -58 -95.5 -87.5t-105.5 -29.5z" />
    <glyph glyph-name="j" unicode="j" horiz-adv-x="921" 
d="M-1566 -1704q104 0 440 344q313 321 527 615q133 183 133 237q0 21 -21 24q-66 0 -272 -167.5t-432.5 -403t-371.5 -456.5q-38 -105 -38 -147q0 -46 35 -46zM268 985q-53 0 -73 47q-9 21 -9 46q0 67 57 157q49 94 49 119q0 16 -29 21q-25 2 -58 23q-28 24 -28 47
q0 45 92 78q76 27 160 27q65 0 119 -20.5t77 -67.5q11 -21 11 -49q0 -77 -78 -193q-87 -126 -162.5 -180.5t-127.5 -54.5zM-1627 -1887q-99 0 -148 106q-22 47 -22 103q0 62 27 135q48 133 170 282q228 277 610 578q298 235 572 414q76 50 127 113q83 103 155 303
q97 270 127 343q28 76 28 152q2 43 13 72q25 71 90 71q39 0 69.5 -27.5t30.5 -70.5v-3q-19 -139 -140 -412q-95 -212 -95 -269q0 -24 16 -24q12 0 32 11q15 9 97 63q761 507 872 507q17 0 17 -14q0 -18 -26 -52q-10 -11 -307 -209q-609 -400 -756 -525q-89 -80 -117 -110
q-40 -42 -76 -105q-32 -58 -102 -162q-166 -248 -377 -511q-255 -320 -474 -520q-261 -239 -413 -239z" />
    <glyph glyph-name="k" unicode="k" horiz-adv-x="1180" 
d="M-950 -1620q-40 0 -63 33q-21 29 -21 87q0 5 1 40t36 132q30 82 87 186l215 394q743 1367 1199 2162q426 742 513 794q34 20 63 20q27 0 46 -18q21 -22 21 -64q0 -100 -130 -289q-144 -202 -237 -329q-151 -203 -258.5 -371.5t-294.5 -521.5q195 189 349 313
q232 188 349 188q108 -4 108 -84q0 -28 -11 -58q-17 -49 -54 -89t-67 -40q-24 0 -36 37q-10 32 -28 32q-12 0 -32 -12q-244 -166 -414 -325q-216 -202 -216 -301q0 -63 103 -63q67 0 182 30q150 38 449 162q311 128 366 135q2 -5 2 -11q0 -55 -150 -145q-128 -77 -304 -150
t-355 -122.5t-300 -49.5q-59 0 -97 14q-70 27 -100 70l-93 -163q-558 -954 -658 -1234q-23 -60 -23 -90l1 -8q71 58 212 218q62 71 112.5 122.5t72.5 51.5q10 0 10 -11q0 -55 -208 -339q-153 -208 -172 -226q-98 -107 -175 -107z" />
    <glyph glyph-name="l" unicode="l" horiz-adv-x="883" 
d="M-25 -283q-139 0 -139 188q0 162 106 454q156 428 464 980q311 565 456 825q400 715 614 980q36 43 89 43q26 0 46 -15q25 -19 25 -59q0 -58 -54 -151q-129 -214 -275 -403q-84 -106 -199.5 -276t-307.5 -507q-219 -381 -451 -873q-215 -455 -292 -762q-29 -116 -29 -178
q0 -68 36 -68q75 0 286 172q165 135 343 308q259 250 321 250q17 0 17 -19q0 -13 -8 -34q-51 -141 -218 -296q-99 -92 -218 -193q-57 -48 -111 -96q-68 -60 -156 -122q-213 -148 -345 -148z" />
    <glyph glyph-name="l.ss01" unicode="&#xe245;" horiz-adv-x="563" 
d="M-861 -1564q-56 0 -85 80q-8 29 -8 67q0 102 61 270q116 318 513 1000q69 119 117 204q134 241 512.5 897t625.5 1011q143 222 272 410q220 320 296 343q17 5 31 5q58 0 58 -54l-1 -21q-14 -124 -286 -447q-558 -666 -1348 -2117q-534 -979 -613 -1197q-50 -136 -50 -191
q0 -37 23 -37q37 0 108 92q67 87 97 87q24 0 24 -25q0 -15 -8.5 -38t-39.5 -80.5t-112 -143.5t-158 -110q-15 -5 -29 -5z" />
    <glyph glyph-name="m" unicode="m" horiz-adv-x="1702" 
d="M1050 -80q-79 0 -121 87q-22 48 -22 108q0 57 20 126q18 63 72 210l-12 1q-30 0 -71.5 -27.5t-87.5 -64.5q-37 -29 -75 -56.5t-75 -45.5t-71 -18q-90 0 -130 156q-36 -4 -90 -37t-118 -77q-52 -36 -104 -69t-100 -55.5t-86 -22.5q-61 0 -80 76l-1 13q0 47 29 126
q43 119 120 259.5t128 208.5q15 19 46 35.5t58 16.5q29 0 43 -27q4 -9 4 -23q0 -29 -17 -76q-20 -55 -190 -359q9 -3 19 -3q29 0 68.5 20.5t84.5 53t93 69t93 68.5t85 53t69 21q26 0 42 -21t16 -81q0 -24 -10 -132q77 43 208 145q70 53 141 104t131 85t97 34q41 0 41 -50
q0 -91 -135 -353q-22 -42 -41 -96q-37 -98 -37 -156q0 -14 3.5 -36t32.5 -22q37 0 205 117q30 21 68 46q88 64 202 169q165 155 198 155q32 -6 32 -30q0 -73 -276 -309q-163 -138 -239 -194q-19 -11 -47.5 -30t-64.5 -40q-85 -52 -148 -52z" />
    <glyph glyph-name="n" unicode="n" horiz-adv-x="1450" 
d="M823 -66q-218 0 -220 231.5t-44 231.5q-38 0 -89.5 -31.5t-109 -80.5t-120.5 -106t-125 -109t-117 -85.5t-98 -33.5q-59 0 -85 75q-6 20 -6 46q0 60 34 153q39 109 109.5 226t146 202.5t131.5 105.5q31 6 52 6q56 0 56 -41q0 -15 -8 -35q-18 -50 -115 -193
q-63 -92 -120 -190q-54 -98 -54 -117q0 -5 3 -5q13 0 85 76q100 104 218 199t228.5 157t182.5 62q89 0 89 -108q0 -23 -4 -51q-17 -105 -17 -181q0 -189 106 -189q112 0 353 214q104 93 176 176q22 25 49 25q12 0 24 -5q16 0 16 -17q0 -42 -76 -143q-120 -160 -302 -303
q-207 -162 -349 -162z" />
    <glyph glyph-name="o" unicode="o" horiz-adv-x="946" 
d="M-126 -239q-71 0 -107 48q-41 53 -41 140q0 58 21 114q138 324 246 466q89 117 148 117q50 0 50 -68q0 -59 -109 -225q-161 -252 -161 -354q0 -44 45 -44q47 0 123 43.5t144 108.5q98 95 98 171q0 45 -41 73q-106 73 -106 124q0 32 35 51q43 24 74 24q58 -23 132 -23
q87 0 185.5 21.5t191.5 45.5q72 19 133 33t103 14q66 0 66 -48q0 -15 -6 -34q-13 -23 -69 -46q-96 -39 -233 -73q-107 -21 -161.5 -46t-79.5 -56.5t-44 -73.5q-21 -46 -63 -108q-100 -147 -404 -335q-98 -60 -170 -60z" />
    <glyph glyph-name="p" unicode="p" horiz-adv-x="1423" 
d="M-1369 -2303q-28 0 -43 18q-9 11 -9 26q0 10 7 30.5t16 48.5q55 151 148 332q144 280 430 758q192 319 333 580q312 598 636 1373q73 172 160 229q37 25 64 25q29 0 42 -24q6 -12 6 -26q0 -17 -8 -39q-196 -424 -471 -977q46 35 176 174q68 73 151 159q467 482 669 482
q159 0 160 -303q200 55 337 55q98 0 98 -43q0 -19 -24 -52q-16 -21 -117 -32q-70 -8 -161 -30q-220 -53 -363 -254q-246 -350 -464 -471q-97 -54 -155 -54q-46 0 -63 31q-8 13 -8 32q0 77 115 215q156 177 264 266t179 134q60 39 98.5 74t62.5 99q23 69 23 110q0 58 -46 58
q-100 0 -365.5 -253.5t-577 -663.5t-572.5 -897q-67 -126 -326 -592q-284 -510 -308 -545q-43 -53 -94 -53z" />
    <glyph glyph-name="q" unicode="q" horiz-adv-x="1548" 
d="M-13 220q70 16 210.5 111t270 206.5t167.5 176.5q-20 12 -48 12q-62 0 -153.5 -52t-184 -129.5t-163.5 -159.5q-88 -101 -99 -165zM-748 -2444q-45 0 -79 48q-49 69 -49 161q0 44 15 84q25 70 92 100q117 62 449 674q250 460 404 785q240 494 478 889q113 192 113 217
q0 9 -7 9q-18 0 -82.5 -46t-183.5 -135q-104 -78 -254 -188q-184 -133 -303 -133q-70 0 -96 49q-12 22 -12 52q0 94 106 237q139 190 442 403q189 131 328 131q56 0 115 -17q39 -12 76 -12q61 0 120 62q21 22 53.5 37t61.5 15q32 0 47 -24q7 -11 7 -27q0 -72 -118 -239
q-125 -180 -398 -664t-529 -969q-299 -565 -308 -630q69 60 226.5 242t319.5 378.5t247 301.5q262 318 512 587q255 275 518 596q38 49 78.5 73.5t67.5 24.5q33 0 33 -25q0 -46 -156 -219q-112 -124 -239 -259q-117 -124 -195 -211q-505 -574 -942.5 -1133.5t-862.5 -1160.5
q-46 -64 -95 -64z" />
    <glyph glyph-name="r" unicode="r" horiz-adv-x="1435" 
d="M354 -270q-120 0 -120 121q0 14 2 30q20 200 82 371q85 219 157 338q221 363 260 472q15 43 15 74q0 48 -36 69q-12 7 -23 7q-29 0 -58.5 -41t-71 -113.5t-106 -171t-161.5 -211.5q-187 -214 -283 -279.5t-125 -65.5q-27 0 -27 29q0 34 27 65q93 94 120.5 122.5
t147.5 170.5t217 283q143 208 165 360q11 100 108 100q52 0 111.5 -29t108.5 -77t72 -106q12 -30 12 -60q0 -29 -11 -58q-37 -89 -301 -578q-71 -132 -124 -276q-4 -11 -33.5 -95t-38.5 -180l-2 -27q0 -69 47 -69q3 0 34.5 2t257 127t416.5 281.5t262 244.5q72 52 113 52
q42 0 45 -65q-23 -47 -371 -341.5t-689 -427.5q-124 -48 -199 -48z" />
    <glyph glyph-name="s" unicode="s" horiz-adv-x="1134" 
d="M-347 -521q-23 0 -43 6q-34 10 -34 40q0 84 277 283l311 220q-83 227 -103 292q-46 146 -46 245q0 78 27 154q33 90 110 186.5t209 217.5q60 55 112 55q43 0 63 -34q10 -18 10 -40q0 -68 -82 -140q-152 -125 -209 -282q-35 -95 -35 -187q0 -27 8.5 -99t56.5 -161
q35 -68 83 -68q32 0 76.5 26t110.5 71q234 165 523 293q88 34 145 34q65 0 65 -31q0 -38 -106 -95q-534 -257 -753 -443q-97 -82 -163 -151q-78 -84 -193.5 -173t-357.5 -208q-25 -11 -62 -11z" />
    <glyph glyph-name="s.ss01" unicode="&#xe259;" horiz-adv-x="1323" 
d="M-181 -379q7 0 34 7t93.5 65.5t114.5 140.5q10 49 10 81q0 56 -33 56q-23 0 -66 -36t-94 -112q-44 -67 -70 -137q-9 -26 -9 -42q0 -23 20 -23zM-260 -546q-37 0 -99 24q-52 20 -52 110q0 17 2 37q11 121 171 311q111 122 157 160q41 37 48 56q4 11 4 33q0 20 -3 48
q-3 47 -6 144q0 45 20 99q53 147 221 328q104 113 217 189q119 80 208 80q84 0 120 -97q5 -18 5 -34q0 -19 -6 -36q-18 -50 -135 -149q-29 -25 -42 -25q-18 0 -18 47q0 57 -27 57q-12 0 -32 -10q-121 -70 -192 -165t-117 -195q-10 -52 -10 -82q0 -48 30 -48q15 0 50 17
t119.5 72.5t207.5 126.5t286 136.5t366 105.5q74 13 126 13q46 0 91 -17t45 -69q0 -21 -7 -40.5t-27 -49t-53 -42.5q-8 -3 -15 -3q-22 0 -31 30q-13 49 -64 49q-19 0 -44 -6q-538 -119 -957 -461q-52 -44 -66 -82q-6 -16 -6 -45q0 -26 17.5 -68t17.5 -100t-57 -139
q-151 -195 -296 -265q-95 -45 -167 -45z" />
    <glyph glyph-name="t" unicode="t" horiz-adv-x="825" 
d="M-77 -356q-76 0 -119 54q-39 49 -39 147q0 92 73 292q66 183 174 410t228 425q157 254 157 334q0 18 -14 36t-71 18t-148 -15q-51 -14 -182 -14l-66 1q-105 8 -105 82q0 11 4 22q18 46 65 52q428 16 548.5 34t157.5 83q326 541 368 601q49 64 103 64q29 0 50 -21
q25 -26 25 -73q0 -78 -74 -191q-28 -42 -70 -101q-64 -93 -130 -192t-85 -153q82 -27 190 -27q302 24 446 44q75 12 122 12q30 0 46 -8q11 -6 11 -23q0 -7 -2 -15q-15 -39 -77 -64t-147.5 -39.5t-285.5 -34t-274 -22t-117 -3t-61.5 -17t-40.5 -60.5q-20 -39 -59 -110
q-69 -127 -167.5 -313.5t-194.5 -386t-152 -354.5q-52 -143 -52 -212q0 -18 3 -31q19 -57 69 -57q59 0 150 63t192 158t195.5 196t164 181.5t95.5 112.5t63 55t61 23q22 0 22 -20q0 -81 -297 -384q-417 -424 -585 -510q-95 -49 -168 -49z" />
    <glyph glyph-name="u" unicode="u" horiz-adv-x="1405" 
d="M-72 -38q-12 0 -21 3q-56 17 -71 96q-4 19 -4 41q0 70 38 174q63 174 225 394l28 25q30 29 59 50.5t57 21.5q41 0 41 -38q0 -47 -112 -215q-41 -61 -79.5 -123t-58.5 -118q-16 -43 -16 -70q0 -47 48 -47q42 0 102.5 31.5t109.5 69.5q113 90 295 279q148 153 215 204
q43 33 71 33q7 0 14 -3q20 -11 20 -42q0 -45 -33 -133l-49 -133q-40 -108 -40 -157q0 -24 10.5 -49t61.5 -25q111 0 431 189q43 26 78 50q49 34 87 52q62 27 91 27q27 0 27 -19q0 -27 -46 -74q-71 -73 -305 -205q-124 -70 -215 -107q-164 -62 -252 -62q-74 0 -105 34
q-43 44 -43 148q0 26 3 57q4 41 4 59q0 12 -2 12q-5 0 -19 -20q-19 -25 -65 -71q-143 -134 -321 -236.5t-259 -102.5z" />
    <glyph glyph-name="v" unicode="v" horiz-adv-x="1100" 
d="M-61 -281q-39 0 -68 32q-46 54 -46 119q0 2 1.5 37t31.5 118q13 37 78 193q48 133 74 444q20 49 54 71.5t68 22.5q40 0 70 -28.5t30 -80.5q-2 -60 -26.5 -145t-56 -177t-55.5 -175.5t-28 -144.5q60 26 181 156t217.5 244t132.5 167q54 79 113 79q11 0 21 -2
q76 -13 368 -26q124 -17 124 -83q0 -18 -13 -47q-16 -44 -80 -44q-40 0 -85 12q-32 8 -103 8l-66 -1q-78 -3 -109 -3q-18 0 -19 1q-39 0 -94 -50q-87 -78 -232 -251q-162 -203 -259 -303q-139 -143 -224 -143z" />
    <glyph glyph-name="w" unicode="w" horiz-adv-x="1928" 
d="M726 -367q-115 0 -159 151q-28 90 -28 208q0 36 3 74l-10 1q-34 0 -94 -40t-136 -97q-69 -52 -142.5 -102.5t-144 -85t-128.5 -34.5q-98 0 -134 119q-7 26 -7 59q0 86 49 221q43 119 105.5 239t115 205.5t70.5 106.5q77 21 121 21q65 0 65 -50q0 -48 -61 -146
q-37 -58 -80 -123q-134 -200 -171 -300q-19 -55 -19 -93q0 -26 11.5 -49.5t41.5 -23.5q47 0 127 49q222 138 638 548q30 30 33 32q67 43 94 43q26 0 26 -29q0 -39 -42 -153q-66 -177 -92 -266q-31 -105 -31 -184q0 -113 50 -113q59 0 171.5 90t216.5 211.5t139 215.5
q12 33 12 58q0 32 -19 50q-80 77 -80 138q0 56 54 83q36 18 78 18q36 0 68.5 -15t50.5 -45q70 -121 210 -121q73 0 209 38q83 23 112 23q34 0 34 -20q0 -35 -77 -89q-64 -45 -147 -63q-210 -35 -265 -47.5t-75 -30t-36.5 -51.5t-56.5 -94q-102 -148 -401 -401
q-163 -136 -269 -136z" />
    <glyph glyph-name="x" unicode="x" horiz-adv-x="1509" 
d="M-483 -978q-41 0 -72 19q-42 26 -42 85q0 130 194 391q286 378 389 494q42 51 64 79q31 39 31 64q0 19 -12 46q-55 118 -55 427v48q0 146 37 272q36 97 113 97q67 0 84 -76q11 -49 11 -132q0 -87 -12 -212q-10 -132 -10 -185q0 -104 36 -104q21 0 58 36q76 74 280 257.5
t452 396t452.5 373t280.5 187.5q27 8 44 8q39 0 39 -32q0 -67 -135 -199q-104 -102 -231 -158q-65 -29 -238.5 -161.5t-378.5 -306.5t-365 -330q-187 -183 -187 -239q0 -5 2 -9q84 -141 241 -141q167 0 413 152q165 101 396 282q145 116 208 147q18 5 41 5q22 0 43 -5
q38 -9 38 -34q0 -46 -120 -126q-68 -48 -161 -119q-252 -194 -442 -307q-276 -163 -477 -163q-171 0 -277 113q-14 16 -32 29t-58 13q-112 -124 -242 -291q-190 -244 -243 -392q-19 -50 -19 -86q0 -44 29 -66q24 -20 24 -41q0 -40 -73 -77q-59 -29 -118 -29z" />
    <glyph glyph-name="y" unicode="y" horiz-adv-x="1971" 
d="M-433 -1642l3 1q52 23 255 332q218 330 242 411q-96 -84 -202 -226.5t-189 -282.5q-113 -189 -113 -227q0 -7 4 -8zM-648 -2065q-61 0 -77 76q-4 17 -4 38q0 72 43 189q61 166 203 389q268 418 447 597q77 77 139 129q80 65 164.5 161.5t210.5 312t329 635.5q26 54 26 77
q0 20 -18 20q-30 0 -101.5 -47.5t-162.5 -113.5q-129 -94 -254 -173q-139 -83 -224 -83q-58 0 -87 32q-45 49 -45 142q0 20 2 42q19 91 41 152q90 213 209 213q85 0 85 -67q0 -37 -33 -109q-28 -62 -61 -158q-16 -43 -16 -64q0 -20 14 -20q16 0 51 24q84 57 170 112
q170 108 331 228.5t296 278.5q57 66 120 66q34 0 52 -23q10 -12 10 -31q0 -16 -7 -36q-165 -380 -373 -748q-111 -198 -111 -230q0 -15 13 -15q24 0 93 43t195 130q178 124 511 296q387 200 527 200q31 0 48 -12q9 -14 9 -28q0 -41 -65 -84q-91 -60 -247 -115
q-101 -36 -109 -36v-1l-7 -1v-1q-2 0 -33 -9q-209 -94 -454 -236q-585 -337 -801 -702q-175 -307 -435 -721q-345 -546 -480 -659q-80 -60 -134 -60z" />
    <glyph glyph-name="z" unicode="z" horiz-adv-x="1474" 
d="M-568 -1462q48 34 356 355q289 302 364 388q34 38 139 176q41 54 46 70q-107 -127 -320 -331q-176 -170 -342.5 -345.5t-242.5 -312.5zM-759 -1732q-40 0 -60 39q-9 17 -9 40q0 74 76 181q216 295 477.5 556.5t487.5 466.5q158 144 264 249.5t134 164.5q18 41 18 66
q0 47 -55 47q-56 0 -150.5 -40t-201.5 -96.5t-204 -110.5q-154 -87 -210 -108q-19 0 -34 7q-19 9 -19 28q0 47 116 148q166 143 275 256q256 266 256 391q0 53 -53 53q-49 0 -136 -63t-130 -102q-99 -89 -167 -89q-40 0 -40 31q0 50 185 208q221 189 361 189q67 0 103 -41
q38 -45 38 -126q0 -134 -110 -287q-44 -62 -44 -83q0 -19 27 -19q25 0 66 9q71 15 126 15q45 0 87 -14q48 -17 86 -77q14 -20 24 -31.5t23 -11.5q18 0 50.5 22.5t93.5 70.5q423 338 532 338q50 0 50 -46q0 -12 -5 -25q-11 -30 -37.5 -49t-69.5 -42q-58 -30 -146 -92
q-47 -18 -190.5 -127.5t-298.5 -251.5t-240 -259q-129 -184 -365 -462.5t-490.5 -534.5t-434.5 -371q-30 -17 -56 -17z" />
    <glyph glyph-name="braceleft" unicode="{" horiz-adv-x="1359" 
d="M-445 -1790q-124 0 -215 76q-71 58 -71 194q0 41 7 90q30 208 174 476q241 438 559 803q131 151 234 261q224 235 224 300q0 38 -51 67.5t-281 36.5q-31 2 -43 27q-9 18 -9 37q0 45 38 75q196 149 418.5 410.5t455.5 582t458 644.5q230 330 433 606.5t359 440.5
q153 158 250 158q219 -34 219 -238q0 -51 -19 -106q-15 -40 -38 -63q-14 -13 -26 -13q-23 0 -41 46q-30 101 -41 126q-20 44 -54 44q-28 0 -72 -38q-234 -207 -461.5 -503.5t-445.5 -612.5q-329 -474 -588 -800q-138 -173 -283 -348q-110 -132 -256 -311q198 -76 256 -141
q24 -28 24 -66q0 -24 -11 -54.5t-62 -109t-267 -324.5q-150 -173 -365 -434q-146 -179 -260 -373q-112 -190 -174 -359l-34 -93q-25 -69 -25 -157q0 -24 6 -96.5t107 -102.5q24 -7 55 -7q97 0 258 70q249 110 335 110q42 0 42 -20q0 -5 -2.5 -12t-25.5 -38.5t-151.5 -104
t-317.5 -124.5q-128 -32 -222 -32z" />
    <glyph glyph-name="bar" unicode="|" horiz-adv-x="818" 
d="M-316 -851q-15 0 -37.5 17t-22.5 112q0 116 52 259q20 55 47 109q66 172 600 1215q183 356 262 516q154 316 243.5 524.5t203.5 504.5q44 103 110 103q33 0 61 -40q20 -29 20 -87q0 -25 -4 -56q-14 -102 -100 -254q-76 -130 -347.5 -662t-545.5 -1081
q-334 -671 -359 -740q-9 -25 -9 -57q0 -33 10 -73q10 -35 10 -73q0 -24 -4 -50q-12 -66 -108 -147q-50 -40 -82 -40z" />
    <glyph glyph-name="braceright" unicode="}" horiz-adv-x="1969" 
d="M-847 -1806q-119 0 -119 61v6q0 44 97 72q228 57 438.5 202t385.5 343t297 416q118 209 171 420q98 426 210 567q45 57 81 84q57 44 76 98q7 20 13 47q60 246 266 586q152 252 402.5 558.5t519 579.5t502.5 470q300 247 300 335q0 67 -137 100.5t-243 33.5q-6 0 -65 -1.5
t-139.5 -22.5t-134.5 -43q-64 -25 -93 -25t-39 41q-4 21 -4 40q0 114 174 153q105 23 239 23l45 -1q19 2 41 2q64 0 165.5 -16t205.5 -62.5t142 -125.5q12 -24 12 -53q0 -28 -12 -60q-36 -98 -217 -274q-99 -96 -221 -203q-175 -153 -392 -369q-519 -515 -1016 -1330
q-58 -96 -80 -156q-16 -42 -16 -78q0 -63 117 -68q103 -2 103 -60q0 -24 -14 -62q-36 -86 -91 -113t-120 -36q-57 -8 -113 -30q-111 -43 -171 -208q-11 -32 -22 -70q-57 -225 -127 -417q-23 -64 -85 -216t-242 -379t-501 -481q-359 -278 -589 -278z" />
    <glyph glyph-name="asciitilde" unicode="~" horiz-adv-x="1476" 
d="M1035 800q-41 0 -71 20q-60 41 -103 110q-81 131 -179 131q-28 0 -62 -8q-94 -22 -258 -150q-76 -58 -121 -58q-59 0 -59 72q0 26 11 56q45 123 199 214q107 64 277 87q34 3 64 3q157 0 218 -86q30 -44 46 -88q34 -99 100 -99q33 0 84 18q94 34 287 164q48 30 93 30
q74 0 74 -56q0 -12 -3 -22q-46 -126 -495 -316q-58 -22 -102 -22z" />
    <glyph glyph-name="exclamdown" unicode="&#xa1;" horiz-adv-x="1295" 
d="M808 657q31 0 77 -21.5t78 -86.5q17 -35 17 -83q0 -41 -12 -91q-49 -348 -666 -1415q-272 -471 -570 -949q-536 -858 -968 -1496q-66 -89 -137 -89q-63 0 -83 59q-4 12 -4 26q0 59 65 149q464 607 808 1142q378 589 792 1287q373 603 498 944q46 127 77 280q12 58 12 114
q0 92 -33 178q-4 10 -4 19q0 33 53 33zM1270 1467q27 0 50 -14q125 -82 125 -132q0 -36 -79 -111l-23 -24q-50 -52 -99.5 -88.5t-100.5 -42.5q-50 -12 -84 -12q-48 0 -75 33q-13 16 -13 42q0 29 16 72q26 71 84.5 144t127.5 112q37 21 71 21z" />
    <glyph glyph-name="cent" unicode="&#xa2;" horiz-adv-x="2782" 
d="M333 -235q33 0 101 12.5t113 80.5q143 241 296 493q190 310 373.5 623t340.5 621q6 16 6 24q0 20 -25 20q-15 0 -68.5 -16t-212 -111.5t-348.5 -240.5q-440 -338 -679 -677q-126 -180 -163 -350l-7 -21q-38 -104 -38 -184q0 -181 166 -246q73 -28 145 -28zM261 -1267
q-21 0 -51 39q-38 52 -38 131q0 19 6.5 81.5t59.5 208.5q36 99 74 189q66 158 74 219q-9 2 -40 4q-191 0 -338 73q-179 89 -179 306q0 49 9 104q25 167 173 430q161 272 458.5 558t610.5 498.5t521 264.5q122 32 227 238q45 90 86 186q55 131 112 228q63 107 136 107
q59 0 59 -55q0 -61 -56 -186q-48 -106 -186 -330q-60 -97 -60 -108q0 -24 108 -53q63 -16 131 -44q145 -61 145 -189q0 -96 -104 -250q-121 -170 -235.5 -267t-200.5 -134q-64 -28 -96 -28q-31 0 -31 16q0 4 2 9q7 19 90 91q397 340 397 493q0 26 -11.5 69t-168.5 69
q-30 5 -56 5q-52 0 -94 -25.5t-86 -107.5l-153 -260q-804 -1339 -813 -1460q71 24 615 271q676 309 1000 444q298 124 357 124q13 0 13 -7q0 -13 -36 -44q-136 -107 -533.5 -304t-811 -381.5t-598.5 -255.5q-143 -59 -223 -185q-58 -90 -95 -192q-50 -137 -88 -362
q-24 -136 -39 -178q-19 -50 -43 -50z" />
    <glyph glyph-name="sterling" unicode="&#xa3;" horiz-adv-x="2669" 
d="M-358 -1143q-33 0 -33 42q0 35 24 101q73 202 272 374q308 272 810 1063q211 334 389 628q110 180 196 318q16 28 16 46q0 23 -28 29.5t-77 6.5q-33 0 -74 -3q-52 -3 -110 -3l-122 2q-71 0 -118.5 -10t-71.5 -30.5t-35 -40.5t-28 -34.5t-54 -19.5q-12 -2 -28 -2
q-33 0 -93 8q-192 25 -223 77q-14 22 -14 46q0 113 230 127q172 9 347 28q282 30 447 30q51 0 101 -2q56 0 84 18.5t71 89.5q109 168 227 355q194 309 408.5 632t446 618t476.5 518q137 119 271 119q109 0 188.5 -71.5t92.5 -202.5q2 -19 2 -38q0 -113 -75 -255
q-14 -24 -19 -24t-6 48v18q0 253 -167 341q-24 10 -52 10q-81 0 -216.5 -105t-322 -328.5t-377.5 -493.5t-356.5 -527.5t-279 -446t-145.5 -249.5q63 -40 213 -40q170 0 522 50q266 38 357 38q19 0 56 -3q33 -3 33 -25q0 -41 -116 -75q-182 -55 -561 -92q-273 -27 -446 -35
q-103 -3 -177.5 -55t-134.5 -154q-278 -466 -513 -827.5t-539 -800.5q19 -16 70 -16q60 0 221.5 23.5t385.5 40.5q113 9 237 9t260 -9q91 -5 180 -5l156 2q84 0 154 -7q62 -7 62 -39q0 -7 -3 -16q-21 -59 -105.5 -83.5t-219.5 -25.5q-176 0 -303 4q-152 6 -316 6
q-41 0 -166.5 -1t-328.5 -34q-454 -75 -674 -367q-199 -270 -278 -270z" />
    <glyph glyph-name="yen" unicode="&#xa5;" horiz-adv-x="3560" 
d="M339 -3520q-39 0 -72 27q-82 79 -82 238q0 270 248 808q128 279 405 774q91 160 91 200q0 10 -7 19.5t-42 9.5q-45 0 -131 -21q-229 -51 -435.5 -118.5t-375.5 -129.5q-324 -122 -410 -122q-59 0 -59 46q0 138 901 383q432 116 577 139q99 18 162.5 105t136.5 235
q39 77 88 168q-355 -64 -589 -144t-398 -153q-153 -68 -288 -109q-120 -37 -258 -37l-33 1q-47 3 -67 32q-9 13 -9 28q0 18 22 52q14 23 94 49q679 209 1227 337q202 46 296 79t141.5 94t109.5 190q139 287 378 657q159 240 482 753q391 626 391 698v2q-89 -73 -389 -387
q-587 -611 -1007 -1004q-647 -606 -1052 -816q-176 -91 -301 -91q-36 0 -123 19.5t-113 253.5q-2 28 -2 59q0 214 103 551q49 160 111 330q88 241 241.5 595t364.5 767t379.5 695t236.5 335q55 39 83 39q32 0 32 -47q0 -55 -43 -174q-35 -98 -92.5 -216.5t-115.5 -213.5
q-65 -105 -89 -105q-9 0 -9 21q0 28 17 96q-21 -10 -118 -176t-234 -434t-279.5 -583t-259.5 -637q-179 -492 -179 -754q0 -97 25 -163q39 -100 156 -100q36 0 79 9q173 47 497 298q590 459 1482 1356q378 379 662 682.5t393 436.5q47 63 133 202q169 274 271 396
q80 95 128 95q36 0 52 -69l1 -9q0 -22 -12 -52q-40 -110 -333 -487q-102 -133 -207 -276q-201 -272 -932 -1448q-385 -618 -692 -1171q-39 -67 -39 -104q0 -29 28 -34q13 -2 31 -2q67 0 207 33t344 64q181 27 462 27q91 -4 91 -67q0 -23 -26 -67q-40 -65 -635 -311
q-313 -129 -539 -175q-35 -6 -52 -6q-13 0 -13 4q0 5 27 23q50 34 433 195q167 71 311 135q219 96 219 119q0 8 -24 8q-17 0 -289 -36q-268 -33 -420.5 -58t-230 -59.5t-119.5 -96t-88 -168.5q-34 -73 -84 -173q-2 -4 -2 -8q0 -38 146 -38q95 0 225.5 6t252.5 6q31 0 121 -1
t157 -38q30 -16 30 -44q0 -35 -45 -86q-42 -46 -62 -47q-24 0 -42.5 18t-54.5 34q-30 13 -105 13q-179 -12 -304 -18q-223 -9 -327 -27t-155 -77.5t-115 -194.5q-38 -76 -97 -184q-11 -21 -70 -141q-328 -664 -467 -1081q-38 -115 -38 -193q0 -58 37 -58q13 0 57.5 17.5
t216.5 204.5q68 72 88 72q10 0 10 -14q0 -15 -12 -46q-10 -27 -43.5 -93t-111.5 -167t-163 -153q-43 -26 -80 -26z" />
    <glyph glyph-name="brokenbar" unicode="&#xa6;" horiz-adv-x="818" 
d="M-147 1145.08q-15 0 -37.5 7.30957q-22.5 7.31055 -22.5 48.1592q0 49.8799 52 111.368q20 23.6494 47 46.8691q66 73.959 600 522.441q183 153.077 262 221.876q154 135.878 243.5 225.531t203.5 216.932q44 44.2891 110 44.2891q33 0 61 -17.1992
q20 -12.4707 20 -37.4102q0 -10.749 -4 -24.0791q-14 -43.8594 -100 -109.218q-76 -55.8994 -347.5 -284.655q-271.5 -228.757 -545.5 -464.822q-334 -288.525 -359 -318.194q-9 -10.75 -9 -24.5098q0 -14.1904 10 -31.3896q10 -15.0498 10 -31.3896q0 -10.3193 -4 -21.5
q-12 -28.3789 -108 -63.208q-50 -17.2002 -82 -17.2002zM-302 -882.924q-15 0 -37.5 7.30957q-22.5 7.31055 -22.5 48.1592q0 49.8799 52 111.368q20 23.6494 47 46.8691q66 73.959 600 522.441q183 153.077 262 221.876q154 135.878 243.5 225.531t203.5 216.932
q44 44.2891 110 44.2891q33 0 61 -17.1992q20 -12.4707 20 -37.4102q0 -10.749 -4 -24.0791q-14 -43.8594 -100 -109.218q-76 -55.8994 -347.5 -284.655q-271.5 -228.757 -545.5 -464.822q-334 -288.525 -359 -318.194q-9 -10.75 -9 -24.5098q0 -14.1904 10 -31.3896
q10 -15.0498 10 -31.3896q0 -10.3193 -4 -21.5q-12 -28.3789 -108 -63.208q-50 -17.2002 -82 -17.2002z" />
    <glyph glyph-name="section" unicode="&#xa7;" horiz-adv-x="1715" 
d="M-1314 -1771q-44 0 -46 33q0 98 474 378q619 358 682 489q-122 20 -193 33q-115 21 -326 72q-114 25 -162 120q-32 62 -32 136q0 155 120 300q235 278 551 548.5t635 442.5q88 44 149 44q22 0 66.5 -14t71.5 -80q21 -50 21 -104q0 -49 -15 -93q-31 -85 -91 -85
q-19 0 -42 9q-23 12 -23 64v9q0 29 -9 50t-40 21q-7 0 -32.5 -3t-124.5 -56q-313 -174 -534 -363t-344 -357q-95 -129 -129 -223q-10 -29 -24 -96q-2 -9 -2 -17q0 -53 76 -66q9 -2 21 -2q87 0 263 104q54 31 225 109q452 205 782 392q476 268 583 477q23 47 23 89
q0 65 -53 123q-95 89 -230 168q-110 66 -205.5 143t-138.5 180q-21 49 -21 107q0 64 25 139q56 152 225 345q157 172 437 380.5t578.5 380.5t507.5 236q83 22 147 22q90 0 159 -59q53 -45 53 -140q0 -80 -31 -162q-110 -303 -477 -496q-14 -7 -38 -7q-31 0 -31 20
q0 14 20 46q13 21 80 79q138 118 218 243q68 107 68 182q0 14 -2 26q-10 70 -110 70q-17 0 -94.5 -8t-369.5 -169q-320 -180 -613 -400q-420 -314 -511 -566q-19 -53 -19 -103q0 -82 54 -155q37 -47 95 -92t125 -92q109 -74 204 -158q141 -125 141 -262q0 -50 -19 -101
q-11 -31 -55.5 -114t-269 -254t-646.5 -389l-313 -160q-250 -125 -351 -181q-96 -53 -96 -69q0 -3 2.5 -11.5t73.5 -17.5q264 -40 264 -128q0 -12 -5 -25q-6 -18 -42 -70t-172 -160q-300 -237 -935 -608q-74 -44 -112 -68q-46 -26 -91 -26z" />
    <glyph glyph-name="dieresis" unicode="&#xa8;" horiz-adv-x="1091" 
d="M1123 1820q-52 0 -95 48q-15 20 -15 46q0 63 65 114q42 33 105 33q119 -14 119 -82q0 -44 -50 -101q-34 -39 -102 -55q-14 -3 -27 -3zM723 1787q-25 0 -47 16q-66 54 -66 133q0 25 9 48q3 8 16 32.5t52 24.5q117 -2 148 -47q19 -28 19 -59q0 -19 -7 -39q-2 -4 -14 -33.5
t-61 -60.5q-26 -15 -49 -15z" />
    <glyph glyph-name="copyright" unicode="&#xa9;" horiz-adv-x="3349" 
d="M987 -233q-60 0 -144.5 19.5t-124.5 135.5q-13 38 -13 90q0 104 54 261q75 167 238 373t365.5 395.5t393.5 305.5q172 104 295 104l27 -1q129 -23 129 -127q0 -58 -25 -126q-18 -51 -73.5 -148t-167.5 -225.5t-216 -206.5q-84 -64 -132 -64q-10 0 -19 3q-43 22 -43 66
q0 20 9 45q14 38 36 49q65 27 153.5 108.5t165.5 177.5q87 108 113 181q8 21 8 36q0 34 -41 34q-54 0 -202 -84q-208 -122 -394.5 -307.5t-314.5 -378.5q-91 -138 -133 -254q-17 -46 -37 -142q-4 -16 -4 -31q0 -73 85 -114q33 -16 84 -16q142 0 450 138q119 56 158 56
q31 0 48 -27q3 -5 3 -11q0 -29 -83 -90q-72 -53 -209.5 -114.5t-286.5 -93.5q-81 -17 -152 -17zM466 -827q274 0 618 133q404 161 859.5 449.5t783.5 587.5q257 242 345 484q0 2 44 124q23 64 23 154q0 82 -29.5 242.5t-155 327t-295.5 255.5q-145 76 -291 76q-24 0 -48 -2
q0 -8 20 -39q64 -101 64 -165q0 -55 -49 -89q-15 -10 -24 -10q-14 0 -24 28q-36 102 -217 162q-103 29 -196 29q-178 0 -358 -101q-112 -63 -193 -122q-86 -64 -132 -78q-104 -26 -301.5 -206.5t-417.5 -451t-391 -567.5q-233 -402 -233 -707q0 -210 112 -334
q163 -180 486 -180zM447 -994l-31 1h-33q-339 0 -520 181q-167 167 -167 457q0 345 260 788q96 160 250 367q351 473 744 826q465 416 823 467q16 2 65 20q228 68 430 68q110 0 306.5 -38t396.5 -213t284 -425q50 -148 50 -307q0 -110 -24 -225q-61 -284 -288 -551
q-201 -229 -534 -478.5t-716 -466.5t-734 -348q-330 -123 -562 -123z" />
    <glyph glyph-name="guillemotleft" unicode="&#xab;" horiz-adv-x="1673" 
d="M697 236q-11 0 -22 2q-45 25 -87 28q-17 1 -36 1q-25 0 -52 -2.5t-60 -2.5q-42 0 -112 7t-206 66q-118 57 -118 146q0 39 16 82q76 210 565 570q190 139 312 222q53 38 106 78q83 63 159 114q111 74 164 74q30 0 46 -25q6 -14 6 -29q0 -16 -6 -33q-11 -29 -56 -79.5
t-132 -111t-135.5 -84.5t-180.5 -110q-354 -230 -552 -422q-105 -103 -114 -178q6 -97 173 -106q52 -4 108 -4l92 2q55 0 114.5 -4t99.5 -28q41 -28 41 -63q0 -11 -5 -23q-14 -38 -54 -64q-35 -23 -74 -23zM1339 337q-83 0 -287 97q-83 38 -176 76q-54 21 -83 73
q-21 37 -21 81q0 94 93 197q107 109 277 235q478 357 531 357q21 0 51 -19q18 -12 18 -38q0 -17 -7 -40q-65 -72 -328 -256q-128 -89 -242 -176q-199 -151 -199 -213q0 -48 240 -122q87 -28 156 -57q105 -46 105 -97q0 -25 -27 -56q-40 -42 -101 -42z" />
    <glyph glyph-name="registered" unicode="&#xae;" horiz-adv-x="3335" 
d="M1212 286q49 5 178 101t282.5 235.5t273.5 276t152 223.5q7 19 7 33q0 45 -69 45l-22 -1q-142 -19 -251.5 -110.5t-202.5 -230.5t-211 -349q-25 -40 -55 -78q-69 -85 -82 -145zM442 -712q-1 0 -23.5 0.5t-27.5 53.5v6q0 23 12 58q31 83 455 772q444 720 625 898
q119 116 181 226.5t95 198.5q29 73 57 118q31 49 82 49q77 0 77 -80q0 -54 -58 -217l38 -2q94 -2 184.5 -21.5t121.5 -88.5q8 -19 8 -43q0 -67 -62 -178q-156 -263 -510 -559q-148 -123 -269 -216q-212 -164 -212 -191q0 -11 21 -11q12 0 29 3q255 43 419 43q247 0 322 -73
q29 -29 29 -55q0 -8 -2 -15q-22 -54 -109 -54q-17 0 -37 2q-81 14 -270 14q-351 0 -590 -53q-144 -32 -194 -92q-92 -128 -180 -268q-115 -179 -138 -200q-33 -25 -74 -25zM353 -1266q94 0 286.5 39t555.5 286q685 470 1204 966q634 607 873 1181q14 40 26 128q6 46 6 95
q0 44 -7.5 116.5t-61.5 133.5q-163 161 -467 232q-213 49 -447 49q-100 0 -326 -20q-270 -24 -609 -213q-182 -102 -230 -102q-24 0 -24 15q0 26 89 101q76 64 252 157.5t401.5 161.5t468.5 69q-33 206 -198 277q-77 34 -171 34q-105 0 -285 -60.5t-427 -302.5
q-330 -336 -630 -791.5t-517.5 -928t-296.5 -861.5q-18 -95 -18 -181q0 -381 297 -527q110 -54 256 -54zM291 -1419q-172 0 -342 81.5t-252 301.5q-43 113 -43 272q0 353 210 931q68 187 182.5 411.5t348.5 593.5q212 332 405 573q301 376 570 625q58 55 69 70t86.5 51.5
t187.5 70.5q145 44 273 44q99 0 187 -34q126 -56 184 -118t74 -122.5t17.5 -109t14.5 -78.5t63 -33q208 -10 404.5 -63t339 -160.5t190.5 -278.5q17 -60 17 -130q0 -127 -57 -286q-264 -606 -905 -1235q-544 -534 -1243 -1006q-421 -280 -746 -346q-126 -25 -235 -25z" />
    <glyph glyph-name="macron" unicode="&#xaf;" horiz-adv-x="1864" 
d="M314 1102q-17 0 -84 0.5t-87 18.5q-20 25 -20 53q0 27 18 56q32 54 363 54h65q127 -3 213 -3q133 0 195 8.5t224 17.5t163 10q185 -6 212 -106q2 -7 2 -14q0 -84 -304 -84l-461 3q-93 0 -245 -9q-147 -5 -254 -5z" />
    <glyph glyph-name="degree" unicode="&#xb0;" horiz-adv-x="943" 
d="M1117 2473q5 0 34 5.5t109.5 69t143.5 139.5t63 121q0 37 -52 37q-23 0 -55.5 -7.5t-86.5 -48.5q-128 -98 -179 -239q-5 -23 -5 -40q0 -37 28 -37zM986 2275q-74 0 -102 66q-12 36 -12 79q0 73 35 168.5t112.5 201.5t208.5 176q167 82 266 82q11 0 66.5 -6t82.5 -82
q11 -32 11 -70q0 -52 -21 -114q-49 -109 -156.5 -218.5t-232.5 -186.5q-154 -96 -258 -96z" />
    <glyph glyph-name="plusminus" unicode="&#xb1;" horiz-adv-x="1459" 
d="M265 -203q-35 0 -35 45q0 105 187 445q110 189 110 264q0 46 -45.5 72.5t-155.5 40.5q-256 30 -256 107q0 45 71 84q20 11 26 11q229 -10 340 -33q65 -13 112 -13q25 0 62 7t92 86t156 264q114 305 290 385q36 16 56 16q24 0 24 -24q0 -55 -117 -226q-198 -291 -234 -390
q-10 -39 -10 -55q0 -50 54 -50q209 -15 315 -15q53 0 81 4q21 3 38 3q48 0 61 -22q7 -16 7 -30q0 -67 -189 -112q-72 -17 -165 -17q-39 0 -82 3q-31 2 -59 2q-103 0 -173.5 -30t-99.5 -79l-289 -531q-114 -212 -172 -212zM213 -466q-17 0 -84.5 0.5t-86.5 18.5
q-20 26 -20 54q0 23 17 55q33 54 364 54h65q127 -3 213 -3q133 0 194.5 8.5t224 17.5t162.5 10q186 -6 213 -106q2 -7 2 -13q0 -85 -304 -85l-461 3q-93 0 -245 -9q-147 -5 -254 -5z" />
    <glyph glyph-name="acute" unicode="&#xb4;" horiz-adv-x="489" 
d="M588 1643q-20 0 -35.5 12.5t-15.5 27.5q0 7 3 14q21 58 124 144q221 228 292 243q3 0 21.5 -2t26.5 -26q4 -11 4 -23q0 -15 -6 -31q-360 -359 -414 -359z" />
    <glyph glyph-name="periodcentered" unicode="&#xb7;" horiz-adv-x="800" 
d="M393 1017q-29 0 -44 31q-8 19 -8 41q0 26 11 55q6 17 30.5 63.5t96.5 85.5q29 14 58 14l13 -1q115 -24 121 -137q-29 -34 -40 -43q-81 -64 -216 -105q-12 -4 -22 -4z" />
    <glyph glyph-name="periodcentered" unicode="&#x2219;" horiz-adv-x="800" 
d="M393 1017q-29 0 -44 31q-8 19 -8 41q0 26 11 55q6 17 30.5 63.5t96.5 85.5q29 14 58 14l13 -1q115 -24 121 -137q-29 -34 -40 -43q-81 -64 -216 -105q-12 -4 -22 -4z" />
    <glyph glyph-name="cedilla" unicode="&#xb8;" horiz-adv-x="570" 
d="M-279 -532q-46 0 -69 48q-5 11 -5 25q0 42 41 102q54 80 128 80q83 0 132 31q53 25 113 141q26 51 26 94q0 19 -5 38q1 14 5 26q13 37 72 37q13 0 28 -1.5t38 -41.5q8 -15 8 -39q0 -41 -23 -108q-18 -39 -43 -85q-70 -126 -227 -239q-149 -108 -219 -108z" />
    <glyph glyph-name="guillemotright" unicode="&#xbb;" horiz-adv-x="1532" 
d="M-191 38q-16 0 -24 7q-17 18 -17 41q0 12 5 26q8 21 46 67t152.5 130t254.5 177q143 96 276 193t218 187q7 23 7 45q0 54 -50.5 115t-132.5 128q-61 50 -107 98q-51 52 -51 97q0 46 57 87q23 14 51 14q85 0 222 -134q250 -250 250 -363q0 -28 -10 -55q-8 -23 -49 -83
t-201 -173l-143 -109q-286 -222 -465 -344q-220 -151 -289 -151zM352 22q-36 0 -36 30q0 26 47 79q55 64 367 289q147 106 298.5 222.5t272.5 234.5q53 55 53 100l-1 22q-5 54 -153 141q-171 97 -171 181q0 21 8 44q24 64 75 64q99 0 267 -154q109 -101 171 -177
q28 -33 28 -75q0 -54 -53 -141q-94 -99 -274.5 -252t-380.5 -302.5t-353 -238.5q-114 -67 -165 -67z" />
    <glyph glyph-name="questiondown" unicode="&#xbf;" horiz-adv-x="2635" 
d="M1595 825q111 0 152 -165q9 -37 9 -78q0 -240 -258 -506q-241 -235 -565 -459t-651 -429q-242 -152 -445 -290q-420 -282 -477 -439q-4 -12 -16 -64l-1 -10q0 -48 115 -110t413 -95q285 -46 513 -46q77 0 252 13t363 81t293 153q120 96 149 177q8 22 8 37q0 23 -18 32
q-160 87 -160 129q0 30 100 30q117 0 188 -58q57 -46 57 -126q0 -48 -16 -92q-89 -243 -541 -438q-203 -80 -480 -94q-94 -4 -188 -4q-181 0 -404 20.5t-399 54.5q-126 22 -233.5 74t-157.5 137q-26 44 -26 96q0 46 20 99q1 5 25.5 66.5t204.5 216.5q182 153 412 310
t476 316q270 173 519 344.5t435 336.5q316 279 316 492q0 65 -28 127q-8 17 -21 34q-25 34 -25 58q0 22 27 46q31 23 63 23zM1894 1593h12q53 0 78 -31q13 -15 13 -38q0 -30 -21 -71q-50 -86 -132 -120q-49 -21 -91 -21q-29 0 -73 17q-37 14 -37 80l1 25q46 75 116.5 115.5
t133.5 43.5z" />
    <glyph glyph-name="circumflex" unicode="&#x2c6;" horiz-adv-x="599" 
d="M517 1596q-18 0 -31 17q-6 11 -6 24q0 34 34 63q32 25 267 175q36 25 60 25q44 0 96 -92q11 -26 21 -53.5t17.5 -37t19.5 -37.5q3 -6 3 -12q0 -24 -32 -47q-31 -18 -49 -18q-10 0 -38 -5q-29 0 -41.5 46t-20.5 64q-11 24 -40 24q-27 0 -46.5 -10.5t-49.5 -33.5
q-42 -32 -122 -77q-24 -15 -42 -15z" />
    <glyph glyph-name="caron" unicode="&#x2c7;" horiz-adv-x="462" 
d="M570 1597q-31 0 -54 37t-23 111l-1 47q0 55 6 72q8 23 35 39q11 7 23 7q25 0 53 -20q13 -27 13 -60l-1 -13q11 -89 24 -89q11 0 32 17q75 39 138 112q12 14 26 28q21 21 43 21q12 0 23 -6q22 -11 22 -33q0 -10 -4 -22q-21 -33 -31 -44q-111 -104 -202.5 -154t-121.5 -50z
" />
    <glyph glyph-name="uni02C9" unicode="&#x2c9;" horiz-adv-x="829" 
d="M1009 1805l-384 5q-68 0 -87 18q-31 39 -34 61q5 12 12 25q30 49 249 49h42q216 -4 256 -4q48 5 84 5q125 0 151 -55q3 -7 3 -14q0 -83 -292 -90z" />
    <glyph glyph-name="breve" unicode="&#x2d8;" horiz-adv-x="631" 
d="M661 1508q-52 0 -129.5 19.5t-92.5 65.5q-7 22 -7 43q0 23 8 45q41 86 92 86q23 0 38 -23q34 -102 129 -107l23 -1q80 0 142 32.5t89 88.5q14 28 35 28q20 0 35 -17q11 -13 11 -32q0 -44 -46 -94q-69 -86 -195 -117q-69 -17 -132 -17z" />
    <glyph glyph-name="dotaccent" unicode="&#x2d9;" horiz-adv-x="357" 
d="M526 1623q-20 0 -30 21q-5 14 -5 29q0 18 7 38q5 12 21.5 44t67.5 59q20 10 40 10q84 -6 93 -96q-59 -66 -178 -102q-9 -3 -16 -3z" />
    <glyph glyph-name="ring" unicode="&#x2da;" horiz-adv-x="428" 
d="M610 1717q23 0 61.5 32t73.5 93.5t38 135.5q0 19 -18 19q-3 0 -17 -1.5t-56.5 -48.5t-96.5 -156q-8 -27 -8 -44q0 -30 23 -30zM570 1608q-96 0 -115 83q-3 12 -3 25q0 49 35 118q79 144 159 226q120 120 210 120q63 0 63 -56q0 -14 -4 -32q-10 -47 -10 -91
q-3 -72 -18 -112q-50 -122 -116 -185q-101 -96 -201 -96z" />
    <glyph glyph-name="ogonek" unicode="&#x2db;" horiz-adv-x="307" 
d="M-101 -392q-42 0 -84 49q-36 41 -36 101q0 61 32 149q27 74 96 144q48 48 92 48q19 0 28 -10q6 -7 6 -15q0 -10 -10 -20q-97 -89 -117 -143q-8 -23 -8 -46q0 -38 25 -74q13 -22 46 -30q28 -7 28 -27l-1 -9q-4 -14 -8.5 -27t-13.5 -32t-33 -42q-17 -16 -42 -16z" />
    <glyph glyph-name="tilde" unicode="&#x2dc;" horiz-adv-x="690" 
d="M732 1135q-28 0 -108 42q-65 60 -120 60q-26 0 -62.5 -20t-90.5 -58q-16 -6 -28 -6q-34 0 -34 51v11q23 46 82 91q83 63 190 63q16 0 28 -2q80 -14 108 -55q28 -45 60 -45q24 0 61 19q47 15 79 15q22 0 35 -14q7 -6 7 -14q0 -38 -131 -115q-43 -23 -76 -23z" />
    <glyph glyph-name="hungarumlaut" unicode="&#x2dd;" 
d="M315 1643q-20 0 -35.5 12.5t-15.5 27.5q0 7 3 14q21 58 124 144q221 228 292 243q3 0 21.5 -2t26.5 -26q4 -11 4 -23q0 -15 -6 -31q-360 -359 -414 -359zM859 1643q-20 0 -35.5 12.5t-15.5 27.5q0 7 3 14q21 58 124 144q221 228 292 243q3 0 21.5 -2t26.5 -26
q4 -11 4 -23q0 -15 -6 -31q-360 -359 -414 -359z" />
    <glyph glyph-name="endash" unicode="&#x2013;" horiz-adv-x="2314" 
d="M249 -188q-185 6 -211 107q-2 8 -2 15q0 83 310 83q108 0 611 -6l152 -1q170 0 337 6q147 5 254 5q17 0 84 -0.5t87 -18.5q20 -26 20 -54q0 -27 -17 -55q-34 -54 -364 -54h-72q-186 3 -336 3q-171 0 -349 -5.5t-340.5 -14.5t-163.5 -10z" />
    <glyph glyph-name="emdash" unicode="&#x2014;" horiz-adv-x="2909" 
d="M567 -239q-195 0 -382.5 9.5t-222.5 45.5q-24 33 -24 59q0 113 433 113q201 0 421 -21l7 -1q34 10 790 23q549 9 721 9q123 0 166 -4q45 -8 60 -50q4 -11 4 -22q0 -33 -45 -74q-35 -32 -177 -39q-380 -17 -816 -29q-675 -19 -935 -19z" />
    <glyph glyph-name="quoteleft" unicode="&#x2018;" horiz-adv-x="1072" 
d="M959 2244q-34 0 -82 21.5t-53 122.5v7q0 51 25 120t171 274q143 201 265 201q47 0 47 -27q0 -48 -154 -182q-42 -55 -72 -116q-17 -30 -17 -50q0 -37 65 -54t70 -66l1 -27q0 -31 -8 -54q-6 -18 -35.5 -59.5t-143.5 -92.5q-42 -18 -79 -18z" />
    <glyph glyph-name="quoteright" unicode="&#x2019;" horiz-adv-x="1156" 
d="M1403 2266q-46 0 -46 26q0 48 154 184q41 54 72 116q17 27 17 49q0 37 -65 54t-70 67q-2 15 -2 29q0 30 7.5 50t37 61t143.5 93q41 17 78 17q34 0 82.5 -21t53.5 -123v-7q0 -50 -25.5 -119.5t-170 -272.5t-266.5 -203z" />
    <glyph glyph-name="quotesinglbase" unicode="&#x201a;" horiz-adv-x="557" 
d="M-234 -775q-47 0 -47 27q0 48 154 183q42 54 72 116q17 27 17 49q0 37 -65 54t-70 67q-2 15 -2 29q0 30 7.5 50t37 61t143.5 93q41 17 78 17q34 0 82.5 -21t53.5 -123v-7q0 -50 -25.5 -119.5t-169.5 -272.5t-266 -203z" />
    <glyph glyph-name="quotedblleft" unicode="&#x201c;" horiz-adv-x="1801" 
d="M959 3262q-34 0 -82 21.5t-53 122.5v7q0 51 25 120t171 274q143 201 265 201q47 0 47 -27q0 -48 -154 -182q-42 -55 -72 -116q-17 -30 -17 -50q0 -37 65 -54t70 -66l1 -27q0 -31 -8 -54q-6 -18 -35.5 -59.5t-143.5 -92.5q-42 -18 -79 -18zM1572 3262q-34 0 -82 21.5
t-53 122.5v7q0 51 25 120t171 274q143 201 265 201q47 0 47 -27q0 -48 -154 -182q-42 -55 -72 -116q-17 -30 -17 -50q0 -37 65 -54t70 -66l1 -27q0 -31 -8 -54q-6 -18 -35.5 -59.5t-143.5 -92.5q-42 -18 -79 -18z" />
    <glyph glyph-name="quotedblright" unicode="&#x201d;" horiz-adv-x="1774" 
d="M1889 3266q-46 0 -46 26q0 48 154 184q41 54 72 116q17 27 17 49q0 37 -65 54t-70 67q-2 15 -2 29q0 30 7.5 50t37 61t143.5 93q41 17 78 17q34 0 82.5 -21t53.5 -123v-7q0 -50 -25.5 -119.5t-170 -272.5t-266.5 -203zM2551 3266q-46 0 -46 26q0 48 154 184q41 54 72 116
q17 27 17 49q0 37 -65 54t-70 67q-2 15 -2 29q0 30 7.5 50t37 61t143.5 93q41 17 78 17q34 0 82.5 -21t53.5 -123v-7q0 -50 -25.5 -119.5t-170 -272.5t-266.5 -203z" />
    <glyph glyph-name="quotedblbase" unicode="&#x201e;" horiz-adv-x="1774" 
d="M1439 266q-46 0 -46 26q0 48 154 184q41 54 72 116q17 27 17 49q0 37 -65 54t-70 67q-2 15 -2 29q0 30 7.5 50t37 61t143.5 93q41 17 78 17q34 0 82.5 -21t53.5 -123v-7q0 -50 -25.5 -119.5t-170 -272.5t-266.5 -203zM2101 266q-46 0 -46 26q0 48 154 184q41 54 72 116
q17 27 17 49q0 37 -65 54t-70 67q-2 15 -2 29q0 30 7.5 50t37 61t143.5 93q41 17 78 17q34 0 82.5 -21t53.5 -123v-7q0 -50 -25.5 -119.5t-170 -272.5t-266.5 -203z" />
    <glyph glyph-name="dagger" unicode="&#x2020;" horiz-adv-x="1475" 
d="M-416 -1394q-5 0 -9 2q-31 13 -31 64q0 53 35 149l14 38q218 527 406 899.5t420 790.5l196 358q-545 15 -545 123q0 8 3 17q8 23 28.5 41t40.5 29t27 11q229 -10 340 -33q65 -13 111 -13q25 0 62.5 7t92 86t156.5 264q579 1049 773 1049q47 0 47 -31t-25 -99
q-42 -115 -189 -278q-23 -24 -106 -130t-187 -250q-229 -318 -288 -480q-17 -47 -17 -75q0 -50 55 -50q178 17 353.5 58.5t235.5 41.5q48 0 62 -22q7 -16 7 -30q0 -31 -49 -63q-67 -43 -363 -94q-113 -20 -219 -44q-242 -54 -292 -140q-329 -587 -579 -1090
q-149 -299 -328 -716q-166 -390 -238 -390z" />
    <glyph glyph-name="daggerdbl" unicode="&#x2021;" horiz-adv-x="1526" 
d="M-319 -1394q-5 0 -9 2q-31 13 -31 64q0 113 260 663q56 119 56 176q0 53 -47 54q-474 0 -474 96q0 8 3 16q14 39 67 70q19 12 26 12q245 0 348 -14q55 -7 96 -7q38 0 81 10q25 6 56 44q182 358 462 865q82 144 92 172q8 21 8 37q0 40 -50 44q-458 21 -458 122q0 7 3 15
q8 23 28.5 41t40.5 29t27 11q229 -10 340 -33q65 -13 111 -13q25 0 62.5 7t91.5 86q50 71 157 264q579 1049 773 1049q47 0 47 -31t-25 -99q-42 -115 -189 -278q-23 -24 -106 -130t-187 -250q-230 -320 -288 -480q-17 -47 -17 -75q0 -50 55 -50q178 17 353.5 58.5
t235.5 41.5q48 0 62 -22q7 -16 7 -30q0 -31 -49 -63q-67 -43 -363 -94q-113 -20 -219 -44q-242 -54 -292 -140q-281 -500 -509 -949q-3 -17 -3 -30q0 -52 53 -52h7q180 26 354 77q189 52 250 52q63 0 63 -50q0 -29 -47 -61q-65 -46 -364 -112q-113 -25 -220 -55
q-198 -53 -265 -121q-106 -226 -226 -505q-166 -390 -238 -390z" />
    <glyph glyph-name="bullet" unicode="&#x2022;" 
d="M314 398h-8q-90 0 -127 87q-15 35 -15 90q0 80 32 203q34 95 88.5 179.5t112.5 162.5q75 99 122 184q55 102 202 102q152 0 263 -104q80 -77 80 -189q0 -93 -74 -208q-88 -131 -209.5 -245t-246 -186t-220.5 -76z" />
    <glyph glyph-name="ellipsis" unicode="&#x2026;" horiz-adv-x="2048" 
d="M146 15q-36 0 -52 36q-9 23 -9 48q0 31 13 66q7 19 36.5 74t113.5 100q34 16 66 16q9 0 16 -1q108 -22 140 -121q3 -11 3 -25l1 -15q-37 -42 -47 -50q-96 -76 -254 -124q-15 -4 -27 -4zM829 15q-36 0 -52 36q-9 23 -9 48q0 31 13 66q7 19 36.5 74t113.5 100q34 16 66 16
q9 0 16 -1q108 -22 140 -121q3 -11 3 -25l1 -15q-37 -42 -47 -50q-96 -76 -254 -124q-15 -4 -27 -4zM1512 15q-36 0 -52 36q-9 23 -9 48q0 31 13 66q7 19 36.5 74t113.5 100q34 16 66 16q9 0 16 -1q108 -22 140 -121q3 -11 3 -25l1 -15q-37 -42 -47 -50q-96 -76 -254 -124
q-15 -4 -27 -4z" />
    <glyph glyph-name="guilsinglleft" unicode="&#x2039;" horiz-adv-x="848" 
d="M634 337q-83 0 -287 97q-83 38 -176 76q-54 21 -83 73q-21 37 -21 81q0 94 93 197q107 109 277 235q478 357 531 357q21 0 51 -19q18 -12 18 -38q0 -17 -7 -40q-65 -72 -328 -256q-128 -89 -242 -176q-199 -151 -199 -213q0 -48 240 -122q87 -28 156 -57q105 -46 105 -97
q0 -25 -27 -56q-40 -42 -101 -42z" />
    <glyph glyph-name="guilsinglright" unicode="&#x203a;" horiz-adv-x="899" 
d="M-191 38q-16 0 -24 7q-17 18 -17 41q0 12 5 26q8 21 46 67t152.5 130t254.5 177q143 96 276 193t218 187q7 23 7 45q0 54 -50.5 115t-132.5 128q-61 50 -107 98q-51 52 -51 97q0 46 57 87q23 14 51 14q85 0 222 -134q250 -250 250 -363q0 -28 -10 -55q-8 -23 -49 -83
t-201 -173l-143 -109q-286 -222 -465 -344q-220 -151 -289 -151z" />
    <glyph glyph-name="fraction" unicode="&#x2044;" horiz-adv-x="954" 
d="M-1687 -1516q-61 0 -80 56q-7 18 -7 43q0 48 27 121l16 42q77 205 734 833q284 271 573 537q445 409 1381 1379q526 563 658 700q178 186 480 483q49 43 81 43q52 0 52 -53q0 -107 -156 -226q-104 -76 -193 -165.5t-171 -183.5q-433 -487 -1128 -1188.5t-1010 -988.5
q-867 -799 -1049 -1050q-94 -131 -94 -183q0 -22 22 -22q24 0 47 12q21 8 53.5 20t53.5 12q13 0 13 -9q0 -4 -1 -6.5t-6.5 -14.5t-65.5 -67q-139 -124 -230 -124z" />
    <glyph glyph-name="fraction" unicode="&#x2215;" horiz-adv-x="954" 
d="M-1687 -1516q-61 0 -80 56q-7 18 -7 43q0 48 27 121l16 42q77 205 734 833q284 271 573 537q445 409 1381 1379q526 563 658 700q178 186 480 483q49 43 81 43q52 0 52 -53q0 -107 -156 -226q-104 -76 -193 -165.5t-171 -183.5q-433 -487 -1128 -1188.5t-1010 -988.5
q-867 -799 -1049 -1050q-94 -131 -94 -183q0 -22 22 -22q24 0 47 12q21 8 53.5 20t53.5 12q13 0 13 -9q0 -4 -1 -6.5t-6.5 -14.5t-65.5 -67q-139 -124 -230 -124z" />
    <glyph glyph-name="franc" unicode="&#x20a3;" horiz-adv-x="3223" 
d="M-67 -1090q-33 0 -41 54l-1 19q0 135 172 434q150 259 444 690q-242 -12 -331 -12q-130 0 -130 73q0 13 5 28q21 55 75 62q39 2 125 9q214 16 381 27q63 94 116 177q139 217 139 278v5q-44 0 -135 -31t-204 -74q-91 -34 -181.5 -66t-169 -53t-130.5 -21q-40 0 -60 15
q-35 30 -35 55q0 33 61 60q73 33 289 85q141 33 292 78q352 105 460 278q373 631 520 905q110 205 163 350q-9 2 -21 2q-48 0 -136 -25q-127 -37 -382 -132q-125 -47 -186 -66q-135 -41 -160 -109q-8 -24 -8 -45v-5q0 -19 -5 -33q-10 -27 -60 -27q-23 0 -57 5q-20 3 -44 3
q-76 0 -175.5 -15.5t-171.5 -15.5q-94 0 -94 44q0 12 10 32q52 79 1025 380q319 99 431 132q154 50 235 178q33 54 58 106q20 40 40 72q41 70 105 70l21 -2q37 -7 38 -35v-8q0 -26 -11 -58q-10 -26 -21 -51q-30 -70 -30 -98q0 -2 1 -14t32 -12q12 0 29 4q859 188 1276 188
q381 0 381 -154q0 -24 -9 -50q-28 -76 -116.5 -163.5t-208.5 -172.5t-246.5 -155t-234.5 -112.5t-170 -42.5q-36 2 -36 13q1 17 69 56q61 35 151.5 82.5t191.5 103.5q406 227 453 390q-102 69 -276 69q-52 0 -105 -5q-485 -35 -770.5 -82t-443.5 -134.5t-264 -244.5
t-235 -414q-169 -330 -238 -438q-142 -221 -142 -284q0 -32 32 -32q14 0 34 6q106 32 841 195q711 157 854 176q42 5 70 5q69 0 69 -25q0 -23 -50 -58q-41 -29 -86 -50.5t-71 -27.5q-5 1 -14 1q-82 0 -447.5 -73.5t-742.5 -162t-541 -145.5q-118 -51 -419 -569
q189 10 297 10q145 0 181 -19q32 -24 32 -65l-1 -14q-5 -50 -63 -83q-29 -17 -72 -17q-40 0 -93 15q-165 -1 -388 -13q-174 -314 -262 -507q-144 -322 -277 -510.5t-197 -188.5z" />
    <glyph glyph-name="Euro" unicode="&#x20ac;" horiz-adv-x="3349" 
d="M1514 -971q-44 0 -181 6.5t-330.5 98.5t-305.5 296q-101 183 -101 479l1 74q0 58 -57 69q-23 4 -49 4q-90 0 -295 -57q-185 -51 -257 -51q-63 0 -67 44q0 60 96 112q74 40 190.5 71.5t218 48.5t139.5 20q79 6 114.5 62t76.5 186q18 55 43 127q4 11 4 21q0 34 -47 44
q-35 8 -86 8q-84 0 -316 -31q-232 -34 -350 -34q-169 0 -169 72q0 26 23 67q46 70 264 74q51 1 104 1t111 -1t117 -1q78 0 184.5 3.5t213 32t159.5 98.5q168 233 409.5 451.5t520.5 402t557 310t519 174.5q115 23 213 23q106 0 231 -39.5t177 -213.5q6 -25 6 -51
q0 -55 -24 -120q-19 -52 -85.5 -164t-224.5 -280t-313.5 -292.5t-243.5 -161.5q-24 -10 -39 -10q-22 0 -22 23q0 13 8 35q14 36 81 103q61 60 150 142q110 102 228 219q256 253 310 399q5 14 17 64q2 7 2 14q0 42 -71 77q-135 60 -296 60q-56 0 -200 -17.5t-391.5 -124
t-485 -262t-434.5 -329.5t-326 -338q-78 -98 -78 -146l1 -17q1 -42 177 -42q46 0 102 3q68 3 145 3q90 0 239.5 -6t375.5 -59q118 -33 118 -97q0 -14 -6 -30q-17 -47 -65 -70q-13 -6 -23 -6q-16 0 -24 15q-57 109 -563 109h-119q-110 0 -277 -11t-199 -16q-37 -9 -67 -50
q-41 -57 -88 -188q-23 -63 -23 -104q0 -33 25 -63.5t117 -30.5q91 0 223 17q199 26 357 26q134 0 274 -26q78 -19 78 -84q0 -12 -4 -24l-11 -22t-60 -23q-78 -2 -202 -3q-147 -1 -315 -6t-312.5 -22t-220.5 -54v-19q0 -323 101 -503q182 -324 633 -324q11 0 118.5 2
t302.5 44.5t342 85.5q159 47 213 47l11 -1q31 -10 31 -27q0 -4 -2 -9q-7 -18 -61 -59.5t-225.5 -106t-393.5 -107.5q-181 -34 -366 -34z" />
    <glyph glyph-name="trademark" unicode="&#x2122;" horiz-adv-x="3377" 
d="M1892 1211q-17 0 -17 14q0 42 249 405q186 272 291 440q233 371 233 502q0 74 -73 74q-62 0 -176 -53q-115 -76 -240 -145q-153 -108 -263 -218q-81 -81 -81 -106v-2q83 -51 83 -68q0 -8 -21 -9q-60 4 -110 21.5t-50 45.5q0 22 33 49.5t90 77.5q122 110 230 196
q3 17 28 33l155 100q175 111 214.5 142.5t40.5 47.5q0 19 -51 19q-37 0 -130 -13q-171 -20 -293 -49q-172 -41 -226 -109q-44 -57 -109 -150q-166 -229 -304 -452q-281 -454 -281 -637q0 -70 44 -85q28 -10 53.5 -11t25.5 -5q0 -7 -17 -23q-34 -32 -71 -32q-31 0 -57.5 22
t-42 61t-15.5 92q0 52 22 113q29 69 154 308q134 255 168 306q117 168 194 275q138 190 138 219q0 14 -17 14q-34 0 -183 -51q-71 -24 -364 -119q-302 -97 -354 -122q-13 -7 -13 -18t9.5 -26t9.5 -22q0 -12 -32 -12l-53 2q-82 0 -230 -28q-89 -18 -130 -18q-55 0 -55 34
q0 31 117 45q99 11 645 195q526 176 694 218q19 6 68 51q58 56 79 56q17 0 17 -33v-7q1 -11 24 -11q31 0 176 32q253 56 364 56q125 0 125 -48q0 -40 -79 -106q44 10 76 10q100 0 100 -102q0 -129 -148 -398q-130 -236 -322 -509q-168 -239 -189 -254q4 -2 8 -2
q21 0 56 27.5t82.5 75t106.5 107.5q81 84 176.5 177.5t200.5 179.5t217 148q55 30 80 30q26 0 26 -28q0 -47 -67 -166q-50 -87 -183 -295q-166 -253 -166 -288q0 -6 3 -8q6 0 165 161q243 243 347 344q511 496 621 496q31 0 31 -38q0 -20 -10 -49q-21 -57 -146 -295
q-62 -119 -122 -240q-120 -240 -120 -318q0 -37 28 -37q8 0 18 3q4 3 10 5q33 8 137 91q23 18 33 18q9 0 9 -10q0 -23 -40 -73q-68 -85 -177 -117q-20 -5 -36 -5q-60 0 -60 75q0 64 42 180q79 217 275 555q48 88 54.5 107t6.5 37v5q-73 -6 -339 -259q-179 -170 -473 -475
q-181 -188 -241 -241q-32 -27 -70 -27q-16 0 -29 10.5t-13 33.5q0 22 13 57q30 82 160 267q146 219 181 278q58 98 58 129q0 14 -12 14q-31 0 -144 -93q-201 -169 -481 -457q-88 -89 -161 -160q-160 -155 -208 -155z" />
    <glyph glyph-name="minus" unicode="&#x2212;" horiz-adv-x="1499" 
d="M236 539q-17 0 -84.5 0.5t-86.5 18.5q-20 26 -20 54q0 23 17 55q33 54 364 54h65q127 -3 213 -3q133 0 194.5 8.5t224 17.5t162.5 10q186 -6 213 -106q2 -7 2 -13q0 -85 -304 -85l-461 3q-93 0 -245 -9q-147 -5 -254 -5z" />
    <glyph glyph-name="approxequal" unicode="&#x2248;" horiz-adv-x="1476" 
d="M1035 796q-41 0 -71 20q-60 41 -103 110q-81 131 -179 131q-28 0 -62 -8q-94 -22 -258 -150q-76 -58 -121 -58q-59 0 -59 72q0 26 11 56q45 123 199 214q107 64 277 87q34 3 64 3q157 0 218 -86q30 -44 46 -88q34 -99 100 -99q33 0 84 18q94 34 287 164q48 30 93 30
q74 0 74 -56q0 -12 -3 -22q-46 -126 -495 -316q-58 -22 -102 -22zM1035 319q-41 0 -71 20q-60 41 -103 110q-81 131 -179 131q-28 0 -62 -8q-94 -22 -258 -150q-76 -58 -121 -58q-59 0 -59 72q0 26 11 56q45 123 199 214q107 64 277 87q34 3 64 3q157 0 218 -86
q30 -44 46 -88q34 -99 100 -99q33 0 84 18q94 34 287 164q48 30 93 30q74 0 74 -56q0 -12 -3 -22q-46 -126 -495 -316q-58 -22 -102 -22z" />
    <glyph glyph-name="lessequal" unicode="&#x2264;" horiz-adv-x="1420" 
d="M657 0q-35 0 -66 22q-67 51 -148 106q-120 81 -226.5 170t-145.5 186q-12 31 -12 62q0 67 56 140q85 134 471 289q264 106 680 237q129 41 215 70q31 10 55 10q28 0 55 -19q19 -14 19 -44q0 -16 -6 -38q-16 -44 -85 -96t-218 -91q-468 -116 -704 -198t-298 -145
q-33 -33 -33 -64t37.5 -73t144.5 -110q77 -50 156 -112.5t138 -142.5q24 -38 24 -69q0 -13 -4 -24q-2 -5 -15 -28t-63 -35q-14 -3 -27 -3zM236 -438q-17 0 -84.5 0.5t-86.5 18.5q-20 26 -20 54q0 23 17 55q33 54 364 54h65q127 -3 213 -3q133 0 194.5 8.5t224 17.5t162.5 10
q186 -6 213 -106q2 -7 2 -13q0 -85 -304 -85l-461 3q-93 0 -245 -9q-147 -5 -254 -5z" />
    <glyph glyph-name="greaterequal" unicode="&#x2265;" horiz-adv-x="1249" 
d="M-133 0q-35 0 -35 47q0 184 797 634q82 47 268 149l-66 41q-228 135 -363 244q-183 146 -183 250q0 18 5 35q39 99 89 99q58 0 149 -135q111 -158 441 -340q108 -58 163 -105q38 -31 38 -66q0 -12 -4 -24q-2 -5 -17.5 -34.5t-157.5 -107.5q-178 -99 -273 -150
q-102 -55 -160 -89q-84 -48 -342 -228q-139 -96 -168 -117q-138 -103 -181 -103zM236 -226q-17 0 -84.5 0.5t-86.5 18.5q-20 26 -20 54q0 23 17 55q33 54 364 54h65q127 -3 213 -3q133 0 194.5 8.5t224 17.5t162.5 10q186 -6 213 -106q2 -7 2 -13q0 -85 -304 -85l-461 3
q-93 0 -245 -9q-147 -5 -254 -5z" />
    <glyph glyph-name="uniF001" unicode="&#xf001;" horiz-adv-x="1728" 
d="M-896 -1666q44 59 148 222q452 705 581 1060q46 128 46 166q0 47 -43 61q-107 -203 -217 -405q-147 -272 -288 -545t-262 -548zM1417 1082q-64 0 -96 45q-11 16 -11 42q0 32 17 80q76 213 208 213q28 0 57 -9q103 -30 103 -103q0 -23 -10 -49q-29 -70 -103 -144
q-83 -75 -165 -75zM-1085 -2047q-88 4 -88 104q0 81 55 231q21 60 82 198q107 246 454 858q340 603 340 653q0 14 -5 39q-2 7 -2 17q0 47 37 147q34 92 62 108t57.5 61.5t141 228t388.5 548.5q152 173 205 219q53 40 80 40q33 0 33 -42q0 -66 -54 -144q-279 -395 -346 -494
q-126 -184 -238 -374q-29 -58 -29 -88q0 -70 115 -70q113 0 241 58q189 90 512 299q44 67 120 143q44 40 80 40q58 0 58 -54q0 -61 -49 -129q-74 -95 -150 -229q-81 -145 -114 -235q-20 -56 -20 -113q0 -123 61 -123q25 0 91 35q105 56 733 687q36 24 58 24q27 0 34 -38
q-8 -32 -175 -208q-193 -194 -395 -386t-318 -256q-94 -47 -150 -47q-18 0 -53.5 12.5t-70.5 91.5q-17 38 -17 82q0 47 19 101q50 150 153 389q-48 -31 -107 -67q-351 -209 -555 -256q-65 -15 -90.5 -40t-39.5 -106q-78 -334 -388 -903q-143 -262 -292.5 -492t-273 -373.5
t-190.5 -146.5z" />
    <glyph glyph-name="uniF001" unicode="&#xfb01;" horiz-adv-x="1728" 
d="M-896 -1666q44 59 148 222q452 705 581 1060q46 128 46 166q0 47 -43 61q-107 -203 -217 -405q-147 -272 -288 -545t-262 -548zM1417 1082q-64 0 -96 45q-11 16 -11 42q0 32 17 80q76 213 208 213q28 0 57 -9q103 -30 103 -103q0 -23 -10 -49q-29 -70 -103 -144
q-83 -75 -165 -75zM-1085 -2047q-88 4 -88 104q0 81 55 231q21 60 82 198q107 246 454 858q340 603 340 653q0 14 -5 39q-2 7 -2 17q0 47 37 147q34 92 62 108t57.5 61.5t141 228t388.5 548.5q152 173 205 219q53 40 80 40q33 0 33 -42q0 -66 -54 -144q-279 -395 -346 -494
q-126 -184 -238 -374q-29 -58 -29 -88q0 -70 115 -70q113 0 241 58q189 90 512 299q44 67 120 143q44 40 80 40q58 0 58 -54q0 -61 -49 -129q-74 -95 -150 -229q-81 -145 -114 -235q-20 -56 -20 -113q0 -123 61 -123q25 0 91 35q105 56 733 687q36 24 58 24q27 0 34 -38
q-8 -32 -175 -208q-193 -194 -395 -386t-318 -256q-94 -47 -150 -47q-18 0 -53.5 12.5t-70.5 91.5q-17 38 -17 82q0 47 19 101q50 150 153 389q-48 -31 -107 -67q-351 -209 -555 -256q-65 -15 -90.5 -40t-39.5 -106q-78 -334 -388 -903q-143 -262 -292.5 -492t-273 -373.5
t-190.5 -146.5z" />
    <glyph glyph-name="uniF002" unicode="&#xf002;" horiz-adv-x="1832" 
d="M-896 -1666q44 59 148 222q452 705 581 1060q46 128 46 166q0 47 -43 61q-107 -203 -217 -405q-147 -272 -288 -545t-262 -548zM-1085 -2047q-88 4 -88 104q0 81 55 231q21 60 82 198q107 246 454 858q340 603 340 653q0 14 -5 39q-2 7 -2 17q0 47 37 147q34 92 62 108
t57.5 61.5t141 228t388.5 548.5q152 173 205 219q53 40 80 40q33 0 33 -42q0 -66 -54 -144q-279 -395 -346 -494q-126 -184 -238 -374q-29 -58 -29 -88q0 -70 115 -70q113 0 241 58q193 92 525 308q148 353 386 780q311 565 456 825q400 715 614 980q36 43 89 43
q26 0 46 -15q25 -19 25 -59q0 -58 -54 -151q-129 -214 -275 -403q-84 -106 -199.5 -276t-307.5 -507q-219 -381 -451 -873q-215 -455 -292 -762q-29 -116 -29 -178q0 -68 36 -68q75 0 286 172q165 135 343 308q259 250 321 250q17 0 17 -19q0 -13 -8 -34q-51 -141 -218 -296
q-99 -92 -218 -193q-57 -48 -111 -96q-68 -60 -156 -122q-213 -148 -345 -148q-139 0 -139 188q0 163 108 460q-63 -42 -149 -95q-351 -209 -555 -256q-65 -15 -90.5 -40t-39.5 -106q-78 -334 -388 -903q-143 -262 -292.5 -492t-273 -373.5t-190.5 -146.5z" />
    <glyph glyph-name="uniF002" unicode="&#xfb02;" horiz-adv-x="1832" 
d="M-896 -1666q44 59 148 222q452 705 581 1060q46 128 46 166q0 47 -43 61q-107 -203 -217 -405q-147 -272 -288 -545t-262 -548zM-1085 -2047q-88 4 -88 104q0 81 55 231q21 60 82 198q107 246 454 858q340 603 340 653q0 14 -5 39q-2 7 -2 17q0 47 37 147q34 92 62 108
t57.5 61.5t141 228t388.5 548.5q152 173 205 219q53 40 80 40q33 0 33 -42q0 -66 -54 -144q-279 -395 -346 -494q-126 -184 -238 -374q-29 -58 -29 -88q0 -70 115 -70q113 0 241 58q193 92 525 308q148 353 386 780q311 565 456 825q400 715 614 980q36 43 89 43
q26 0 46 -15q25 -19 25 -59q0 -58 -54 -151q-129 -214 -275 -403q-84 -106 -199.5 -276t-307.5 -507q-219 -381 -451 -873q-215 -455 -292 -762q-29 -116 -29 -178q0 -68 36 -68q75 0 286 172q165 135 343 308q259 250 321 250q17 0 17 -19q0 -13 -8 -34q-51 -141 -218 -296
q-99 -92 -218 -193q-57 -48 -111 -96q-68 -60 -156 -122q-213 -148 -345 -148q-139 0 -139 188q0 163 108 460q-63 -42 -149 -95q-351 -209 -555 -256q-65 -15 -90.5 -40t-39.5 -106q-78 -334 -388 -903q-143 -262 -292.5 -492t-273 -373.5t-190.5 -146.5z" />
  </font>
</defs>
</svg>
